<svg width="15" height="15" viewBox="0 0 15 15" fill="none" xmlns="http://www.w3.org/2000/svg">
<path d="M5.31165 2.83981C4.58636 2.86802 3.9314 3.12677 3.58103 3.47722C3.41832 3.63997 3.15449 3.63997 2.99178 3.47727C2.82903 3.3146 2.82899 3.05077 2.9917 2.88802C3.53228 2.34735 4.41203 2.04085 5.27924 2.0071C6.15211 1.97314 7.10507 2.21214 7.77245 2.87964C7.93511 3.04235 7.93511 3.30618 7.77236 3.46889C7.60965 3.6316 7.34582 3.63156 7.18311 3.46885C6.72853 3.01414 6.03124 2.81181 5.31165 2.83981Z" fill="white"/>
<path fill-rule="evenodd" clip-rule="evenodd" d="M9.55646 8.91004C10.3531 7.96696 10.8333 6.74788 10.8333 5.41667C10.8333 2.42513 8.40821 0 5.41667 0C2.42513 0 0 2.42513 0 5.41667C0 8.40821 2.42513 10.8333 5.41667 10.8333C6.74788 10.8333 7.96696 10.3531 8.91004 9.55646L8.75 10.4768L11.8807 13.6075L13.6075 11.8807L10.4768 8.75L9.55646 8.91004ZM5.41667 9.58333C7.71783 9.58333 9.58333 7.71783 9.58333 5.41667C9.58333 3.1155 7.71783 1.25 5.41667 1.25C3.1155 1.25 1.25 3.1155 1.25 5.41667C1.25 7.71783 3.1155 9.58333 5.41667 9.58333Z" fill="white"/>
<path d="M12.47 14.1967L14.1967 12.4699L14.7616 13.0349C15.0795 13.3527 15.0795 13.8681 14.7616 14.186L14.186 14.7616C13.8681 15.0794 13.3528 15.0794 13.0349 14.7616L12.47 14.1967Z" fill="white"/>
</svg>
