<svg width="254" height="267" viewBox="0 0 254 267" fill="none" xmlns="http://www.w3.org/2000/svg">
<g clip-path="url(#clip0_57_1526)">
<path d="M98.2558 267C152.521 267 196.512 259.193 196.512 249.562C196.512 239.932 152.521 232.125 98.2558 232.125C43.9906 232.125 0 239.932 0 249.562C0 259.193 43.9906 267 98.2558 267Z" fill="#3F3D56"/>
<path d="M157.974 192.931C211.007 192.931 254 149.742 254 96.4656C254 43.1891 211.007 0 157.974 0C104.94 0 61.9473 43.1891 61.9473 96.4656C61.9473 149.742 104.94 192.931 157.974 192.931Z" fill="#3F3D56"/>
<path opacity="0.05" d="M157.974 176.101C201.755 176.101 237.247 140.447 237.247 96.4655C237.247 52.4841 201.755 16.8301 157.974 16.8301C114.193 16.8301 78.7009 52.4841 78.7009 96.4655C78.7009 140.447 114.193 176.101 157.974 176.101Z" fill="black"/>
<path opacity="0.05" d="M157.974 161.734C193.856 161.734 222.945 132.512 222.945 96.4654C222.945 60.4188 193.856 31.1973 157.974 31.1973C122.091 31.1973 93.0027 60.4188 93.0027 96.4654C93.0027 132.512 122.091 161.734 157.974 161.734Z" fill="black"/>
<path opacity="0.05" d="M157.974 143.262C183.701 143.262 204.557 122.31 204.557 96.4655C204.557 70.6207 183.701 49.6694 157.974 49.6694C132.247 49.6694 111.391 70.6207 111.391 96.4655C111.391 122.31 132.247 143.262 157.974 143.262Z" fill="black"/>
<path d="M62.7978 105.099C62.7978 105.099 55.2482 126.447 58.6035 134.031C61.9589 141.615 67.2716 148.918 67.2716 148.918C67.2716 148.918 65.3143 106.503 62.7978 105.099Z" fill="#D0CDE1"/>
<path opacity="0.1" d="M62.7978 105.099C62.7978 105.099 55.2482 126.447 58.6035 134.031C61.9589 141.615 67.2716 148.918 67.2716 148.918C67.2716 148.918 65.3143 106.503 62.7978 105.099Z" fill="black"/>
<path d="M68.1104 154.536C68.1104 154.536 67.5512 159.873 67.2716 160.154C66.992 160.435 67.5512 160.996 67.2716 161.839C66.992 162.682 66.7124 163.805 67.2716 164.086C67.8308 164.367 64.1958 189.086 64.1958 189.086C64.1958 189.086 55.2482 200.883 58.8831 219.422L60.0016 238.242C60.0016 238.242 68.6697 238.804 68.6697 235.714C68.6697 235.714 68.1104 232.062 68.1104 230.377C68.1104 228.692 69.5085 228.692 68.6697 227.849C67.8308 227.006 67.8308 226.445 67.8308 226.445C67.8308 226.445 69.2289 225.321 68.9493 225.04C68.6697 224.759 71.4658 204.816 71.4658 204.816C71.4658 204.816 74.5416 201.726 74.5416 200.041V198.355C74.5416 198.355 75.9396 194.704 75.9396 194.423C75.9396 194.142 83.4892 177.007 83.4892 177.007L86.565 189.367L89.9204 207.063C89.9204 207.063 91.598 223.074 94.9534 229.254C94.9534 229.254 100.825 249.478 100.825 248.916C100.825 248.354 110.612 246.95 110.332 244.422C110.053 241.894 104.46 206.501 104.46 206.501L105.858 153.974L68.1104 154.536Z" fill="#2F2E41"/>
<path d="M60.5609 236.838C60.5609 236.838 53.0113 251.725 58.0443 252.287C63.0774 252.848 65.0347 252.848 67.2716 250.601C68.4945 249.373 70.971 247.724 72.9649 246.483C74.1464 245.759 75.1008 244.715 75.7187 243.471C76.3366 242.227 76.593 240.833 76.4585 239.449C76.311 238.075 75.7999 236.943 74.5416 236.838C71.1862 236.557 67.2716 233.467 67.2716 233.467L60.5609 236.838Z" fill="#2F2E41"/>
<path d="M102.223 247.793C102.223 247.793 94.6739 262.68 99.7069 263.242C104.74 263.804 106.697 263.804 108.934 261.556C110.157 260.328 112.634 258.68 114.628 257.438C115.809 256.714 116.763 255.67 117.381 254.426C117.999 253.182 118.256 251.788 118.121 250.405C117.974 249.03 117.462 247.898 116.204 247.793C112.849 247.512 108.934 244.422 108.934 244.422L102.223 247.793Z" fill="#2F2E41"/>
<path d="M94.2444 80.736C100.736 80.736 105.998 75.4495 105.998 68.9283C105.998 62.4071 100.736 57.1206 94.2444 57.1206C87.7529 57.1206 82.4905 62.4071 82.4905 68.9283C82.4905 75.4495 87.7529 80.736 94.2444 80.736Z" fill="#FFB8B8"/>
<path d="M86.6883 72.8076C86.6883 72.8076 78.2926 88.3263 77.6209 88.3263C76.9493 88.3263 92.7332 93.3868 92.7332 93.3868C92.7332 93.3868 97.0989 78.5428 97.7706 77.1933L86.6883 72.8076Z" fill="#FFB8B8"/>
<path d="M99.5671 89.7898C99.5671 89.7898 82.7903 80.5203 81.1126 80.8012C79.4349 81.0821 61.5395 96.8121 61.8192 103.273C62.0988 109.733 64.3357 120.407 64.3357 120.407C64.3357 120.407 65.1745 150.182 66.8522 150.463C68.5299 150.744 66.5726 155.8 67.1318 155.8C67.6911 155.8 106.278 155.8 106.557 154.957C106.837 154.114 99.5671 89.7898 99.5671 89.7898Z" fill="#D0CDE1"/>
<path d="M108.934 156.502C108.934 156.502 114.247 172.794 109.773 172.232C105.299 171.67 103.342 158.187 103.342 158.187L108.934 156.502Z" fill="#FFB8B8"/>
<path d="M94.6739 88.8066C94.6739 88.8066 84.3281 91.0537 86.0058 105.098C87.6835 119.143 90.7592 133.188 90.7592 133.188L101.105 155.94L102.223 160.154L109.773 158.187L104.181 125.604C104.181 125.604 102.223 90.7728 99.7069 89.6492C98.12 88.9696 96.3944 88.6807 94.6739 88.8066Z" fill="#D0CDE1"/>
<path opacity="0.1" d="M88.3823 132.767L101.245 155.8L90.4079 131.529L88.3823 132.767Z" fill="black"/>
<path d="M105.946 65.4511L105.985 64.5488L107.772 64.9956C107.753 64.7059 107.671 64.4239 107.533 64.169C107.395 63.914 107.203 63.6922 106.971 63.519L108.875 63.4121C107.277 61.1322 105.237 59.2011 102.876 57.7355C100.516 56.2699 97.8837 55.3002 95.1396 54.8849C91.0228 54.2855 86.4388 55.1529 83.6158 58.2222C82.2465 59.7109 81.3861 61.6041 80.7741 63.5356C79.6468 67.0928 79.4171 71.3334 81.7677 74.2249C84.1566 77.1637 88.3293 77.7394 92.0888 78.1031C93.4116 78.2311 94.7978 78.3502 96.0237 77.8346C96.1601 76.4221 95.9801 74.9969 95.4969 73.6634C95.2957 73.2506 95.1995 72.7941 95.217 72.3348C95.3841 71.2113 96.876 70.9282 97.9967 71.08C99.1174 71.2318 100.465 71.4641 101.201 70.6019C101.709 70.0081 101.679 69.1432 101.746 68.3636C101.929 66.2412 105.927 65.8961 105.946 65.4511Z" fill="#2F2E41"/>
<path d="M178.039 251.962C185.603 251.962 191.734 245.803 191.734 238.204C191.734 230.606 185.603 224.446 178.039 224.446C170.475 224.446 164.344 230.606 164.344 238.204C164.344 245.803 170.475 251.962 178.039 251.962Z" fill="#0055D3"/>
<path d="M17.1987 247.163C24.7624 247.163 30.894 241.003 30.894 233.405C30.894 225.807 24.7624 219.647 17.1987 219.647C9.63501 219.647 3.50342 225.807 3.50342 233.405C3.50342 241.003 9.63501 247.163 17.1987 247.163Z" fill="#0055D3"/>
<path d="M17.1988 225.086C22.6517 225.086 27.0721 220.645 27.0721 215.168C27.0721 209.69 22.6517 205.249 17.1988 205.249C11.7459 205.249 7.32544 209.69 7.32544 215.168C7.32544 220.645 11.7459 225.086 17.1988 225.086Z" fill="#0055D3"/>
<path d="M17.1988 206.849C21.0686 206.849 24.2057 203.697 24.2057 199.81C24.2057 195.922 21.0686 192.771 17.1988 192.771C13.329 192.771 10.1919 195.922 10.1919 199.81C10.1919 203.697 13.329 206.849 17.1988 206.849Z" fill="#0055D3"/>
</g>
<defs>
<clipPath id="clip0_57_1526">
<rect width="254" height="267" fill="white"/>
</clipPath>
</defs>
</svg>
