<svg width="350" height="267" viewBox="0 0 350 267" fill="none" xmlns="http://www.w3.org/2000/svg">
<g clip-path="url(#clip0_57_1022)">
<path d="M199 68.8444C199 70.3639 198.951 71.8707 198.852 73.3648C198.299 81.9818 196.118 90.4167 192.425 98.2246C192.396 98.2913 192.363 98.3532 192.334 98.4151C192.162 98.7771 191.986 99.1392 191.805 99.4964C190.706 101.705 189.488 103.851 188.154 105.927C182.065 115.455 173.718 123.338 163.851 128.881C153.985 134.424 142.903 137.456 131.584 137.708L132.266 176.881L141.165 172.204L142.754 175.219L132.333 180.697L133.607 253.452L133.621 254.424L126.741 255L126.755 254.976L128.921 137.713C119.811 137.582 110.817 135.646 102.463 132.017C94.1078 128.388 86.5584 123.139 80.2527 116.573C79.8186 116.125 79.389 115.663 78.9692 115.206C78.9501 115.187 78.9359 115.168 78.9214 115.153C73.6676 109.434 69.4186 102.87 66.3535 95.7381C66.4203 95.8144 66.4918 95.8858 66.5587 95.962C59.6314 79.7905 59.1616 61.5865 65.2455 45.0802C71.3294 28.574 83.5064 15.0155 99.2812 7.18313C99.5197 7.06405 99.7632 6.94973 100.002 6.83065C115.606 -0.672633 133.464 -2.04938 150.037 2.97328C166.611 7.99594 180.688 19.0514 189.481 33.9483C189.901 34.6533 190.306 35.3725 190.698 36.0965C196.159 46.1498 199.013 57.4078 199 68.8444Z" fill="#E5E5E5"/>
<path d="M161.052 255.575C180.371 255.575 196.033 239.865 196.033 220.487C196.033 201.109 180.371 185.4 161.052 185.4C141.733 185.4 126.072 201.109 126.072 220.487C126.072 239.865 141.733 255.575 161.052 255.575Z" fill="#2F2E41"/>
<path d="M202.396 244.606H171.057V255.266H202.396V244.606Z" fill="#2F2E41"/>
<path d="M202.617 255.266C204.451 255.266 205.938 251.289 205.938 246.383C205.938 241.477 204.451 237.5 202.617 237.5C200.783 237.5 199.296 241.477 199.296 246.383C199.296 251.289 200.783 255.266 202.617 255.266Z" fill="#2F2E41"/>
<path d="M195.086 243.792H163.747V254.451H195.086V243.792Z" fill="#2F2E41"/>
<path d="M195.307 254.451C197.141 254.451 198.628 250.474 198.628 245.568C198.628 240.662 197.141 236.685 195.307 236.685C193.473 236.685 191.986 240.662 191.986 245.568C191.986 250.474 193.473 254.451 195.307 254.451Z" fill="#2F2E41"/>
<path d="M127.12 187.857C124.296 175.169 133.324 162.348 147.287 159.221C161.249 156.094 174.857 163.845 177.682 176.533C180.506 189.221 171.253 193.901 157.291 197.028C143.329 200.155 129.945 200.545 127.12 187.857Z" fill="#0055D3"/>
<path d="M174.497 218.489C172.667 218.527 170.872 217.986 169.365 216.945C167.858 215.904 166.716 214.414 166.098 212.686C166.064 212.585 166.051 212.477 166.058 212.371C166.065 212.264 166.094 212.16 166.141 212.064C166.189 211.968 166.254 211.883 166.335 211.812C166.415 211.742 166.509 211.688 166.61 211.654C166.711 211.62 166.818 211.607 166.924 211.614C167.031 211.621 167.134 211.649 167.23 211.697C167.326 211.745 167.411 211.811 167.481 211.891C167.551 211.972 167.604 212.066 167.638 212.167C168.868 215.84 173.079 217.76 177.023 216.447C178.982 215.808 180.609 214.417 181.549 212.579C181.953 211.788 182.196 210.924 182.264 210.037C182.331 209.151 182.223 208.26 181.944 207.416C181.91 207.314 181.896 207.207 181.903 207.101C181.911 206.994 181.939 206.89 181.986 206.794C182.034 206.698 182.1 206.613 182.18 206.542C182.261 206.472 182.354 206.418 182.455 206.384C182.556 206.35 182.663 206.336 182.77 206.344C182.876 206.351 182.98 206.379 183.075 206.427C183.171 206.475 183.256 206.541 183.326 206.621C183.396 206.702 183.45 206.796 183.484 206.897C183.831 207.944 183.968 209.05 183.885 210.151C183.802 211.251 183.503 212.324 183.003 213.307C181.868 215.532 179.902 217.217 177.535 217.994C176.555 218.321 175.529 218.488 174.497 218.489Z" fill="white"/>
<path d="M190.079 223.258C191.017 225.1 191.189 227.24 190.554 229.208C189.92 231.176 188.532 232.811 186.697 233.753C184.861 234.694 182.727 234.866 180.765 234.23C178.803 233.594 177.173 232.202 176.234 230.36L176.227 230.347C174.276 226.51 176.972 224.129 180.797 222.171C184.622 220.214 188.127 219.422 190.079 223.258Z" fill="white"/>
<path d="M314.927 255.891H5.46848C5.25306 255.891 5.04645 255.805 4.89413 255.652C4.74181 255.499 4.65625 255.292 4.65625 255.076C4.65625 254.86 4.74181 254.653 4.89413 254.5C5.04645 254.347 5.25306 254.261 5.46848 254.261H314.927C315.142 254.261 315.349 254.347 315.501 254.5C315.654 254.653 315.739 254.86 315.739 255.076C315.739 255.292 315.654 255.499 315.501 255.652C315.349 255.805 315.142 255.891 314.927 255.891Z" fill="#3F3D56"/>
<path d="M153.226 266.937C156.484 266.095 156.956 256.973 154.279 246.563C151.603 236.153 146.792 228.397 143.534 229.24C140.276 230.083 139.804 239.205 142.481 249.615C145.157 260.025 149.968 267.78 153.226 266.937Z" fill="#2F2E41"/>
<path d="M211.963 178.66H198.655C198.528 178.66 198.404 178.622 198.299 178.55C198.195 178.478 198.115 178.376 198.069 178.257C198.023 178.138 198.015 178.009 198.044 177.885C198.073 177.761 198.139 177.649 198.233 177.564L210.335 166.57H199.154C198.987 166.57 198.828 166.503 198.71 166.385C198.592 166.267 198.526 166.107 198.526 165.94C198.526 165.773 198.592 165.613 198.71 165.495C198.828 165.377 198.987 165.311 199.154 165.311H211.963C212.09 165.311 212.214 165.349 212.319 165.421C212.423 165.493 212.504 165.595 212.549 165.714C212.595 165.832 212.603 165.962 212.574 166.086C212.545 166.209 212.479 166.321 212.385 166.407L200.282 177.401H211.963C212.13 177.401 212.29 177.467 212.407 177.585C212.525 177.703 212.591 177.864 212.591 178.031C212.591 178.197 212.525 178.358 212.407 178.476C212.29 178.594 212.13 178.66 211.963 178.66Z" fill="#CBCBCB"/>
<path d="M228.91 159.144H215.601C215.474 159.144 215.35 159.105 215.246 159.033C215.141 158.961 215.061 158.859 215.015 158.741C214.97 158.622 214.961 158.492 214.99 158.369C215.019 158.245 215.086 158.133 215.179 158.048L227.282 147.053H216.1C215.933 147.053 215.774 146.987 215.656 146.869C215.538 146.751 215.472 146.591 215.472 146.424C215.472 146.257 215.538 146.097 215.656 145.979C215.774 145.861 215.933 145.794 216.1 145.794H228.91C229.036 145.794 229.16 145.833 229.265 145.905C229.369 145.977 229.45 146.079 229.495 146.197C229.541 146.316 229.55 146.446 229.52 146.569C229.491 146.693 229.425 146.805 229.331 146.89L217.229 157.885H228.91C229.076 157.885 229.236 157.951 229.354 158.069C229.471 158.187 229.537 158.347 229.537 158.514C229.537 158.681 229.471 158.841 229.354 158.959C229.236 159.077 229.076 159.144 228.91 159.144Z" fill="#CBCBCB"/>
<path d="M221.378 137.739H208.069C207.943 137.739 207.819 137.7 207.714 137.629C207.61 137.557 207.529 137.455 207.484 137.336C207.438 137.217 207.429 137.087 207.459 136.964C207.488 136.84 207.554 136.728 207.648 136.643L219.75 125.649H208.568C208.402 125.649 208.242 125.582 208.125 125.464C208.007 125.346 207.941 125.186 207.941 125.019C207.941 124.852 208.007 124.692 208.125 124.574C208.242 124.456 208.402 124.389 208.568 124.389H221.378C221.505 124.389 221.629 124.428 221.733 124.5C221.838 124.572 221.918 124.674 221.964 124.792C222.01 124.911 222.018 125.041 221.989 125.165C221.96 125.288 221.894 125.4 221.8 125.486L209.697 136.48H221.378C221.545 136.48 221.704 136.546 221.822 136.664C221.94 136.782 222.006 136.942 222.006 137.109C222.006 137.276 221.94 137.436 221.822 137.555C221.704 137.673 221.545 137.739 221.378 137.739Z" fill="#CBCBCB"/>
<path d="M313.617 115.51L324.009 107.173C315.935 106.28 312.618 110.696 311.261 114.192C304.954 111.565 298.087 115.008 298.087 115.008L318.88 122.579C317.832 119.769 316.005 117.317 313.617 115.51Z" fill="#3F3D56"/>
<path d="M15.5292 59.454L25.9215 51.1168C17.8481 50.2233 14.531 54.6398 13.1734 58.1355C6.86615 55.5085 0 58.9513 0 58.9513L20.7931 66.523C19.7441 63.7126 17.9181 61.2605 15.5292 59.454Z" fill="#3F3D56"/>
<path d="M339.608 7.96894L350 -0.368348C341.927 -1.26177 338.61 3.15468 337.252 6.65036C330.945 4.02336 324.079 7.46618 324.079 7.46618L344.872 15.0379C343.823 12.2275 341.997 9.77537 339.608 7.96894Z" fill="#3F3D56"/>
</g>
<defs>
<clipPath id="clip0_57_1022">
<rect width="350" height="267" fill="white"/>
</clipPath>
</defs>
</svg>
