<svg width="205" height="103" viewBox="0 0 205 103" fill="none" xmlns="http://www.w3.org/2000/svg">
<g clip-path="url(#clip0_8_4382)">
<path d="M17.3375 84.85C19.0861 87.3328 21.2163 89.5826 23.6654 91.533C23.7213 91.5788 23.7788 91.6226 23.8363 91.6675L29.0652 88.8836C29.0265 88.8365 28.9838 88.7837 28.938 88.7259C26.2079 85.3202 13.8776 62.6627 13.8023 57.6452C13.7928 58.0605 9.36485 73.6546 17.3375 84.85Z" fill="#E6E6E6"/>
<path d="M22.6564 92.0702C22.7372 92.1028 22.8197 92.1344 22.9027 92.1646L26.8256 90.076C26.7643 90.0444 26.6928 90.0069 26.6109 89.9649C25.268 89.262 21.2722 87.15 17.3379 84.8498C13.1106 82.3775 8.95198 79.6896 8.23035 78.2997C8.38052 78.6196 13.035 88.34 22.6564 92.0702Z" fill="#E6E6E6"/>
<path d="M188.375 93.9839C188.287 96.9188 187.739 99.8279 186.745 102.626C186.723 102.69 186.699 102.754 186.675 102.819H180.592C180.599 102.761 180.605 102.696 180.612 102.626C181.017 98.4481 178.701 73.3262 175.905 68.9782C176.15 69.3309 188.847 80.7104 188.375 93.9839Z" fill="#E6E6E6"/>
<path d="M187.919 102.626C187.868 102.691 187.815 102.756 187.761 102.819H183.198C183.232 102.764 183.272 102.699 183.319 102.626C184.073 101.407 186.304 97.7622 188.375 93.984C190.599 89.9238 192.642 85.7097 192.47 84.1844C192.523 84.5283 194.064 95.0151 187.919 102.626Z" fill="#E6E6E6"/>
<path d="M98.696 102.668H28.3575C26.6904 102.666 25.092 102.072 23.9132 101.016C22.7343 99.9595 22.0712 98.5273 22.0693 97.0335V5.63431C22.0712 4.14052 22.7343 2.70839 23.9132 1.65212C25.092 0.595841 26.6904 0.00168624 28.3575 0H98.696C100.363 0.00168623 101.961 0.59584 103.14 1.65211C104.319 2.70838 104.982 4.14051 104.984 5.63431V97.0336C104.982 98.5273 104.319 99.9595 103.14 101.016C101.961 102.072 100.363 102.666 98.696 102.668Z" fill="#CACACA"/>
<path d="M98.8198 99.073H28.2337C27.7198 99.0725 27.2271 98.8893 26.8637 98.5637C26.5003 98.2381 26.2959 97.7967 26.2953 97.3362V5.33162C26.2959 4.87115 26.5003 4.42968 26.8637 4.10408C27.2271 3.77847 27.7198 3.59531 28.2337 3.59479H98.8198C99.3337 3.59531 99.8264 3.77847 100.19 4.10408C100.553 4.42968 100.758 4.87115 100.758 5.33162V97.3362C100.758 97.7967 100.553 98.2381 100.19 98.5637C99.8264 98.8893 99.3337 99.0725 98.8198 99.073Z" fill="white"/>
<path d="M63.2593 2.20483C63.5547 2.20483 63.7942 1.99024 63.7942 1.72552C63.7942 1.46081 63.5547 1.24622 63.2593 1.24622C62.9639 1.24622 62.7244 1.46081 62.7244 1.72552C62.7244 1.99024 62.9639 2.20483 63.2593 2.20483Z" fill="white"/>
<path d="M204.738 103H0.26227C0.192711 103 0.126002 102.975 0.0768169 102.931C0.0276315 102.887 0 102.827 0 102.765C0 102.703 0.0276315 102.643 0.0768169 102.599C0.126002 102.555 0.192711 102.53 0.26227 102.53H204.738C204.807 102.53 204.874 102.555 204.923 102.599C204.972 102.643 205 102.703 205 102.765C205 102.827 204.972 102.887 204.923 102.931C204.874 102.975 204.807 103 204.738 103Z" fill="#CACACA"/>
<path d="M63.5262 76.2513C67.2974 76.2513 70.3546 73.512 70.3546 70.133C70.3546 66.7539 67.2974 64.0146 63.5262 64.0146C59.755 64.0146 56.6978 66.7539 56.6978 70.133C56.6978 73.512 59.755 76.2513 63.5262 76.2513Z" fill="#E4E4E4"/>
<path d="M67.8012 58.3897H59.2511L54.0894 35.7657C53.9567 34.5843 54.1019 33.3912 54.5154 32.2631C54.9289 31.1351 55.6017 30.0972 56.4903 29.2164C57.3789 28.3356 58.4636 27.6314 59.6745 27.1492C60.8854 26.6669 62.1957 26.4175 63.5208 26.4167C64.846 26.416 66.1566 26.6642 67.3681 27.1451C68.5797 27.626 69.6654 28.329 70.5551 29.2089C71.4449 30.0888 72.119 31.126 72.534 32.2536C72.949 33.3812 73.0957 34.5742 72.9647 35.7557L67.8012 58.3897Z" fill="#E4E4E4"/>
<path d="M97.121 27.9797H128.372C129.88 27.9797 131.343 28.4394 132.521 29.2832C133.698 30.1271 134.521 31.3049 134.852 32.623L150.643 95.3787C150.815 96.0632 150.818 96.7732 150.651 97.4588C150.485 98.1445 150.153 98.7892 149.679 99.3479C149.206 99.9065 148.601 100.366 147.908 100.693C147.215 101.02 146.451 101.207 145.669 101.242L113.543 102.66C111.823 102.736 110.131 102.249 108.782 101.289C107.433 100.329 106.521 98.9619 106.214 97.4434L97.2569 53.0744L95.5626 44.6818L93.0623 32.2968C92.9552 31.7663 92.9801 31.2212 93.1351 30.7003C93.2901 30.1794 93.5714 29.6956 93.959 29.2833C94.3466 28.871 94.831 28.5404 95.3775 28.3151C95.9241 28.0897 96.5194 27.9752 97.121 27.9797Z" fill="#3F3D56"/>
<path d="M124.258 29.3325H127.905C128.953 29.3325 129.969 29.6536 130.785 30.2423C131.601 30.8311 132.168 31.6522 132.391 32.5692L147.547 94.8129C147.635 95.1713 147.635 95.5423 147.547 95.9006C147.46 96.259 147.287 96.5962 147.041 96.8892C146.795 97.1823 146.481 97.4243 146.121 97.5986C145.76 97.773 145.363 97.8757 144.954 97.8997L112.932 99.7802C112.029 99.8332 111.135 99.5864 110.422 99.0868C109.709 98.5871 109.226 97.8697 109.065 97.0713L96.1322 32.7364C96.0485 32.32 96.0678 31.8922 96.1888 31.4832C96.3097 31.0743 96.5294 30.694 96.8323 30.3694C97.1351 30.0448 97.5138 29.7837 97.9416 29.6045C98.3694 29.4254 98.8358 29.3325 99.308 29.3325H102.769C103.104 29.3325 103.429 29.4315 103.695 29.614C103.961 29.7966 104.152 30.0525 104.239 30.3423C104.316 30.5982 104.485 30.8242 104.72 30.9853C104.954 31.1465 105.242 31.2338 105.537 31.2338H121.966C122.545 31.2338 123.103 31.038 123.528 30.6855C123.952 30.333 124.213 29.8498 124.258 29.3325V29.3325Z" fill="white"/>
<path d="M140.419 49.2847C140.522 49.344 140.619 49.4105 140.709 49.4835L151.295 47.0657L152.017 44.7775L156.013 45.3027L155.174 49.4647C155.106 49.8009 154.919 50.1084 154.639 50.3409C154.36 50.5734 154.004 50.7185 153.625 50.7543L141.265 51.9205C141.063 52.3005 140.738 52.6166 140.331 52.8267C139.924 53.0367 139.456 53.1309 138.988 53.0965C138.52 53.0622 138.074 52.901 137.711 52.6344C137.348 52.3678 137.084 52.0084 136.954 51.6041C136.824 51.1997 136.835 50.7696 136.985 50.3708C137.135 49.9721 137.416 49.6237 137.793 49.3719C138.169 49.1201 138.622 48.9769 139.091 48.9613C139.56 48.9458 140.023 49.0586 140.419 49.2847H140.419Z" fill="#FFB6B6"/>
<path d="M132.865 57.8664C136.636 57.8664 139.694 55.1271 139.694 51.7481C139.694 48.369 136.636 45.6298 132.865 45.6298C129.094 45.6298 126.037 48.369 126.037 51.7481C126.037 55.1271 129.094 57.8664 132.865 57.8664Z" fill="#0055D3"/>
<path d="M137.14 40.0048H128.59L123.428 17.3808C123.296 16.1994 123.441 15.0063 123.854 13.8782C124.268 12.7502 124.941 11.7123 125.829 10.8315C126.718 9.95067 127.803 9.24646 129.014 8.76426C130.224 8.28206 131.535 8.03257 132.86 8.03186C134.185 8.03116 135.496 8.27926 136.707 8.76018C137.919 9.24109 139.004 9.94415 139.894 10.824C140.784 11.7039 141.458 12.7411 141.873 13.8687C142.288 14.9963 142.435 16.1893 142.304 17.3708L137.14 40.0048Z" fill="#0055D3"/>
<path d="M156.727 47.3796L154.001 49.4875L150.185 52.4341L148.5 44.7093L148.324 43.906L148.185 43.2685L152.051 37.235L155.274 37.4008L155.494 37.4127L155.498 37.4561L155.549 37.8607L156.21 43.1856L156.225 43.3139L156.727 47.3796Z" fill="#3F3D56"/>
<path d="M138.904 100.209L136.203 100.209L134.918 90.8761L138.904 90.8763L138.904 100.209Z" fill="#FFB6B6"/>
<path d="M139.592 102.555L130.885 102.554V102.456C130.885 101.65 131.242 100.878 131.878 100.309C132.513 99.7391 133.375 99.4191 134.274 99.4191H134.274L139.592 99.4193L139.592 102.555Z" fill="#2F2E41"/>
<path d="M167.098 100.407L164.398 100.406L163.113 91.0735L167.099 91.0737L167.098 100.407Z" fill="#FFB6B6"/>
<path d="M167.787 102.752L159.079 102.752V102.653C159.079 101.848 159.437 101.075 160.072 100.506C160.708 99.9365 161.57 99.6165 162.469 99.6165H162.469L167.787 99.6166L167.787 102.752Z" fill="#2F2E41"/>
<path d="M169.256 96.2966L161.988 97.2834L151.412 65.2155L140.181 97.4808L132.031 96.4939L142.604 58.9946V56.0341L144.036 51.5934L143.886 50.3915L142.844 41.9857L142.392 38.3404L142.363 38.1049C142.339 37.9073 142.397 37.7085 142.527 37.5474C142.657 37.3862 142.849 37.2742 143.066 37.2331L146.459 36.5937H152.003L155.274 37.4009L155.498 37.4562L155.6 37.4818L155.549 37.8608L154.783 43.6199L154.741 43.9357L154.001 49.4875L153.838 50.7053C160.225 54.8499 160.446 58.9946 160.446 58.9946L169.256 96.2966Z" fill="#2F2E41"/>
<path d="M148.561 34.0967C151.549 34.0967 153.971 31.9264 153.971 29.2492C153.971 26.572 151.549 24.4017 148.561 24.4017C145.573 24.4017 143.151 26.572 143.151 29.2492C143.151 31.9264 145.573 34.0967 148.561 34.0967Z" fill="#FFB6B6"/>
<path d="M154.243 49.5914L143.541 50.8454L143.741 52.2153L154.443 50.9613L154.243 49.5914Z" fill="#3F3D56"/>
<path d="M129.186 51.2584C129.288 51.3177 129.385 51.3841 129.475 51.4571L140.061 49.0393L140.783 46.7512L144.779 47.2763L143.94 51.4383C143.873 51.7746 143.685 52.082 143.405 52.3145C143.126 52.5471 142.77 52.6921 142.391 52.7279L130.031 53.8941C129.83 54.2742 129.504 54.5902 129.097 54.8003C128.69 55.0104 128.222 55.1045 127.754 55.0701C127.286 55.0358 126.841 54.8746 126.477 54.608C126.114 54.3414 125.85 53.982 125.72 53.5777C125.591 53.1733 125.601 52.7432 125.751 52.3445C125.901 51.9457 126.183 51.5973 126.559 51.3455C126.935 51.0937 127.388 50.9505 127.857 50.935C128.326 50.9194 128.79 51.0322 129.186 51.2584H129.186Z" fill="#FFB6B6"/>
<path d="M145.467 38.4686L143.595 37.1858C143.089 37.0137 142.395 37.5025 142.273 37.9752L139.63 47.6461L145.137 51.1987L145.908 50.1132L145.467 38.4686Z" fill="#3F3D56"/>
<g opacity="0.2">
<path d="M156.21 43.1857C155.743 43.3519 155.266 43.4968 154.783 43.6199C154.628 43.6613 154.47 43.7008 154.313 43.7383C153.282 43.9946 152.223 44.1481 151.155 44.1962C150.695 44.2136 150.234 44.2024 149.776 44.1626C149.284 44.1187 148.798 44.0328 148.324 43.906C148.309 43.9021 148.291 43.8982 148.276 43.8942C147.291 43.6436 146.388 43.1839 145.643 42.5541C145.477 42.409 145.322 42.254 145.179 42.0903C144.767 41.6389 144.466 41.1157 144.293 40.5539C144.12 39.9922 144.079 39.4043 144.174 38.8278C144.193 38.7234 144.218 38.6199 144.249 38.518C144.332 38.2402 144.442 37.9695 144.577 37.7088C144.637 37.5864 144.703 37.466 144.773 37.3476L147.262 36.5937H152.003L155.274 37.4009L155.494 37.4128L155.498 37.4562L155.6 37.4818L155.549 37.8608L156.21 43.1857Z" fill="black"/>
</g>
<path d="M144.415 25.2361C143.403 25.1249 142.293 25.2035 141.504 25.7822C140.716 26.361 140.461 27.564 141.208 28.1858C141.869 28.7363 142.903 28.6068 143.788 28.7634C144.551 28.9165 145.234 29.2945 145.728 29.8369C146.223 30.3792 146.5 31.0545 146.516 31.7547C146.502 33.7628 144.352 35.2834 143.965 37.2614C143.702 38.6113 144.337 40.032 145.436 40.9856C146.534 41.9392 148.044 42.4545 149.566 42.5941C151.087 42.7337 152.626 42.5205 154.105 42.1702C155.59 41.8185 157.051 41.3195 158.297 40.5147C159.543 39.71 160.565 38.5755 160.965 37.2468C161.365 35.9181 161.078 34.3947 160.047 33.3745C158.866 32.2063 156.902 31.8046 155.881 30.5215C154.737 29.0831 155.16 27.0348 154.234 25.4754C153.615 24.4343 152.444 23.7242 151.196 23.3501C149.948 22.976 148.615 22.9021 147.299 22.8659C146.607 22.8469 145.895 22.8405 145.25 23.0664C144.606 23.2923 144.04 23.8072 144.006 24.4264C143.973 25.0456 144.415 25.2361 144.415 25.2361Z" fill="#2F2E41"/>
</g>
<defs>
<clipPath id="clip0_8_4382">
<rect width="205" height="103" fill="white"/>
</clipPath>
</defs>
</svg>
