<svg width="205" height="103" viewBox="0 0 205 103" fill="none" xmlns="http://www.w3.org/2000/svg">
<g clip-path="url(#clip0_8_3803)">
<path d="M16.9712 22.3463C22.8058 22.3463 27.5357 18.4239 27.5357 13.5853C27.5357 8.74668 22.8058 4.82422 16.9712 4.82422C11.1366 4.82422 6.40674 8.74668 6.40674 13.5853C6.40674 18.4239 11.1366 22.3463 16.9712 22.3463Z" fill="#FF6584"/>
<path d="M101.971 103C158.288 103 203.942 101.465 203.942 99.5718C203.942 97.6784 158.288 96.1436 101.971 96.1436C45.6539 96.1436 0 97.6784 0 99.5718C0 101.465 45.6539 103 101.971 103Z" fill="#E6E6E6"/>
<path d="M25.9519 56.6077C40.2847 56.6077 51.9037 46.9721 51.9037 35.086C51.9037 23.1999 40.2847 13.5643 25.9519 13.5643C11.619 13.5643 0 23.1999 0 35.086C0 46.9721 11.619 56.6077 25.9519 56.6077Z" fill="#0055D3"/>
<path d="M28.4534 99.9105H23.1378L25.561 31.8447L28.4534 99.9105Z" fill="#3F3D56"/>
<path d="M26.03 44.7448L31.7364 38.1976L25.9519 46.3654L25.3265 45.4579L26.03 44.7448Z" fill="#3F3D56"/>
<path d="M25.4046 51.357L19.6984 44.8098L25.4829 52.9776L26.1082 52.0701L25.4046 51.357Z" fill="#3F3D56"/>
<path d="M190.047 99.9822H184.732L187.155 31.9164L190.047 99.9822Z" fill="#3F3D56"/>
<path d="M187.624 44.8165L193.33 38.2693L187.546 46.4371L186.92 45.5295L187.624 44.8165Z" fill="#3F3D56"/>
<path d="M186.998 51.4286L181.292 44.8814L187.077 53.0492L187.702 52.1417L186.998 51.4286Z" fill="#3F3D56"/>
<path d="M105.428 99.9708C132.128 99.9708 153.773 82.0209 153.773 59.8787C153.773 37.7365 132.128 19.7866 105.428 19.7866C78.7278 19.7866 57.0831 37.7365 57.0831 59.8787C57.0831 82.0209 78.7278 99.9708 105.428 99.9708Z" fill="#3F3D56"/>
<path d="M105.428 96.6518C129.918 96.6518 149.771 80.1879 149.771 59.8787C149.771 39.5694 129.918 23.1055 105.428 23.1055C80.9381 23.1055 61.0852 39.5694 61.0852 59.8787C61.0852 80.1879 80.9381 96.6518 105.428 96.6518Z" fill="white"/>
<path d="M105.268 64.9234C108.539 64.9234 111.191 62.7242 111.191 60.0114C111.191 57.2986 108.539 55.0995 105.268 55.0995C101.997 55.0995 99.3447 57.2986 99.3447 60.0114C99.3447 62.7242 101.997 64.9234 105.268 64.9234Z" fill="#3F3D56"/>
<path d="M106.549 24.9641H103.987V28.9467H106.549V24.9641Z" fill="#3F3D56"/>
<path d="M106.549 91.0762H103.987V95.0588H106.549V91.0762Z" fill="#3F3D56"/>
<path d="M67.8086 61.0735V58.9494H63.0061V61.0735H67.8086Z" fill="#3F3D56"/>
<path d="M147.529 61.0735V58.9494H142.727V61.0735H147.529Z" fill="#3F3D56"/>
<path d="M103.56 62.1438L105.749 57.9931L133.177 70.5904L103.56 62.1438Z" fill="#3F3D56"/>
<path d="M111.671 10.0955H99.1847V22.0434H111.671V10.0955Z" fill="#3F3D56"/>
<path d="M105.428 13.4144C113.385 13.4144 119.835 11.9285 119.835 10.0955C119.835 8.26252 113.385 6.77661 105.428 6.77661C97.4709 6.77661 91.0205 8.26252 91.0205 10.0955C91.0205 11.9285 97.4709 13.4144 105.428 13.4144Z" fill="#3F3D56"/>
<path d="M132.402 66.981L131.601 67.9103C131.601 67.9103 127.919 71.4947 127.759 69.7689C127.599 68.0431 130.481 66.8483 130.481 66.8483L132.082 66.0518L132.402 66.981Z" fill="#FFB8B8"/>
<path d="M155.189 70.1164L155.859 71.114C155.859 71.114 158.19 75.4076 156.24 74.789C154.291 74.1704 154.222 71.4993 154.222 71.4993L154.039 69.9586L155.189 70.1164Z" fill="#FFB8B8"/>
<path d="M151.585 52.4267C154.277 52.4267 156.459 50.6169 156.459 48.3844C156.459 46.1519 154.277 44.342 151.585 44.342C148.893 44.342 146.711 46.1519 146.711 48.3844C146.711 50.6169 148.893 52.4267 151.585 52.4267Z" fill="#2F2E41"/>
<path d="M151.131 81.5842L151.772 85.0358V86.0978H155.454V84.7703C155.454 84.7703 155.614 82.3807 154.973 81.7169C154.333 81.0531 151.131 81.5842 151.131 81.5842Z" fill="#FFB8B8"/>
<path d="M144.568 81.5842L145.208 85.0358V86.0978H148.89V84.7703C148.89 84.7703 149.05 82.3807 148.41 81.7169C147.77 81.0531 144.568 81.5842 144.568 81.5842Z" fill="#FFB8B8"/>
<path d="M147.046 53.8586C147.046 53.8586 145.63 54.4776 146.597 55.8856C147.564 57.2936 153.239 71.8606 153.239 71.8606L156.513 71.0898L153.626 61.8773L151.973 56.087L147.046 53.8586Z" fill="#0055D3"/>
<path d="M151.051 52.5771C153.085 52.5771 154.733 51.2101 154.733 49.5238C154.733 47.8374 153.085 46.4704 151.051 46.4704C149.018 46.4704 147.369 47.8374 147.369 49.5238C147.369 51.2101 149.018 52.5771 151.051 52.5771Z" fill="#FFB8B8"/>
<path d="M152.732 49.9884L152.252 56.2279L148.89 54.2366C148.89 54.2366 150.011 50.5194 149.691 50.2539L152.732 49.9884Z" fill="#FFB8B8"/>
<path d="M152.732 55.6969L149.111 53.4729C149.111 53.4729 147.449 52.909 146.969 53.5728C146.489 54.2366 144.088 64.0604 145.368 65.919C145.368 65.919 152.252 67.1138 153.693 66.4501L154.333 62.9984C154.333 62.9984 155.133 60.8743 153.853 59.5468L152.732 55.6969Z" fill="#0055D3"/>
<path d="M147.93 53.7056C147.93 53.7056 146.649 52.909 145.528 54.2366C144.408 55.5641 130.961 66.0518 130.961 66.0518L133.202 68.1759L142.007 62.0691L147.609 58.352L147.93 53.7056Z" fill="#0055D3"/>
<path d="M153.773 66.3837C153.773 66.3837 145.849 65.1225 145.048 66.0518L144.888 67.5121C144.888 67.5121 143.127 70.3 144.088 74.8137C145.048 79.3273 144.408 82.1152 144.408 82.1152C144.408 82.1152 148.73 81.7169 151.932 82.1152C155.133 82.5135 155.614 82.1152 155.614 82.1152L153.773 66.3837Z" fill="#2F2E41"/>
<path d="M155.774 85.5668L151.131 85.6995L152.732 95.6562C152.732 95.6562 151.452 99.9043 152.892 100.17C153.894 100.337 154.912 100.426 155.934 100.435C155.934 100.435 157.375 101.63 158.975 101.497C160.038 101.385 161.069 101.115 162.017 100.701C162.017 100.701 162.337 99.9043 161.217 99.6388C160.096 99.3733 157.054 98.5768 156.414 95.7889L155.774 85.5668Z" fill="#2F2E41"/>
<path d="M149.21 85.5668L144.568 85.6995L146.169 95.6562C146.169 95.6562 144.888 99.9043 146.329 100.17C147.33 100.337 148.349 100.426 149.37 100.435C149.37 100.435 150.811 101.63 152.412 101.497C153.475 101.385 154.505 101.115 155.454 100.701C155.454 100.701 155.774 99.9043 154.653 99.6388C153.533 99.3733 150.491 98.5768 149.851 95.7889L149.21 85.5668Z" fill="#2F2E41"/>
<path d="M153.29 45.8026C154.404 45.8026 155.307 45.0537 155.307 44.1299C155.307 43.2061 154.404 42.4572 153.29 42.4572C152.176 42.4572 151.273 43.2061 151.273 44.1299C151.273 45.0537 152.176 45.8026 153.29 45.8026Z" fill="#2F2E41"/>
<path d="M155.98 43.2238C155.979 42.8104 155.795 42.4116 155.461 42.1044C155.127 41.7972 154.668 41.6033 154.173 41.5602C154.242 41.5542 154.313 41.5512 154.383 41.5511C154.918 41.5511 155.431 41.7274 155.809 42.0411C156.187 42.3548 156.4 42.7802 156.4 43.2238C156.4 43.6675 156.187 44.0929 155.809 44.4066C155.431 44.7203 154.918 44.8965 154.383 44.8965C154.313 44.8965 154.242 44.8935 154.173 44.8875C154.668 44.8444 155.127 44.6505 155.461 44.3433C155.795 44.0361 155.979 43.6373 155.98 43.2238Z" fill="#2F2E41"/>
<path d="M151.018 49.2C152.875 49.2 154.38 48.4511 154.38 47.5273C154.38 46.6035 152.875 45.8546 151.018 45.8546C149.161 45.8546 147.656 46.6035 147.656 47.5273C147.656 48.4511 149.161 49.2 151.018 49.2Z" fill="#2F2E41"/>
<path d="M203.968 8.02803C203.83 6.01468 202.835 4.1072 201.16 2.64569C199.484 1.18418 197.238 0.26363 194.82 0.0481734C192.402 -0.167283 189.971 0.336358 187.959 1.4693C185.947 2.60224 184.486 4.29084 183.836 6.23403C183.712 6.23033 183.588 6.22619 183.462 6.22619C181.246 6.22653 179.089 6.82208 177.314 7.92375C175.539 9.02542 174.243 10.574 173.618 12.3378C172.149 11.8025 170.507 11.6864 168.95 12.0076C167.393 12.3288 166.009 13.0691 165.013 14.1127H197.019C197.953 14.1149 198.878 13.9608 199.738 13.6597C200.598 13.3585 201.376 12.9165 202.026 12.3602C202.675 11.8038 203.183 11.1444 203.518 10.4216C203.852 9.69881 204.008 8.92738 203.975 8.15353C203.973 8.11176 203.971 8.06993 203.968 8.02803Z" fill="#E6E6E6"/>
<path d="M177.211 25.9362C178.733 25.9362 179.967 24.9129 179.967 23.6507C179.967 22.3884 178.733 21.3652 177.211 21.3652C175.689 21.3652 174.455 22.3884 174.455 23.6507C174.455 24.9129 175.689 25.9362 177.211 25.9362Z" fill="#E6E6E6"/>
<path d="M185.532 20.1652C186.8 20.1652 187.827 19.3132 187.827 18.2622C187.827 17.2112 186.8 16.3592 185.532 16.3592C184.265 16.3592 183.237 17.2112 183.237 18.2622C183.237 19.3132 184.265 20.1652 185.532 20.1652Z" fill="#E6E6E6"/>
<path d="M196.732 30.8881C198.254 30.8881 199.488 29.8648 199.488 28.6026C199.488 27.3403 198.254 26.3171 196.732 26.3171C195.21 26.3171 193.976 27.3403 193.976 28.6026C193.976 29.8648 195.21 30.8881 196.732 30.8881Z" fill="#E6E6E6"/>
<path d="M175.833 41.3633C177.355 41.3633 178.589 40.34 178.589 39.0778C178.589 37.8155 177.355 36.7923 175.833 36.7923C174.311 36.7923 173.077 37.8155 173.077 39.0778C173.077 40.34 174.311 41.3633 175.833 41.3633Z" fill="#E6E6E6"/>
<path d="M196.732 54.5049C198.254 54.5049 199.488 53.4816 199.488 52.2194C199.488 50.9571 198.254 49.9339 196.732 49.9339C195.21 49.9339 193.976 50.9571 193.976 52.2194C193.976 53.4816 195.21 54.5049 196.732 54.5049Z" fill="#E6E6E6"/>
<path d="M192.364 96.289C192.365 96.2643 192.369 96.2401 192.369 96.2151C192.369 95.8321 192.254 95.4552 192.033 95.119C191.811 94.7828 191.492 94.4981 191.103 94.2912C190.715 94.0843 190.27 93.9619 189.809 93.9352C189.348 93.9084 188.887 93.9782 188.467 94.1382C188.074 93.7613 187.542 93.5019 186.953 93.3998C186.364 93.2976 185.752 93.3584 185.209 93.5726C184.666 93.7869 184.223 94.143 183.947 94.5862C183.671 95.0294 183.579 95.5353 183.683 96.0264C183.669 96.0262 183.655 96.0246 183.641 96.0246C183.203 96.0241 182.77 96.1104 182.38 96.2764C181.989 96.4424 181.652 96.6833 181.397 96.979C181.141 97.2748 180.975 97.6169 180.911 97.9768C180.847 98.3368 180.887 98.7042 181.029 99.0485C181.171 99.3929 181.409 99.7041 181.726 99.9565C182.042 100.209 182.426 100.395 182.846 100.499C183.266 100.604 183.711 100.624 184.142 100.557C184.573 100.49 184.979 100.339 185.326 100.116C185.545 100.47 185.871 100.77 186.272 100.987C186.673 101.204 187.136 101.33 187.614 101.353C188.092 101.377 188.57 101.296 188.999 101.12C189.428 100.944 189.794 100.678 190.062 100.348C190.39 100.546 190.766 100.681 191.165 100.744C191.563 100.808 191.973 100.797 192.366 100.713C192.759 100.63 193.125 100.475 193.437 100.261C193.75 100.047 194.001 99.7778 194.174 99.4734C194.346 99.1691 194.436 98.8369 194.436 98.5006C194.435 98.1643 194.346 97.8322 194.173 97.528C194 97.2237 193.748 96.955 193.435 96.7408C193.123 96.5266 192.757 96.3724 192.364 96.289Z" fill="#E6E6E6"/>
<path d="M199.258 44.0297C199.893 44.0297 200.407 43.6033 200.407 43.0774C200.407 42.5515 199.893 42.1251 199.258 42.1251C198.624 42.1251 198.11 42.5515 198.11 43.0774C198.11 43.6033 198.624 44.0297 199.258 44.0297Z" fill="#E6E6E6"/>
<path d="M191.909 21.1747C192.543 21.1747 193.057 20.7484 193.057 20.2224C193.057 19.6965 192.543 19.2701 191.909 19.2701C191.275 19.2701 190.761 19.6965 190.761 20.2224C190.761 20.7484 191.275 21.1747 191.909 21.1747Z" fill="#E6E6E6"/>
<path d="M188.005 44.7915C188.639 44.7915 189.153 44.3651 189.153 43.8392C189.153 43.3133 188.639 42.8869 188.005 42.8869C187.371 42.8869 186.857 43.3133 186.857 43.8392C186.857 44.3651 187.371 44.7915 188.005 44.7915Z" fill="#E6E6E6"/>
<path d="M188.924 43.8392C189.558 43.8392 190.072 43.4129 190.072 42.8869C190.072 42.361 189.558 41.9346 188.924 41.9346C188.289 41.9346 187.775 42.361 187.775 42.8869C187.775 43.4129 188.289 43.8392 188.924 43.8392Z" fill="#E6E6E6"/>
<path d="M189.613 42.8869C190.247 42.8869 190.761 42.4606 190.761 41.9347C190.761 41.4087 190.247 40.9824 189.613 40.9824C188.978 40.9824 188.464 41.4087 188.464 41.9347C188.464 42.4606 188.978 42.8869 189.613 42.8869Z" fill="#E6E6E6"/>
<path d="M186.857 50.8861C187.491 50.8861 188.005 50.4598 188.005 49.9339C188.005 49.4079 187.491 48.9816 186.857 48.9816C186.222 48.9816 185.708 49.4079 185.708 49.9339C185.708 50.4598 186.222 50.8861 186.857 50.8861Z" fill="#E6E6E6"/>
<path d="M203.852 61.5518C204.486 61.5518 205 61.1254 205 60.5995C205 60.0736 204.486 59.6472 203.852 59.6472C203.217 59.6472 202.703 60.0736 202.703 60.5995C202.703 61.1254 203.217 61.5518 203.852 61.5518Z" fill="#E6E6E6"/>
<path d="M179.278 62.1231C179.912 62.1231 180.426 61.6968 180.426 61.1709C180.426 60.6449 179.912 60.2186 179.278 60.2186C178.644 60.2186 178.129 60.6449 178.129 61.1709C178.129 61.6968 178.644 62.1231 179.278 62.1231Z" fill="#E6E6E6"/>
<path d="M180.656 32.7926C181.29 32.7926 181.804 32.3663 181.804 31.8404C181.804 31.3144 181.29 30.8881 180.656 30.8881C180.022 30.8881 179.507 31.3144 179.507 31.8404C179.507 32.3663 180.022 32.7926 180.656 32.7926Z" fill="#E6E6E6"/>
<path d="M185.938 49.9339C186.572 49.9339 187.086 49.5075 187.086 48.9816C187.086 48.4557 186.572 48.0293 185.938 48.0293C185.304 48.0293 184.79 48.4557 184.79 48.9816C184.79 49.5075 185.304 49.9339 185.938 49.9339Z" fill="#E6E6E6"/>
<path d="M184.79 48.4102C185.424 48.4102 185.938 47.9838 185.938 47.4579C185.938 46.932 185.424 46.5056 184.79 46.5056C184.155 46.5056 183.641 46.932 183.641 47.4579C183.641 47.9838 184.155 48.4102 184.79 48.4102Z" fill="#E6E6E6"/>
</g>
<defs>
<clipPath id="clip0_8_3803">
<rect width="205" height="103" fill="white"/>
</clipPath>
</defs>
</svg>
