<svg width="205" height="101" viewBox="0 0 205 101" fill="none" xmlns="http://www.w3.org/2000/svg">
<g clip-path="url(#clip0_8_3749)">
<path d="M193.748 100.55C192.008 100.474 190.424 99.7276 189.707 98.5718C189.673 98.5177 189.642 98.4629 189.612 98.4072C189.35 97.9148 189.269 97.3486 189.555 96.8634C189.841 96.3782 190.556 96.0096 191.274 96.0861C191.992 96.1626 192.552 96.7712 192.255 97.2529C192.189 96.2795 192.134 95.2567 192.873 94.4094C193.279 93.9666 193.81 93.6754 194.385 93.5791C195.872 93.301 196.86 94.1951 197.058 95.098C197.204 95.7644 197.003 96.4423 196.802 97.1012C197.421 96.3235 198.893 95.9775 200.02 96.3448C201.147 96.712 201.772 97.7415 201.387 98.5954C200.934 99.6011 199.421 100.121 198.016 100.396C196.856 100.623 195.116 100.611 193.748 100.55Z" fill="#F2F2F2"/>
<path d="M133.188 100.55C131.448 100.474 129.864 99.7276 129.147 98.5718C129.113 98.5177 129.082 98.4629 129.052 98.4072C128.79 97.9148 128.709 97.3486 128.995 96.8634C129.281 96.3782 129.996 96.0096 130.714 96.0861C131.432 96.1626 131.992 96.7712 131.695 97.2529C131.629 96.2795 131.574 95.2567 132.313 94.4094C132.719 93.9666 133.25 93.6754 133.825 93.5791C135.313 93.301 136.301 94.1951 136.498 95.098C136.644 95.7644 136.443 96.4423 136.242 97.1012C136.861 96.3235 138.333 95.9775 139.46 96.3448C140.587 96.712 141.212 97.7415 140.827 98.5954C140.374 99.6011 138.861 100.121 137.456 100.396C136.296 100.623 134.557 100.611 133.188 100.55Z" fill="#F2F2F2"/>
<path d="M77.4577 42.5453H64.9828C63.9906 42.5441 63.0393 42.1247 62.3377 41.3791C61.6361 40.6334 61.2415 39.6225 61.2404 38.568V13.7398C61.2415 12.6854 61.6361 11.6744 62.3377 10.9288C63.0393 10.1831 63.9906 9.7637 64.9828 9.76251H77.4577C78.4499 9.7637 79.4012 10.1831 80.1028 10.9288C80.8044 11.6744 81.1991 12.6854 81.2002 13.7398V38.568C81.1991 39.6225 80.8044 40.6334 80.1028 41.3791C79.4012 42.1247 78.4499 42.5441 77.4577 42.5453Z" fill="#F2F2F2"/>
<path d="M154.078 97.909H151.297L149.974 86.5103L154.078 86.5105L154.078 97.909Z" fill="#FFB8B8"/>
<path d="M154.787 100.774L145.821 100.773V100.653C145.821 100.166 145.911 99.6836 146.086 99.2336C146.262 98.7836 146.519 98.3748 146.843 98.0304C147.167 97.686 147.552 97.4128 147.975 97.2264C148.399 97.04 148.852 96.9441 149.311 96.9441H149.311L154.787 96.9443L154.787 100.774Z" fill="#2F2E41"/>
<path d="M185.142 95.1442L182.52 96.1306L177.693 85.8554L181.561 84.3994L185.142 95.1442Z" fill="#FFB8B8"/>
<path d="M186.71 97.5927L178.258 100.774L178.22 100.66C178.067 100.201 178.001 99.7144 178.025 99.228C178.049 98.7416 178.162 98.265 178.36 97.8253C178.557 97.3857 178.834 96.9917 179.174 96.6658C179.515 96.3398 179.913 96.0884 180.345 95.9258L180.345 95.9257L185.507 93.9829L186.71 97.5927Z" fill="#2F2E41"/>
<path d="M154 94.0819C153.938 94.0818 153.876 94.0759 153.814 94.064L150.414 93.407C150.182 93.3615 149.973 93.2328 149.82 93.0424C149.667 92.8521 149.581 92.6117 149.575 92.3616C149.081 68.0362 151.511 51.6896 156.798 39.9727C156.892 39.7654 157.046 39.5955 157.237 39.4879C157.429 39.3803 157.648 39.3406 157.862 39.3746L170.09 41.2507C170.313 41.2852 170.519 41.3973 170.676 41.5694C170.833 41.7415 170.932 41.964 170.958 42.2022L172.036 52.303C172.042 52.3575 172.053 52.4113 172.068 52.4636L183.792 89.7948C183.872 90.0664 183.849 90.3606 183.728 90.6142C183.606 90.8679 183.396 91.061 183.142 91.1521L179.974 92.2745C179.741 92.3559 179.488 92.3457 179.261 92.2459C179.035 92.1461 178.849 91.9632 178.738 91.7305L162.88 59.9512C162.848 59.8843 162.798 59.8295 162.736 59.7942C162.674 59.7589 162.603 59.7449 162.533 59.7541C162.464 59.7634 162.398 59.7954 162.346 59.8458C162.294 59.8962 162.258 59.9624 162.243 60.0355L154.994 93.2293C154.945 93.4707 154.819 93.6869 154.639 93.8421C154.458 93.9972 154.233 94.0818 154 94.0819Z" fill="#2F2E41"/>
<path d="M144.336 20.2717C144.364 20.4017 144.382 20.5339 144.391 20.667L154.134 26.6407L156.502 25.1918L159.027 28.7044L155.069 31.7025C154.749 31.9447 154.364 32.0702 153.972 32.06C153.579 32.0498 153.2 31.9046 152.892 31.6461L142.845 23.2225C142.391 23.4008 141.898 23.4283 141.429 23.3011C140.961 23.174 140.54 22.8983 140.222 22.5107C139.905 22.1231 139.706 21.642 139.652 21.1313C139.598 20.6207 139.692 20.1047 139.921 19.6521C140.15 19.1994 140.503 18.8315 140.933 18.5973C141.363 18.3631 141.851 18.2737 142.33 18.3409C142.809 18.4082 143.258 18.629 143.616 18.9738C143.975 19.3187 144.226 19.7714 144.336 20.2717Z" fill="#FFB8B8"/>
<path d="M154.268 26.0436C154.297 25.8909 154.357 25.7467 154.444 25.6208C154.53 25.495 154.641 25.3905 154.769 25.3144L159.241 22.6574C159.835 22.17 160.586 21.9529 161.331 22.0536C162.075 22.1543 162.752 22.5647 163.212 23.1947C163.672 23.8248 163.878 24.623 163.786 25.4145C163.693 26.2059 163.309 26.926 162.717 27.4167L159.152 31.3509C159.05 31.4632 158.927 31.5509 158.79 31.6079C158.654 31.665 158.508 31.6901 158.361 31.6816C158.215 31.6731 158.072 31.6311 157.942 31.5585C157.812 31.486 157.698 31.3845 157.609 31.2611L154.46 26.9237C154.37 26.8003 154.306 26.6578 154.273 26.5059C154.24 26.354 154.238 26.1963 154.268 26.0436Z" fill="#0055D3"/>
<path d="M164.68 19.6761C167.757 19.6761 170.251 17.0255 170.251 13.7557C170.251 10.4859 167.757 7.83527 164.68 7.83527C161.603 7.83527 159.109 10.4859 159.109 13.7557C159.109 17.0255 161.603 19.6761 164.68 19.6761Z" fill="#FFB8B8"/>
<path d="M170.105 42.5136C170.049 42.5136 169.994 42.5088 169.939 42.4993L157.883 40.3988C157.747 40.3751 157.617 40.3222 157.5 40.2435C157.384 40.1647 157.284 40.0617 157.206 39.9406C157.128 39.8195 157.074 39.6829 157.047 39.539C157.02 39.3951 157.021 39.2469 157.05 39.1034L157.637 36.1647C157.336 35.6887 154.892 31.5496 157.869 27.6618C157.812 26.2806 158.264 24.9303 159.13 23.8983C159.996 22.8663 161.206 22.2342 162.504 22.1364L168.734 21.6334C169.536 21.5688 170.34 21.7097 171.08 22.0443C171.819 22.3788 172.472 22.8973 172.984 23.5561C173.496 24.2148 173.851 24.9945 174.02 25.8297C174.19 26.6648 174.167 27.5309 173.956 28.355L171.1 41.67C171.048 41.9094 170.921 42.1231 170.741 42.2763C170.56 42.4296 170.336 42.5132 170.105 42.5136Z" fill="#0055D3"/>
<path d="M181.363 53.6477C181.567 53.3378 181.705 52.9839 181.767 52.6111C181.829 52.2383 181.813 51.8556 181.721 51.4899C181.629 51.1243 181.462 50.7846 181.233 50.4949C181.004 50.2051 180.717 49.9722 180.394 49.8127L173.53 27.3838L169.552 29.3898L177.063 51.2286C176.846 51.8232 176.843 52.4813 177.053 53.0784C177.263 53.6754 177.672 54.1699 178.202 54.4681C178.732 54.7662 179.346 54.8474 179.929 54.6962C180.512 54.5451 181.022 54.172 181.363 53.6477Z" fill="#FFB8B8"/>
<path d="M175.048 31.118L169.766 32.8138C169.616 32.862 169.457 32.8753 169.302 32.8526C169.146 32.83 168.997 32.772 168.865 32.6826C168.732 32.5932 168.619 32.4745 168.534 32.3345C168.448 32.1946 168.392 32.0367 168.369 31.8716L167.567 26.0876C167.339 25.2689 167.426 24.3874 167.808 23.6365C168.191 22.8855 168.838 22.3265 169.608 22.082C170.378 21.8374 171.207 21.9274 171.915 22.3321C172.622 22.7368 173.15 23.4232 173.382 24.2407L175.721 29.5115C175.788 29.6625 175.823 29.827 175.825 29.9938C175.827 30.1606 175.794 30.3259 175.731 30.4784C175.667 30.6308 175.573 30.7669 175.455 30.8772C175.337 30.9876 175.199 31.0697 175.048 31.118H175.048Z" fill="#0055D3"/>
<path d="M159.265 13.9844C160.502 14.4853 161.848 14.5979 163.143 14.3088C164.438 14.0197 165.628 13.3411 166.571 12.3538C165.986 13.9945 166.15 20.953 166.15 20.953C166.15 20.953 171.332 18.3385 172.035 17.8812C176.187 15.1804 170.46 3.43197 165.696 5.28479C164.889 5.59861 164.215 5.96786 163.889 6.81254C163.178 5.87998 161.831 5.67771 160.795 6.15671C159.759 6.63571 159.023 7.67374 158.627 8.7981C158.314 9.7054 158.193 10.6745 158.271 11.6372C158.349 12.5998 158.625 13.5325 159.079 14.3696L159.265 13.9844Z" fill="black"/>
<path d="M134.956 0H7.48494C5.50041 0.00207023 3.59772 0.840811 2.19444 2.33215C0.791166 3.82349 0.00194798 5.84558 0 7.95465V45.0764C0.00194798 47.1854 0.791166 49.2075 2.19444 50.6989C3.59772 52.1902 5.50041 53.029 7.48494 53.031H134.956C136.94 53.029 138.843 52.1902 140.246 50.6989C141.649 49.2075 142.439 47.1854 142.441 45.0764V7.95465C142.439 5.84558 141.649 3.82349 140.246 2.33215C138.843 0.840811 136.94 0.00207023 134.956 0ZM141.987 45.0764C141.985 47.0574 141.243 48.9566 139.925 50.3575C138.607 51.7583 136.82 52.5464 134.956 52.5489H7.48494C5.62085 52.5464 3.83379 51.7583 2.51568 50.3575C1.19757 48.9566 0.456012 47.0574 0.453633 45.0764V7.95465C0.456012 5.97359 1.19757 4.07438 2.51568 2.67355C3.83379 1.27273 5.62085 0.484629 7.48494 0.4821H134.956C136.82 0.484629 138.607 1.27273 139.925 2.67355C141.243 4.07438 141.985 5.97359 141.987 7.95465V45.0764Z" fill="#3F3D56"/>
<path d="M20.13 35.0728C19.5917 35.0728 19.0654 34.9031 18.6179 34.5853C18.1703 34.2675 17.8214 33.8157 17.6154 33.2871C17.4094 32.7586 17.3555 32.177 17.4605 31.6159C17.5655 31.0548 17.8248 30.5394 18.2054 30.1348C18.5861 29.7303 19.071 29.4548 19.599 29.3432C20.127 29.2316 20.6742 29.2888 21.1716 29.5078C21.6689 29.7267 22.094 30.0975 22.3931 30.5732C22.6922 31.0488 22.8518 31.6081 22.8518 32.1802C22.851 32.9471 22.5639 33.6823 22.0537 34.2246C21.5434 34.7669 20.8516 35.0719 20.13 35.0728ZM20.13 29.7697C19.6814 29.7697 19.2429 29.9111 18.8699 30.1759C18.4969 30.4408 18.2062 30.8173 18.0345 31.2577C17.8628 31.6982 17.8179 32.1829 17.9054 32.6505C17.9929 33.1181 18.209 33.5476 18.5262 33.8847C18.8434 34.2218 19.2475 34.4514 19.6875 34.5444C20.1275 34.6374 20.5835 34.5897 20.998 34.4072C21.4124 34.2248 21.7667 33.9158 22.0159 33.5194C22.2651 33.123 22.3982 32.6569 22.3982 32.1802C22.3975 31.5411 22.1583 30.9284 21.7331 30.4765C21.3079 30.0246 20.7313 29.7704 20.13 29.7697Z" fill="#3F3D56"/>
<path d="M20.0407 28.5644C19.9805 28.5644 19.9228 28.539 19.8803 28.4938C19.8377 28.4486 19.8138 28.3873 19.8138 28.3234V25.5513C19.8138 25.4874 19.8377 25.4261 19.8803 25.3808C19.9228 25.3356 19.9805 25.3102 20.0407 25.3102C20.1008 25.3102 20.1585 25.3356 20.201 25.3808C20.2436 25.4261 20.2675 25.4874 20.2675 25.5513V28.3234C20.2675 28.3873 20.2436 28.4486 20.201 28.4938C20.1585 28.539 20.1008 28.5644 20.0407 28.5644Z" fill="#3F3D56"/>
<path d="M16.5009 32.3264H13.8925C13.8323 32.3264 13.7746 32.301 13.7321 32.2558C13.6895 32.2106 13.6656 32.1493 13.6656 32.0853C13.6656 32.0214 13.6895 31.9601 13.7321 31.9149C13.7746 31.8697 13.8323 31.8443 13.8925 31.8443H16.5009C16.561 31.8443 16.6187 31.8697 16.6612 31.9149C16.7038 31.9601 16.7277 32.0214 16.7277 32.0853C16.7277 32.1493 16.7038 32.2106 16.6612 32.2558C16.6187 32.301 16.561 32.3264 16.5009 32.3264Z" fill="#3F3D56"/>
<path d="M26.0272 32.3264H23.4188C23.3587 32.3264 23.301 32.301 23.2584 32.2558C23.2159 32.2106 23.192 32.1493 23.192 32.0853C23.192 32.0214 23.2159 31.9601 23.2584 31.9149C23.301 31.8697 23.3587 31.8443 23.4188 31.8443H26.0272C26.0874 31.8443 26.1451 31.8697 26.1876 31.9149C26.2301 31.9601 26.254 32.0214 26.254 32.0853C26.254 32.1493 26.2301 32.2106 26.1876 32.2558C26.1451 32.301 26.0874 32.3264 26.0272 32.3264Z" fill="#3F3D56"/>
<path d="M23.3472 29.6907C23.302 29.6907 23.2579 29.6764 23.2204 29.6496C23.183 29.6228 23.1539 29.5847 23.137 29.5402C23.12 29.4957 23.1159 29.4469 23.1252 29.3999C23.1346 29.353 23.1568 29.3101 23.1892 29.2766L24.2816 28.1504C24.3248 28.1059 24.3828 28.0814 24.443 28.0824C24.5031 28.0833 24.5604 28.1097 24.6023 28.1555C24.6442 28.2014 24.6672 28.2631 24.6663 28.327C24.6654 28.391 24.6406 28.4519 24.5974 28.4964L23.5051 29.6227C23.4628 29.6664 23.4062 29.6908 23.3472 29.6907Z" fill="#3F3D56"/>
<path d="M16.686 29.6907C16.627 29.6908 16.5703 29.6664 16.528 29.6227L15.4357 28.4964C15.4143 28.4744 15.3972 28.4481 15.3854 28.419C15.3736 28.3899 15.3673 28.3587 15.3668 28.327C15.3664 28.2954 15.3718 28.264 15.3828 28.2345C15.3938 28.2051 15.4101 28.1783 15.4308 28.1555C15.4516 28.1328 15.4763 28.1147 15.5037 28.1021C15.531 28.0896 15.5604 28.0828 15.5902 28.0824C15.62 28.0819 15.6496 28.0876 15.6772 28.0993C15.7049 28.111 15.7302 28.1283 15.7516 28.1504L16.8439 29.2766C16.8763 29.3101 16.8986 29.353 16.9079 29.3999C16.9172 29.4469 16.9131 29.4957 16.8962 29.5402C16.8792 29.5847 16.8501 29.6228 16.8127 29.6496C16.7752 29.6764 16.7311 29.6907 16.686 29.6907Z" fill="#3F3D56"/>
<path d="M15.8204 36.278C15.7758 36.278 15.7323 36.264 15.6951 36.2379C15.658 36.2117 15.6289 36.1745 15.6115 36.1308C15.5942 36.0872 15.5893 36.0391 15.5975 35.9925C15.6057 35.946 15.6266 35.903 15.6577 35.869L16.75 34.6735C16.7919 34.6277 16.8493 34.6014 16.9094 34.6004C16.9696 34.5995 17.0276 34.624 17.0708 34.6685C17.114 34.7131 17.1387 34.774 17.1396 34.838C17.1405 34.9019 17.1174 34.9636 17.0755 35.0095L15.9832 36.2049C15.962 36.2281 15.9367 36.2465 15.9088 36.259C15.8808 36.2716 15.8508 36.2781 15.8204 36.278Z" fill="#3F3D56"/>
<path d="M24.6663 36.5191C24.636 36.5192 24.6061 36.5128 24.5782 36.5003C24.5503 36.4878 24.5251 36.4694 24.504 36.4464L23.1848 35.0098C23.164 34.9872 23.1476 34.9604 23.1366 34.931C23.1255 34.9016 23.12 34.8702 23.1204 34.8386C23.1207 34.8069 23.127 34.7757 23.1387 34.7466C23.1504 34.7175 23.1674 34.6911 23.1888 34.669C23.2101 34.6469 23.2353 34.6295 23.2629 34.6178C23.2906 34.606 23.3201 34.6002 23.3499 34.6005C23.3797 34.6009 23.4091 34.6076 23.4365 34.62C23.4638 34.6325 23.4886 34.6506 23.5094 34.6732L24.8286 36.1097C24.8598 36.1437 24.8808 36.1866 24.8891 36.2332C24.8974 36.2798 24.8926 36.328 24.8753 36.3717C24.858 36.4154 24.8289 36.4527 24.7917 36.4789C24.7545 36.5051 24.7109 36.5191 24.6663 36.5191Z" fill="#3F3D56"/>
<path d="M20.0407 38.9296C19.9805 38.9296 19.9228 38.9042 19.8803 38.859C19.8377 38.8138 19.8138 38.7525 19.8138 38.6885V35.9165C19.8138 35.8525 19.8377 35.7912 19.8803 35.746C19.9228 35.7008 19.9805 35.6754 20.0407 35.6754C20.1008 35.6754 20.1585 35.7008 20.201 35.746C20.2436 35.7912 20.2675 35.8525 20.2675 35.9165V38.6885C20.2675 38.7525 20.2436 38.8138 20.201 38.859C20.1585 38.9042 20.1008 38.9296 20.0407 38.9296Z" fill="#3F3D56"/>
<path d="M49.7098 36.7601H42.1383C41.3649 36.7462 40.6276 36.41 40.0853 35.8238C39.543 35.2376 39.2391 34.4485 39.2391 33.6265C39.2391 32.8044 39.543 32.0153 40.0853 31.4291C40.6276 30.843 41.3649 30.5067 42.1383 30.4928H42.7173C43.0046 29.8463 43.4582 29.2995 44.0257 28.9156C44.5932 28.5316 45.2514 28.3263 45.9241 28.3234C46.8388 28.3323 47.716 28.711 48.3773 29.3827C49.0387 30.0543 49.4345 30.9684 49.4844 31.9391H49.7098C50.3049 31.9495 50.8723 32.2081 51.2896 32.659C51.707 33.1099 51.9409 33.7171 51.9409 34.3496C51.9409 34.9821 51.707 35.5893 51.2896 36.0402C50.8723 36.4911 50.3049 36.7497 49.7098 36.7601ZM42.1383 30.9749C41.4852 30.9888 40.8634 31.2743 40.4061 31.77C39.9489 32.2658 39.6928 32.9323 39.6928 33.6265C39.6928 34.3206 39.9489 34.9871 40.4061 35.4829C40.8634 35.9786 41.4852 36.2641 42.1383 36.278H49.7098C50.1846 36.2676 50.6366 36.0598 50.9689 35.6993C51.3011 35.3388 51.4872 34.8543 51.4872 34.3496C51.4872 33.845 51.3011 33.3604 50.9689 32.9999C50.6366 32.6394 50.1846 32.4316 49.7098 32.4212H49.2645C49.2043 32.4212 49.1466 32.3958 49.1041 32.3506C49.0615 32.3054 49.0376 32.2441 49.0376 32.1802C49.0448 31.2942 48.7211 30.4413 48.1374 29.8087C47.5537 29.176 46.7577 28.8153 45.9241 28.8055C45.3144 28.8089 44.7192 29.0025 44.2122 29.3622C43.7051 29.7219 43.3087 30.2319 43.0719 30.829C43.0544 30.8723 43.0253 30.9092 42.9883 30.9351C42.9512 30.9611 42.9078 30.9749 42.8635 30.9749H42.1383Z" fill="#3F3D56"/>
<path d="M75.0017 32.1938L74.8249 31.7499C75.1681 31.5957 75.4702 31.3542 75.7046 31.0465C75.9391 30.7388 76.0987 30.3746 76.1692 29.9858C76.2398 29.5971 76.2192 29.1959 76.1092 28.8176C75.9993 28.4393 75.8034 28.0956 75.5388 27.8169C75.2743 27.5382 74.9492 27.333 74.5923 27.2194C74.2355 27.1059 73.8578 27.0875 73.4926 27.1658C73.1275 27.2442 72.7861 27.4169 72.4986 27.6688C72.2112 27.9206 71.9865 28.2438 71.8445 28.6097L71.4252 28.4259C71.5956 27.9867 71.8652 27.5989 72.2101 27.2968C72.5551 26.9946 72.9647 26.7873 73.4028 26.6933C73.841 26.5993 74.2942 26.6213 74.7224 26.7576C75.1507 26.8938 75.5407 27.1401 75.8582 27.4745C76.1757 27.8089 76.4107 28.2213 76.5427 28.6752C76.6746 29.1291 76.6993 29.6106 76.6147 30.077C76.53 30.5435 76.3386 30.9806 76.0573 31.3498C75.7759 31.719 75.4134 32.0089 75.0017 32.1938Z" fill="#3F3D56"/>
<path d="M75.3401 36.7601H67.7685C66.9952 36.7462 66.2579 36.41 65.7156 35.8238C65.1733 35.2376 64.8694 34.4485 64.8694 33.6265C64.8694 32.8044 65.1733 32.0153 65.7156 31.4291C66.2579 30.843 66.9952 30.5067 67.7685 30.4928H68.3476C68.6348 29.8463 69.0884 29.2995 69.6559 28.9156C70.2234 28.5316 70.8816 28.3263 71.5543 28.3234C72.469 28.3323 73.3462 28.711 74.0076 29.3827C74.6689 30.0543 75.0648 30.9684 75.1147 31.9391H75.3401C75.9352 31.9495 76.5025 32.2081 76.9199 32.659C77.3373 33.1099 77.5711 33.7171 77.5711 34.3496C77.5711 34.9821 77.3373 35.5893 76.9199 36.0402C76.5025 36.4911 75.9352 36.7497 75.3401 36.7601ZM67.7685 30.9749C67.1155 30.9888 66.4936 31.2743 66.0364 31.77C65.5792 32.2658 65.3231 32.9323 65.3231 33.6265C65.3231 34.3206 65.5792 34.9871 66.0364 35.4829C66.4936 35.9786 67.1155 36.2641 67.7685 36.278H75.3401C75.8148 36.2676 76.2668 36.0598 76.5991 35.6993C76.9314 35.3388 77.1175 34.8543 77.1175 34.3496C77.1175 33.845 76.9314 33.3604 76.5991 32.9999C76.2668 32.6394 75.8148 32.4316 75.3401 32.4212H74.8947C74.8345 32.4212 74.7769 32.3958 74.7343 32.3506C74.6918 32.3054 74.6679 32.2441 74.6679 32.1802C74.6751 31.2942 74.3513 30.4413 73.7676 29.8087C73.1839 29.176 72.388 28.8153 71.5543 28.8055C70.9447 28.8089 70.3494 29.0025 69.8424 29.3622C69.3354 29.7219 68.9389 30.2319 68.7022 30.829C68.6847 30.8723 68.6556 30.9092 68.6185 30.9351C68.5815 30.9611 68.5381 30.9749 68.4937 30.9749H67.7685Z" fill="#3F3D56"/>
<path d="M100.97 35.5549H100.06C99.9998 35.5549 99.9421 35.5295 99.8995 35.4843C99.857 35.4391 99.8331 35.3778 99.8331 35.3139C99.8331 35.2499 99.857 35.1886 99.8995 35.1434C99.9421 35.0982 99.9998 35.0728 100.06 35.0728H100.97C101.445 35.0624 101.897 34.8546 102.229 34.4941C102.562 34.1336 102.748 33.6491 102.748 33.1444C102.748 32.6398 102.562 32.1552 102.229 31.7947C101.897 31.4342 101.445 31.2264 100.97 31.216H100.525C100.465 31.216 100.407 31.1906 100.365 31.1454C100.322 31.1002 100.298 31.0389 100.298 30.975C100.305 30.089 99.9815 29.2361 99.3979 28.6035C98.8142 27.9708 98.0182 27.6101 97.1846 27.6003C96.5749 27.6037 95.9797 27.7973 95.4727 28.157C94.9656 28.5167 94.5692 29.0267 94.3324 29.6238C94.3149 29.6671 94.2858 29.704 94.2488 29.7299C94.2117 29.7559 94.1683 29.7697 94.124 29.7697H93.3988C92.7457 29.7836 92.1239 30.0691 91.6666 30.5648C91.2094 31.0606 90.9533 31.7271 90.9533 32.4213C90.9533 33.1154 91.2094 33.7819 91.6666 34.2777C92.1239 34.7734 92.7457 35.0589 93.3988 35.0728H94.1019C94.1621 35.0728 94.2198 35.0982 94.2623 35.1434C94.3049 35.1886 94.3288 35.2499 94.3288 35.3139C94.3288 35.3778 94.3049 35.4391 94.2623 35.4843C94.2198 35.5295 94.1621 35.5549 94.1019 35.5549H93.3988C92.6254 35.541 91.8881 35.2048 91.3458 34.6186C90.8035 34.0324 90.4996 33.2433 90.4996 32.4213C90.4996 31.5992 90.8035 30.8101 91.3458 30.2239C91.8881 29.6378 92.6254 29.3015 93.3988 29.2876H93.9778C94.2651 28.6411 94.7187 28.0943 95.2862 27.7104C95.8537 27.3264 96.5118 27.1211 97.1846 27.1182C98.0993 27.1271 98.9765 27.5058 99.6378 28.1775C100.299 28.8491 100.695 29.7632 100.745 30.7339H100.97C101.565 30.7443 102.133 31.0029 102.55 31.4538C102.967 31.9047 103.201 32.5119 103.201 33.1444C103.201 33.7769 102.967 34.3841 102.55 34.835C102.133 35.2859 101.565 35.5445 100.97 35.5549Z" fill="#3F3D56"/>
<path d="M97.1471 36.5955C97.0869 36.5955 97.0293 36.5701 96.9867 36.5249C96.9442 36.4797 96.9203 36.4184 96.9203 36.3544V33.5824C96.9203 33.5184 96.9442 33.4571 96.9867 33.4119C97.0293 33.3667 97.0869 33.3413 97.1471 33.3413C97.2073 33.3413 97.2649 33.3667 97.3075 33.4119C97.35 33.4571 97.3739 33.5184 97.3739 33.5824V36.3544C97.3739 36.4184 97.35 36.4797 97.3075 36.5249C97.2649 36.5701 97.2073 36.5955 97.1471 36.5955Z" fill="#3F3D56"/>
<path d="M95.5593 38.0418C95.4992 38.0418 95.4415 38.0164 95.399 37.9712C95.3564 37.926 95.3325 37.8647 95.3325 37.8007V35.0286C95.3325 34.9647 95.3564 34.9034 95.399 34.8582C95.4415 34.813 95.4992 34.7876 95.5593 34.7876C95.6195 34.7876 95.6772 34.813 95.7197 34.8582C95.7623 34.9034 95.7862 34.9647 95.7862 35.0286V37.8007C95.7861 37.8647 95.7623 37.926 95.7197 37.9712C95.6772 38.0164 95.6195 38.0418 95.5593 38.0418Z" fill="#3F3D56"/>
<path d="M98.7348 38.7649C98.6746 38.7649 98.6169 38.7395 98.5744 38.6943C98.5318 38.6491 98.5079 38.5878 98.5079 38.5239V35.7518C98.5079 35.6879 98.5318 35.6265 98.5744 35.5813C98.6169 35.5361 98.6746 35.5107 98.7348 35.5107C98.7949 35.5107 98.8526 35.5361 98.8951 35.5813C98.9377 35.6265 98.9616 35.6879 98.9616 35.7518V38.5239C98.9616 38.5878 98.9377 38.6491 98.8951 38.6943C98.8526 38.7395 98.7949 38.7649 98.7348 38.7649Z" fill="#3F3D56"/>
<path d="M126.601 35.5549H125.69C125.63 35.5549 125.572 35.5295 125.53 35.4843C125.487 35.4391 125.463 35.3778 125.463 35.3139C125.463 35.2499 125.487 35.1886 125.53 35.1434C125.572 35.0982 125.63 35.0728 125.69 35.0728H126.601C127.075 35.0624 127.527 34.8546 127.86 34.4941C128.192 34.1336 128.378 33.6491 128.378 33.1444C128.378 32.6398 128.192 32.1552 127.86 31.7947C127.527 31.4342 127.075 31.2264 126.601 31.216H126.155C126.095 31.216 126.037 31.1906 125.995 31.1454C125.952 31.1002 125.928 31.0389 125.928 30.975C125.936 30.089 125.612 29.2361 125.028 28.6035C124.444 27.9708 123.648 27.6101 122.815 27.6003C122.205 27.6037 121.61 27.7973 121.103 28.157C120.596 28.5167 120.199 29.0267 119.963 29.6238C119.945 29.6671 119.916 29.704 119.879 29.7299C119.842 29.7559 119.799 29.7697 119.754 29.7697H119.029C118.376 29.7836 117.754 30.0691 117.297 30.5648C116.84 31.0606 116.584 31.7271 116.584 32.4213C116.584 33.1154 116.84 33.7819 117.297 34.2777C117.754 34.7734 118.376 35.0589 119.029 35.0728H119.732C119.792 35.0728 119.85 35.0982 119.893 35.1434C119.935 35.1886 119.959 35.2499 119.959 35.3139C119.959 35.3778 119.935 35.4391 119.893 35.4843C119.85 35.5295 119.792 35.5549 119.732 35.5549H119.029C118.256 35.541 117.518 35.2048 116.976 34.6186C116.434 34.0324 116.13 33.2433 116.13 32.4213C116.13 31.5992 116.434 30.8101 116.976 30.2239C117.518 29.6378 118.256 29.3015 119.029 29.2876H119.608C119.895 28.6411 120.349 28.0943 120.916 27.7104C121.484 27.3264 122.142 27.1211 122.815 27.1182C123.73 27.1271 124.607 27.5058 125.268 28.1775C125.929 28.8491 126.325 29.7632 126.375 30.7339H126.601C127.196 30.7443 127.763 31.0029 128.18 31.4538C128.598 31.9047 128.832 32.5119 128.832 33.1444C128.832 33.7769 128.598 34.3841 128.18 34.835C127.763 35.2859 127.196 35.5445 126.601 35.5549Z" fill="#3F3D56"/>
<path d="M122.424 34.9523C122.706 34.9523 122.934 34.7095 122.934 34.4099C122.934 34.1104 122.706 33.8676 122.424 33.8676C122.142 33.8676 121.914 34.1104 121.914 34.4099C121.914 34.7095 122.142 34.9523 122.424 34.9523Z" fill="#3F3D56"/>
<path d="M124.125 35.6754C124.407 35.6754 124.636 35.4326 124.636 35.1331C124.636 34.8335 124.407 34.5907 124.125 34.5907C123.843 34.5907 123.615 34.8335 123.615 35.1331C123.615 35.4326 123.843 35.6754 124.125 35.6754Z" fill="#3F3D56"/>
<path d="M121.29 36.5191C121.572 36.5191 121.8 36.2763 121.8 35.9767C121.8 35.6772 121.572 35.4344 121.29 35.4344C121.008 35.4344 120.78 35.6772 120.78 35.9767C120.78 36.2763 121.008 36.5191 121.29 36.5191Z" fill="#3F3D56"/>
<path d="M123.105 37.7244C123.386 37.7244 123.615 37.4815 123.615 37.182C123.615 36.8825 123.386 36.6396 123.105 36.6396C122.823 36.6396 122.594 36.8825 122.594 37.182C122.594 37.4815 122.823 37.7244 123.105 37.7244Z" fill="#3F3D56"/>
<path d="M26.5375 17.2351H13.3822C12.9009 17.2351 12.4394 17.0319 12.0991 16.6703C11.7588 16.3086 11.5676 15.8181 11.5676 15.3067C11.5676 14.7953 11.7588 14.3048 12.0991 13.9431C12.4394 13.5815 12.9009 13.3783 13.3822 13.3783H26.5375C27.0188 13.3783 27.4803 13.5815 27.8206 13.9431C28.1609 14.3048 28.352 14.7953 28.352 15.3067C28.352 15.8181 28.1609 16.3086 27.8206 16.6703C27.4803 17.0319 27.0188 17.2351 26.5375 17.2351Z" fill="#0055D3"/>
<path d="M52.1678 17.2351H39.0124C38.5312 17.2351 38.0696 17.0319 37.7293 16.6703C37.389 16.3086 37.1979 15.8181 37.1979 15.3067C37.1979 14.7953 37.389 14.3048 37.7293 13.9431C38.0696 13.5815 38.5312 13.3783 39.0124 13.3783H52.1678C52.649 13.3783 53.1105 13.5815 53.4508 13.9431C53.7911 14.3048 53.9823 14.7953 53.9823 15.3067C53.9823 15.8181 53.7911 16.3086 53.4508 16.6703C53.1105 17.0319 52.649 17.2351 52.1678 17.2351Z" fill="#0055D3"/>
<path d="M77.798 17.2351H64.6427C64.1614 17.2351 63.6999 17.0319 63.3596 16.6703C63.0193 16.3086 62.8281 15.8181 62.8281 15.3067C62.8281 14.7953 63.0193 14.3048 63.3596 13.9431C63.6999 13.5815 64.1614 13.3783 64.6427 13.3783H77.798C78.2792 13.3783 78.7408 13.5815 79.0811 13.9431C79.4214 14.3048 79.6125 14.7953 79.6125 15.3067C79.6125 15.8181 79.4214 16.3086 79.0811 16.6703C78.7408 17.0319 78.2792 17.2351 77.798 17.2351Z" fill="#0055D3"/>
<path d="M103.428 17.2351H90.2729C89.7917 17.2351 89.3301 17.0319 88.9898 16.6703C88.6495 16.3086 88.4584 15.8181 88.4584 15.3067C88.4584 14.7953 88.6495 14.3048 88.9898 13.9431C89.3301 13.5815 89.7917 13.3783 90.2729 13.3783H103.428C103.909 13.3783 104.371 13.5815 104.711 13.9431C105.052 14.3048 105.243 14.7953 105.243 15.3067C105.243 15.8181 105.052 16.3086 104.711 16.6703C104.371 17.0319 103.909 17.2351 103.428 17.2351Z" fill="#0055D3"/>
<path d="M129.059 17.2351H115.903C115.422 17.2351 114.96 17.0319 114.62 16.6703C114.28 16.3086 114.089 15.8181 114.089 15.3067C114.089 14.7953 114.28 14.3048 114.62 13.9431C114.96 13.5815 115.422 13.3783 115.903 13.3783H129.059C129.54 13.3783 130.001 13.5815 130.342 13.9431C130.682 14.3048 130.873 14.7953 130.873 15.3067C130.873 15.8181 130.682 16.3086 130.342 16.6703C130.001 17.0319 129.54 17.2351 129.059 17.2351Z" fill="#0055D3"/>
<path d="M32.2079 39.8938C32.1477 39.8938 32.09 39.8684 32.0475 39.8232C32.005 39.778 31.9811 39.7166 31.9811 39.6527V21.3329C31.9811 21.269 32.005 21.2077 32.0475 21.1625C32.09 21.1173 32.1477 21.0919 32.2079 21.0919C32.2681 21.0919 32.3257 21.1173 32.3683 21.1625C32.4108 21.2077 32.4347 21.269 32.4347 21.3329V39.6527C32.4347 39.7166 32.4108 39.778 32.3683 39.8232C32.3257 39.8684 32.2681 39.8938 32.2079 39.8938Z" fill="#E6E6E6"/>
<path d="M57.8381 39.6527C57.778 39.6527 57.7203 39.6273 57.6778 39.5821C57.6352 39.5369 57.6113 39.4756 57.6113 39.4117V21.0919C57.6113 21.0279 57.6352 20.9666 57.6778 20.9214C57.7203 20.8762 57.778 20.8508 57.8381 20.8508C57.8983 20.8508 57.956 20.8762 57.9985 20.9214C58.0411 20.9666 58.065 21.0279 58.065 21.0919V39.4117C58.065 39.4756 58.0411 39.5369 57.9985 39.5821C57.956 39.6273 57.8983 39.6527 57.8381 39.6527Z" fill="#E6E6E6"/>
<path d="M84.8294 39.6527C84.7692 39.6527 84.7115 39.6273 84.669 39.5821C84.6264 39.5369 84.6025 39.4756 84.6025 39.4117V21.0919C84.6025 21.0279 84.6264 20.9666 84.669 20.9214C84.7115 20.8762 84.7692 20.8508 84.8294 20.8508C84.8895 20.8508 84.9472 20.8762 84.9897 20.9214C85.0323 20.9666 85.0562 21.0279 85.0562 21.0919V39.4117C85.0562 39.4756 85.0323 39.5369 84.9897 39.5821C84.9472 39.6273 84.8895 39.6527 84.8294 39.6527Z" fill="#E6E6E6"/>
<path d="M110.46 39.6527C110.399 39.6527 110.342 39.6273 110.299 39.5821C110.257 39.5369 110.233 39.4756 110.233 39.4117V21.0919C110.233 21.0279 110.257 20.9666 110.299 20.9214C110.342 20.8762 110.399 20.8508 110.46 20.8508C110.52 20.8508 110.577 20.8762 110.62 20.9214C110.663 20.9666 110.686 21.0279 110.686 21.0919V39.4117C110.686 39.4756 110.663 39.5369 110.62 39.5821C110.577 39.6273 110.52 39.6527 110.46 39.6527Z" fill="#E6E6E6"/>
<path d="M204.773 101H118.356C118.296 101 118.238 100.975 118.196 100.929C118.153 100.884 118.129 100.823 118.129 100.759C118.129 100.695 118.153 100.634 118.196 100.589C118.238 100.543 118.296 100.518 118.356 100.518H204.773C204.833 100.518 204.891 100.543 204.934 100.589C204.976 100.634 205 100.695 205 100.759C205 100.823 204.976 100.884 204.934 100.929C204.891 100.975 204.833 101 204.773 101Z" fill="#3F3D56"/>
</g>
<defs>
<clipPath id="clip0_8_3749">
<rect width="205" height="101" fill="white"/>
</clipPath>
</defs>
</svg>
