<svg width="111" height="103" viewBox="0 0 111 103" fill="none" xmlns="http://www.w3.org/2000/svg">
<g clip-path="url(#clip0_8_4411)">
<path d="M7.56274 96.605C7.02912 96.605 6.4944 96.6302 5.9722 96.681L5.8962 96.6884C2.43247 97.039 -0.101098 99.0731 0.00310034 101.42L0.0232434 101.844C0.0365289 102.113 0.0506818 102.401 0.0623307 102.721C0.0686399 102.879 0.256684 103 0.490669 103H85.6902C91.6972 102.958 97.6824 102.906 103.479 102.844C104.566 102.846 105.653 102.782 106.733 102.651C108.344 102.432 109.462 102 110.151 101.328H110.152C111.009 100.495 111.036 99.4455 110.984 98.2601C110.878 95.8666 110.774 93.3521 110.669 90.8453C110.577 88.6359 110.485 86.4325 110.393 84.3229C110.336 83.071 110.21 81.966 109.236 81.1214C108.181 80.2081 106.256 79.7451 103.516 79.7451C103.483 79.7451 103.45 79.7451 103.416 79.7453C94.8278 79.7803 86.3178 83.1619 82.2407 88.16C81.7712 88.7356 81.3337 89.3517 80.9106 89.9477C80.2921 90.8627 79.6094 91.733 78.8677 92.5524C78.4558 92.994 78.0041 93.3972 77.5183 93.7569C77.4852 93.7831 77.4473 93.8112 77.4072 93.8378C77.3155 93.9062 77.2197 93.9722 77.1263 94.0309C76.586 94.3891 76.0091 94.6895 75.4053 94.9269L75.345 94.95C75.2996 94.9686 75.2503 94.9872 75.2011 95.0042C74.8531 95.1319 74.4983 95.2405 74.1382 95.3295C72.5841 95.7217 70.8168 95.8158 68.8858 95.6087C67.1023 95.4111 65.349 95.002 63.6633 94.39C61.8751 93.7429 60.2014 92.9361 58.5828 92.1559C57.8718 91.8131 57.1364 91.4587 56.402 91.1229C56.2639 91.0597 56.1281 90.9979 55.9903 90.9361C55.0933 90.5358 54.2801 90.2052 53.5042 89.9254C51.5982 89.2329 49.6039 88.8099 47.5797 88.6689C45.4437 88.535 43.5614 88.7875 41.9863 89.4178C41.5487 89.5926 41.1257 89.8013 40.7211 90.042C38.8555 91.1514 37.7054 92.7887 36.5933 94.372C35.2098 96.3415 33.7792 98.3782 30.9544 99.434C27.6948 100.653 22.9369 100.147 19.5707 99.2658C18.5124 98.9887 17.4554 98.6701 16.4331 98.3618C16.0202 98.2372 15.6071 98.1135 15.1936 97.9907C14.3811 97.7505 13.7162 97.5665 13.101 97.4111L12.9064 97.3616C12.7982 97.3346 12.6899 97.3077 12.5796 97.2821C11.8489 97.1064 11.1685 96.9682 10.4984 96.8594L10.3399 96.8329C10.0221 96.785 9.72493 96.7451 9.43335 96.7116L9.31695 96.6983C8.73435 96.6357 8.14875 96.6045 7.56274 96.605Z" fill="#F2F2F2"/>
<path d="M53.9606 50.7593C53.7041 50.7961 53.4425 50.7766 53.1944 50.702C52.9463 50.6275 52.7176 50.4997 52.5245 50.3278C52.3313 50.1558 52.1784 49.9439 52.0765 49.7069C51.9746 49.4698 51.9261 49.2134 51.9345 48.9557L46.0527 46.7074L48.7159 44.8125L53.8931 47.2381C54.3274 47.2809 54.7309 47.4808 55.027 47.7998C55.3231 48.1188 55.4912 48.5348 55.4995 48.9689C55.5078 49.403 55.3557 49.8251 55.0721 50.1551C54.7884 50.4851 54.3929 50.7001 53.9604 50.7593L53.9606 50.7593Z" fill="#FFB7B7"/>
<path d="M50.5995 49.1464L51.5179 45.9242L51.4727 45.8936L42.8702 40.081L35.4339 32.6592L31.1021 34.3807L31.3865 35.7445L31.4051 35.7612L41.2921 44.5697L41.3013 44.5742L50.5995 49.1464Z" fill="#3F3D56"/>
<path d="M41.7869 56.5066L28.4734 54.6503L29.6452 46.5245H39.4466L41.7869 56.5066Z" fill="#FFB6B6"/>
<path d="M19.1652 96.2957L21.8962 96.9269L25.6438 86.7496L21.6131 85.818L19.1652 96.2957Z" fill="#FFB6B6"/>
<path d="M16.6242 100.669L18.5827 101.122L19.362 99.3635L19.8276 101.41L25.022 102.61C25.271 102.668 25.532 102.645 25.7668 102.544C26.0017 102.444 26.1981 102.272 26.3275 102.052C26.4568 101.833 26.5123 101.578 26.4858 101.325C26.4593 101.072 26.3522 100.835 26.1802 100.647L22.6978 96.8381L23.1322 94.9787L18.7086 94.2292L16.6242 100.669Z" fill="#2F2E41"/>
<path d="M36.0163 97.8095H38.8201L40.1543 87.0526H36.0163V97.8095Z" fill="#FFB6B6"/>
<path d="M34.5365 102.642H36.5472L36.9061 100.753L37.8253 102.642H43.1581C43.4137 102.642 43.6627 102.56 43.8686 102.41C44.0745 102.259 44.2266 102.047 44.3026 101.804C44.3787 101.561 44.3748 101.301 44.2914 101.06C44.208 100.82 44.0496 100.612 43.8393 100.468L39.5806 97.5425V95.6335L35.1013 95.8995L34.5365 102.642Z" fill="#2F2E41"/>
<path d="M28.3051 53.2714L41.325 52.2413C45.1671 61.1684 42.7241 75.4196 39.7715 91.4622L35.5837 92.0008L35.2589 66.2221L24.7608 90.204L20.3962 89.9821L28.3051 53.2714Z" fill="#2F2E41"/>
<path d="M35.8838 29.7637V25.3823C35.8838 23.8252 35.262 22.3319 34.1551 21.2309C33.0481 20.1299 31.5468 19.5114 29.9814 19.5114C28.416 19.5114 26.9147 20.1299 25.8078 21.2309C24.7009 22.3319 24.079 23.8252 24.079 25.3823C23.0387 27.5386 23.6896 28.5637 24.079 29.7637C24.0794 29.9727 24.163 30.173 24.3115 30.3207C24.4601 30.4685 24.6615 30.5516 24.8715 30.552H35.0909C35.3011 30.5517 35.5025 30.4686 35.6512 30.3209C35.7998 30.1731 35.8835 29.9727 35.8838 29.7637Z" fill="#2F2E41"/>
<path d="M31.438 30.4859C33.828 30.4859 35.7655 28.5588 35.7655 26.1815C35.7655 23.8042 33.828 21.8771 31.438 21.8771C29.048 21.8771 27.1105 23.8042 27.1105 26.1815C27.1105 28.5588 29.048 30.4859 31.438 30.4859Z" fill="#FFB7B7"/>
<path d="M37.2801 25.7328C37.2787 24.5015 36.7864 23.321 35.9111 22.4504C35.0358 21.5798 33.849 21.09 32.6111 21.0886H31.7301C30.4922 21.09 29.3055 21.5797 28.4302 22.4504C27.5549 23.321 27.0625 24.5015 27.0611 25.7328V25.8204C27.7209 26.2691 28.3473 26.3347 28.9229 25.8204L29.5579 24.0518L29.6849 25.8204H30.6472L30.968 24.9282L31.0321 25.8204C32.3319 26.9215 34.7898 26.3939 37.2801 25.8204V25.7328Z" fill="#2F2E41"/>
<path d="M28.9146 48.8994L39.9328 48.4824L40.5486 41.3127C41.0236 40.0004 41.0313 38.8728 40.5715 37.9636C40.1759 37.2163 39.5114 36.645 38.7108 36.3639L36.2998 33.4675C35.9897 33.0953 35.6003 32.7962 35.1598 32.5919C34.7192 32.3876 34.2386 32.2832 33.7525 32.2862L27.4879 32.3288C27.3369 32.2386 26.421 31.7755 24.6147 32.5541C22.6555 33.3987 23.1104 36.333 23.1153 36.3624L23.1199 36.39L23.1414 36.4088L27.3081 39.8998L28.9146 48.8994Z" fill="#3F3D56"/>
<path d="M79.125 36.2935C72.0151 44.2635 50.6232 45.7836 36.6989 60.4132C32.0306 46.2724 38.6438 21.8625 45.2345 12.5537C48.3994 8.0835 53.2201 5.04693 58.6359 4.11204C64.0517 3.17715 69.619 4.42052 74.1132 7.56861C83.4718 14.1242 86.7221 27.7774 79.125 36.2935Z" fill="#0055D3"/>
<path d="M61.8978 28.6478C65.6309 28.6478 68.6571 25.6376 68.6571 21.9245C68.6571 18.2113 65.6309 15.2012 61.8978 15.2012C58.1648 15.2012 55.1385 18.2113 55.1385 21.9245C55.1385 25.6376 58.1648 28.6478 61.8978 28.6478Z" fill="white"/>
<path d="M30.985 67.7353C33.4301 67.7353 35.4122 65.7638 35.4122 63.3317C35.4122 60.8997 33.4301 58.9281 30.985 58.9281C28.5399 58.9281 26.5578 60.8997 26.5578 63.3317C26.5578 65.7638 28.5399 67.7353 30.985 67.7353Z" fill="#0055D3"/>
<path d="M25.9203 63.0133C25.7275 62.841 25.575 62.6288 25.4735 62.3915C25.372 62.1543 25.3241 61.8979 25.333 61.6402C25.3419 61.3826 25.4074 61.13 25.525 60.9003C25.6426 60.6706 25.8094 60.4693 26.0137 60.3105L23.979 54.3787L27.149 55.1977L28.5937 60.7049C28.8391 61.064 28.9436 61.5002 28.8872 61.9308C28.8309 62.3614 28.6176 62.7565 28.2879 63.0411C27.9582 63.3257 27.535 63.4802 27.0984 63.4751C26.6619 63.47 26.2424 63.3057 25.9195 63.0134L25.9203 63.0133Z" fill="#FFB7B7"/>
<path d="M25.0113 59.4134L28.087 58.05L27.0537 47.7022L28.016 37.2679L23.9095 35.0635L23.0395 36.1547V36.1795L22.5785 49.3739L22.5809 49.3839L25.0113 59.4134Z" fill="#3F3D56"/>
<path d="M98.3468 79.0406C98.1318 79.8427 97.567 80.5107 96.8851 80.9973C96.7739 81.0769 96.6598 81.1506 96.5441 81.2199C96.5086 81.2406 96.473 81.2627 96.4359 81.2818C96.3959 81.3054 96.3559 81.3276 96.3158 81.3482H93.1094C93.0516 81.2317 92.9952 81.1137 92.9389 80.9973C91.5647 78.1249 90.5996 75.0254 90.7642 71.8684C90.8295 70.6439 91.0881 69.4372 91.5306 68.2927C92.4111 66.0116 94.0181 64.0372 96.2284 63.0434C96.2832 63.0183 96.341 62.9933 96.3974 62.9697C96.3796 63.0331 96.3618 63.095 96.344 63.1584C96.1069 64.0081 95.9393 64.8755 95.843 65.7521C95.8341 65.8199 95.8266 65.8878 95.8207 65.9571C95.6101 68.0712 95.7971 70.2058 96.3722 72.2518C96.3737 72.2563 96.3751 72.2621 96.3766 72.2666C96.5026 72.7192 96.6489 73.1651 96.8154 73.604C96.9459 73.9505 97.0867 74.2926 97.2409 74.6288C97.8843 76.0399 98.747 77.5439 98.3468 79.0406Z" fill="#E6E6E6"/>
<path d="M96.4374 63.036C96.4063 63.0773 96.3752 63.1171 96.3441 63.1584C95.6929 64.0167 95.1401 64.9445 94.6956 65.9246C94.6719 65.9732 94.6496 66.0219 94.6304 66.072C94.0214 67.4407 93.6303 68.8953 93.4711 70.3836C93.4694 70.3938 93.4684 70.4041 93.4682 70.4145C93.4311 70.7625 93.4089 71.1134 93.4 71.4644C93.367 72.1222 93.4385 72.781 93.612 73.4167C93.7701 73.9357 94.0471 74.4112 94.4214 74.8057C94.4584 74.8455 94.4955 74.8853 94.5355 74.9236C94.5652 74.9546 94.5978 74.9856 94.6289 75.015C94.9284 75.2996 95.256 75.5636 95.5376 75.8688C95.6667 76.0057 95.7833 76.1537 95.886 76.3112C96.0499 76.5751 96.1557 76.8705 96.1966 77.178C96.2375 77.4855 96.2125 77.7981 96.1232 78.0953C95.9216 78.8415 95.4605 79.4711 94.9891 80.0712C94.7534 80.372 94.5103 80.6758 94.2998 80.9972C94.2227 81.1122 94.1516 81.2287 94.0863 81.3482H93.8996C93.9618 81.2287 94.03 81.1122 94.1041 80.9972C94.6452 80.1494 95.4146 79.4209 95.8134 78.4876C96.0832 77.8579 96.1647 77.1443 95.8237 76.5264C95.7238 76.3468 95.6029 76.1795 95.4635 76.0281C95.1922 75.7228 94.8676 75.4618 94.5726 75.1861C94.4985 75.1168 94.4258 75.046 94.3561 74.9723C93.9868 74.599 93.7017 74.1516 93.5201 73.66C93.3143 73.0355 93.2171 72.3808 93.2325 71.7239C93.2325 71.3051 93.2547 70.8834 93.2962 70.4647C93.3007 70.4116 93.3066 70.357 93.3125 70.3025C93.6157 67.6673 94.6225 65.1608 96.2284 63.0433C96.2581 63.0021 96.2892 62.9622 96.3204 62.9224C96.3841 62.8399 96.5012 62.9549 96.4374 63.036Z" fill="white"/>
<path d="M93.3723 70.4786C92.8589 70.3929 92.3928 70.1283 92.0573 69.7323C91.7218 69.3362 91.5388 68.8345 91.5409 68.3166C91.5412 68.2955 91.5497 68.2753 91.5647 68.2603C91.5796 68.2453 91.5998 68.2366 91.621 68.2362C91.6423 68.2357 91.6629 68.2435 91.6785 68.2578C91.6941 68.2721 91.7034 68.2919 91.7047 68.313C91.7018 68.7953 91.8723 69.2627 92.1855 69.6308C92.4986 69.999 92.9338 70.2437 93.4124 70.3207C93.5164 70.3376 93.4757 70.4954 93.3723 70.4787V70.4786Z" fill="white"/>
<path d="M94.3802 74.8354C95.2526 74.2289 95.863 73.3176 96.0899 72.2833C96.1123 72.1808 96.271 72.2207 96.2487 72.3231C96.0106 73.399 95.3733 74.3461 94.4642 74.9752C94.3775 75.0351 94.294 74.895 94.3802 74.8354H94.3802Z" fill="white"/>
<path d="M94.6465 65.9074C94.8382 65.9818 95.0455 66.0076 95.2498 65.9826C95.454 65.9576 95.6488 65.8825 95.8167 65.7641C95.9026 65.7031 95.9859 65.8434 95.9006 65.904C95.7145 66.0339 95.4993 66.1166 95.2737 66.1447C95.0481 66.1728 94.819 66.1456 94.6065 66.0653C94.5858 66.0594 94.5682 66.0459 94.5571 66.0276C94.5461 66.0092 94.5425 65.9873 94.5471 65.9664C94.5525 65.9456 94.566 65.9276 94.5846 65.9166C94.6032 65.9055 94.6255 65.9022 94.6465 65.9074Z" fill="white"/>
<path d="M107.559 68.738C107.507 68.7778 107.453 68.8177 107.401 68.8589C106.698 69.3947 106.039 69.9865 105.431 70.6284C105.384 70.677 105.336 70.7272 105.29 70.7773L105.289 70.7788C103.849 72.334 102.71 74.1407 101.93 76.1077L101.925 76.121C101.924 76.1254 101.922 76.1284 101.921 76.1328C101.612 76.9201 101.363 77.7295 101.175 78.554C100.994 79.3591 100.846 80.2217 100.563 80.9973C100.52 81.1167 100.473 81.2347 100.422 81.3482H93.8314C93.8536 81.2317 93.8773 81.1138 93.901 80.9973C94.2363 79.2887 94.7603 77.6222 95.4635 76.0281C95.4872 75.975 95.5109 75.9219 95.5376 75.8688C95.9006 75.0812 96.3275 74.3242 96.814 73.6054C96.814 73.6053 96.814 73.6051 96.8141 73.6049C96.8142 73.6047 96.8143 73.6045 96.8144 73.6044C96.8146 73.6043 96.8147 73.6042 96.8149 73.6041C96.8151 73.604 96.8153 73.604 96.8155 73.604C97.0826 73.2118 97.3696 72.8333 97.6753 72.4701C98.4681 71.5318 99.4046 70.7237 100.45 70.0754C100.456 70.071 100.464 70.0681 100.47 70.0636C102.551 68.7793 105.018 68.1674 107.376 68.6967H107.378C107.439 68.71 107.498 68.7233 107.559 68.738Z" fill="#E6E6E6"/>
<path d="M107.551 68.8162C107.501 68.8294 107.45 68.8442 107.401 68.8589C106.362 69.1542 105.36 69.5632 104.411 70.0783C104.364 70.1034 104.317 70.13 104.269 70.1565C102.959 70.884 101.769 71.8087 100.742 72.8976C100.742 72.8984 100.741 72.8995 100.741 72.9006C100.729 72.9124 100.716 72.9257 100.705 72.9375C100.468 73.1911 100.24 73.455 100.023 73.7263C99.6 74.2322 99.2589 74.8009 99.0124 75.4117C98.824 75.9208 98.7575 76.4666 98.8182 77.0057C98.8226 77.0602 98.8301 77.1133 98.8375 77.1679C98.8434 77.2106 98.8493 77.2534 98.8567 77.2976C98.9546 77.8889 99.1236 78.4817 99.0761 79.0848C99.0473 79.3938 98.953 79.6932 98.7994 79.9634C98.6458 80.2335 98.4365 80.4683 98.1852 80.6522C98.0144 80.7836 97.8318 80.8991 97.6397 80.9972C97.365 81.1381 97.0789 81.2555 96.7843 81.3482H96.2017C96.2803 81.326 96.3574 81.3039 96.4359 81.2818C96.7148 81.2036 96.9885 81.1085 97.2557 80.9972C97.4084 80.9337 97.5569 80.8608 97.7005 80.779C98.2964 80.4384 98.793 79.9164 98.8968 79.2189C98.9872 78.6085 98.8123 77.998 98.7085 77.4009C98.6907 77.2976 98.6744 77.1959 98.6655 77.0942C98.5947 76.577 98.6377 76.0508 98.7915 75.5518C99.0048 74.9294 99.3237 74.3479 99.7343 73.8325C99.9884 73.497 100.259 73.1746 100.547 72.8667C100.582 72.8269 100.619 72.7871 100.658 72.7472C101.706 71.6505 102.916 70.7191 104.247 69.9854H104.248C105.238 69.4376 106.287 69.0052 107.376 68.6967H107.378C107.427 68.682 107.477 68.6672 107.526 68.6539C107.628 68.6274 107.652 68.7881 107.551 68.8162Z" fill="white"/>
<path d="M100.599 72.9227C100.241 72.5467 100.029 72.0564 100.001 71.5392C99.9729 71.0221 100.13 70.5119 100.446 70.0996C100.51 70.0165 100.643 70.1116 100.579 70.1949C100.284 70.5782 100.138 71.0535 100.165 71.535C100.192 72.0165 100.391 72.4725 100.727 72.8206C100.8 72.8963 100.672 72.998 100.599 72.9227Z" fill="white"/>
<path d="M98.7669 77.0048C99.8305 77.043 100.87 76.6809 101.677 75.991C101.757 75.9225 101.859 76.0495 101.779 76.1178C100.938 76.8343 99.856 77.2089 98.7492 77.1667C98.6438 77.1626 98.662 77.0007 98.7669 77.0048Z" fill="white"/>
<path d="M104.384 70.0358C104.492 70.21 104.642 70.3548 104.82 70.4571C104.998 70.5595 105.199 70.6162 105.405 70.6222C105.51 70.6249 105.492 70.7869 105.387 70.7841C105.16 70.7764 104.938 70.7135 104.741 70.6009C104.544 70.4883 104.377 70.3293 104.256 70.1379C104.243 70.1209 104.237 70.0995 104.24 70.0782C104.242 70.057 104.252 70.0374 104.269 70.0234C104.285 70.01 104.307 70.0038 104.329 70.0061C104.35 70.0084 104.37 70.0191 104.384 70.0358Z" fill="white"/>
<path d="M58.4044 100.236C58.1894 101.038 57.6246 101.706 56.9427 102.193C56.8315 102.272 56.7174 102.346 56.6018 102.415C56.5662 102.436 56.5306 102.458 56.4935 102.477C56.4535 102.501 56.4135 102.523 56.3735 102.544H53.167C53.1092 102.427 53.0528 102.309 52.9965 102.193C51.6223 99.3203 50.6572 96.2208 50.8218 93.0638C50.8871 91.8393 51.1457 90.6326 51.5882 89.4881C52.4688 87.207 54.0757 85.2326 56.286 84.2388C56.3408 84.2137 56.3987 84.1886 56.455 84.165C56.4372 84.2284 56.4194 84.2904 56.4016 84.3538C56.1645 85.2035 55.9969 86.0709 55.9006 86.9475C55.8917 87.0153 55.8843 87.0831 55.8783 87.1524C55.6677 89.2665 55.8547 91.4012 56.4298 93.4472C56.4313 93.4516 56.4327 93.4575 56.4342 93.462C56.5603 93.9146 56.7065 94.3604 56.873 94.7993C57.0035 95.1459 57.1443 95.4879 57.2985 95.8241C57.9419 97.2353 58.8046 98.7393 58.4044 100.236Z" fill="#E6E6E6"/>
<path d="M56.495 84.2314C56.4639 84.2727 56.4327 84.3125 56.4016 84.3538C55.7505 85.2121 55.1976 86.1399 54.7532 87.12C54.7294 87.1687 54.7072 87.2173 54.6879 87.2675C54.079 88.6361 53.6879 90.0907 53.5287 91.579C53.527 91.5892 53.526 91.5996 53.5257 91.61C53.4887 91.9579 53.4664 92.3089 53.4575 92.6598C53.4246 93.3176 53.4961 93.9765 53.6695 94.6121C53.8276 95.1312 54.1047 95.6066 54.4789 96.0011C54.516 96.0409 54.553 96.0807 54.5931 96.1191C54.6227 96.15 54.6553 96.181 54.6864 96.2105C54.9859 96.4951 55.3135 96.759 55.5952 97.0642C55.7243 97.2011 55.8409 97.3491 55.9435 97.5066C56.1074 97.7705 56.2133 98.0659 56.2542 98.3734C56.2951 98.6809 56.27 98.9936 56.1807 99.2908C55.9791 100.037 55.5181 100.667 55.0467 101.267C54.811 101.567 54.5679 101.871 54.3574 102.193C54.2803 102.308 54.2091 102.424 54.1439 102.544H53.9571C54.0194 102.424 54.0876 102.308 54.1617 102.193C54.7028 101.345 55.4721 100.616 55.8709 99.683C56.1407 99.0534 56.2222 98.3397 55.8813 97.7219C55.7814 97.5422 55.6604 97.3749 55.5211 97.2235C55.2498 96.9183 54.9251 96.6573 54.6301 96.3815C54.556 96.3122 54.4834 96.2414 54.4137 96.1677C54.0443 95.7944 53.7593 95.347 53.5776 94.8554C53.3719 94.231 53.2746 93.5763 53.29 92.9193C53.29 92.5006 53.3123 92.0789 53.3538 91.6601C53.3582 91.607 53.3641 91.5524 53.3701 91.4979C53.6732 88.8627 54.6801 86.3562 56.286 84.2388C56.3157 84.1975 56.3468 84.1577 56.3779 84.1179C56.4416 84.0353 56.5587 84.1503 56.495 84.2314Z" fill="white"/>
<path d="M53.4299 91.674C52.9165 91.5882 52.4504 91.3237 52.1149 90.9276C51.7794 90.5316 51.5964 90.0298 51.5985 89.5119C51.5988 89.4908 51.6073 89.4706 51.6223 89.4556C51.6372 89.4406 51.6574 89.432 51.6787 89.4315C51.6999 89.4311 51.7205 89.4388 51.7361 89.4532C51.7517 89.4675 51.7611 89.4873 51.7623 89.5084C51.7594 89.9906 51.9299 90.458 52.2431 90.8262C52.5562 91.1943 52.9914 91.439 53.47 91.5161C53.574 91.533 53.5333 91.6908 53.4299 91.674V91.674Z" fill="white"/>
<path d="M54.4378 96.0308C55.3101 95.4243 55.9206 94.513 56.1475 93.4787C56.1699 93.3762 56.3286 93.4162 56.3062 93.5185C56.0681 94.5945 55.4309 95.5415 54.5217 96.1707C54.435 96.2306 54.3515 96.0904 54.4378 96.0308V96.0308Z" fill="white"/>
<path d="M54.7041 87.1028C54.8959 87.1771 55.1032 87.203 55.3074 87.178C55.5116 87.153 55.7064 87.0779 55.8743 86.9595C55.9602 86.8985 56.0436 87.0388 55.9582 87.0993C55.7721 87.2293 55.5569 87.3119 55.3313 87.3401C55.1057 87.3682 54.8767 87.3409 54.6641 87.2607C54.6434 87.2548 54.6258 87.2413 54.6148 87.2229C54.6037 87.2046 54.6001 87.1827 54.6047 87.1618C54.6101 87.1409 54.6236 87.123 54.6422 87.112C54.6609 87.1009 54.6831 87.0976 54.7041 87.1028Z" fill="white"/>
<path d="M67.6161 89.9334C67.5642 89.9732 67.5109 90.013 67.459 90.0543C66.7552 90.5901 66.0963 91.1818 65.4889 91.8237C65.4414 91.8724 65.394 91.9225 65.348 91.9727L65.3465 91.9741C63.9062 93.5294 62.7674 95.336 61.9874 97.3031L61.9829 97.3164C61.9814 97.3208 61.98 97.3237 61.9785 97.3282C61.6693 98.1155 61.4201 98.9248 61.2328 99.7493C61.052 100.554 60.9037 101.417 60.6206 102.193C60.5776 102.312 60.5302 102.43 60.4798 102.544H53.8889C53.9112 102.427 53.9349 102.309 53.9586 102.193C54.2939 100.484 54.8179 98.8176 55.5211 97.2235C55.5448 97.1704 55.5685 97.1173 55.5952 97.0642C55.9582 96.2766 56.3851 95.5196 56.8715 94.8008C56.8715 94.8006 56.8716 94.8004 56.8716 94.8003C56.8717 94.8001 56.8718 94.7999 56.872 94.7998C56.8721 94.7996 56.8723 94.7995 56.8725 94.7995C56.8726 94.7994 56.8728 94.7993 56.873 94.7993C57.1402 94.4072 57.4271 94.0287 57.7328 93.6654C58.5257 92.7272 59.4622 91.9191 60.5079 91.2708C60.5139 91.2664 60.5213 91.2634 60.5272 91.259C62.6085 89.9747 65.0753 89.3628 67.4338 89.8921H67.4353C67.4961 89.9054 67.5553 89.9186 67.6161 89.9334Z" fill="#E6E6E6"/>
<path d="M67.6088 90.0116C67.5584 90.0248 67.5079 90.0396 67.459 90.0543C66.4201 90.3496 65.4173 90.7586 64.469 91.2738C64.4216 91.2988 64.3741 91.3254 64.3267 91.3519C63.0162 92.0795 61.8266 93.0041 60.8 94.0931C60.7992 94.0939 60.7987 94.0949 60.7985 94.096C60.7867 94.1078 60.7733 94.1211 60.7629 94.1329C60.5257 94.3865 60.2975 94.6505 60.081 94.9218C59.6577 95.4276 59.3165 95.9963 59.07 96.6072C58.8816 97.1162 58.8152 97.662 58.8758 98.2011C58.8803 98.2557 58.8877 98.3088 58.8951 98.3633C58.901 98.4061 58.9069 98.4488 58.9144 98.4931C59.0122 99.0844 59.1812 99.6771 59.1338 100.28C59.1049 100.589 59.0106 100.889 58.857 101.159C58.7035 101.429 58.4941 101.664 58.2428 101.848C58.072 101.979 57.8894 102.095 57.6973 102.193C57.4227 102.333 57.1365 102.451 56.8419 102.544H56.2593C56.3379 102.521 56.415 102.499 56.4936 102.477C56.7724 102.399 57.0461 102.304 57.3133 102.193C57.466 102.129 57.6145 102.056 57.7581 101.974C58.354 101.634 58.8506 101.112 58.9544 100.414C59.0448 99.8039 58.8699 99.1935 58.7661 98.5963C58.7483 98.4931 58.732 98.3913 58.7231 98.2896C58.6523 97.7725 58.6953 97.2462 58.8491 96.7472C59.0624 96.1248 59.3813 95.5433 59.792 95.0279C60.046 94.6924 60.3171 94.37 60.6043 94.0621C60.6399 94.0223 60.677 93.9825 60.7155 93.9427C61.7637 92.8459 62.9739 91.9146 64.3045 91.1809H64.3059C65.2953 90.6331 66.3448 90.2006 67.4338 89.8921H67.4353C67.4842 89.8774 67.5346 89.8627 67.5836 89.8494C67.6858 89.8228 67.7096 89.9836 67.6088 90.0116Z" fill="white"/>
<path d="M60.6568 94.118C60.2988 93.742 60.0868 93.2517 60.0586 92.7346C60.0305 92.2174 60.1881 91.7072 60.5032 91.295C60.5673 91.2118 60.7003 91.3069 60.6361 91.3902C60.3419 91.7735 60.1952 92.2488 60.2224 92.7303C60.2496 93.2118 60.4489 93.6678 60.7844 94.0159C60.8572 94.0917 60.7292 94.1933 60.6568 94.118Z" fill="white"/>
<path d="M58.8245 98.2002C59.8881 98.2384 60.9271 97.8764 61.7344 97.1864C61.8143 97.118 61.9168 97.2449 61.837 97.3133C60.9956 98.0297 59.9136 98.4043 58.8069 98.3622C58.7014 98.3581 58.7196 98.1962 58.8245 98.2002Z" fill="white"/>
<path d="M64.4412 91.2313C64.5492 91.4055 64.6991 91.5502 64.8773 91.6526C65.0555 91.7549 65.2565 91.8116 65.4622 91.8176C65.5677 91.8204 65.5494 91.9823 65.4446 91.9795C65.2173 91.9719 64.9955 91.909 64.7983 91.7963C64.6012 91.6837 64.4347 91.5247 64.3136 91.3334C64.3007 91.3163 64.2947 91.2949 64.2971 91.2737C64.2994 91.2524 64.3097 91.2328 64.3261 91.2189C64.343 91.2054 64.3646 91.1992 64.3862 91.2015C64.4077 91.2038 64.4275 91.2145 64.4412 91.2313Z" fill="white"/>
<path d="M65.5328 60.087C66.5153 60.087 67.3117 59.2948 67.3117 58.3176C67.3117 57.3404 66.5153 56.5482 65.5328 56.5482C64.5503 56.5482 63.7539 57.3404 63.7539 58.3176C63.7539 59.2948 64.5503 60.087 65.5328 60.087Z" fill="#F2F2F2"/>
<path d="M87.6315 38.8918C88.614 38.8918 89.4104 38.0996 89.4104 37.1224C89.4104 36.1452 88.614 35.353 87.6315 35.353C86.649 35.353 85.8526 36.1452 85.8526 37.1224C85.8526 38.0996 86.649 38.8918 87.6315 38.8918Z" fill="#F2F2F2"/>
<path d="M26.5566 3.53887C27.5391 3.53887 28.3355 2.74667 28.3355 1.76943C28.3355 0.792203 27.5391 0 26.5566 0C25.5742 0 24.7777 0.792203 24.7777 1.76943C24.7777 2.74667 25.5742 3.53887 26.5566 3.53887Z" fill="#F2F2F2"/>
<path d="M0.184859 102.826H110.815C110.864 102.826 110.911 102.806 110.946 102.772C110.981 102.737 111 102.69 111 102.642C111 102.593 110.981 102.546 110.946 102.512C110.911 102.477 110.864 102.458 110.815 102.458H0.184859C0.135832 102.458 0.088813 102.477 0.0541454 102.512C0.0194778 102.546 0 102.593 0 102.642C0 102.69 0.0194778 102.737 0.0541454 102.772C0.088813 102.806 0.135832 102.826 0.184859 102.826Z" fill="#CCCCCC"/>
<path opacity="0.2" d="M67.7459 18.7056C68.5563 20.0836 68.8472 21.7035 68.5665 23.2753C68.2858 24.8471 67.452 26.2683 66.2141 27.2844C64.9763 28.3005 63.4153 28.8453 61.8105 28.8213C60.2057 28.7972 58.6619 28.2059 57.4554 27.1531C57.9494 27.9945 58.6213 28.7191 59.4246 29.2767C60.2279 29.8342 61.1435 30.2114 62.1079 30.3822C63.0723 30.553 64.0625 30.5132 65.0099 30.2656C65.9573 30.0181 66.8393 29.5686 67.5948 28.9484C68.3503 28.3282 68.9612 27.5521 69.3853 26.6738C69.8094 25.7955 70.0365 24.836 70.0509 23.8618C70.0653 22.8875 69.8666 21.9218 69.4686 21.0315C69.0706 20.1412 68.4828 19.3476 67.7459 18.7056Z" fill="#231F20"/>
<path opacity="0.2" d="M76.0445 9.53455C81.5933 16.6707 82.5504 26.9266 76.4021 33.8186C69.5327 41.5189 49.3317 43.1997 35.4143 56.4994C35.646 57.8864 35.9805 59.2545 36.4151 60.5924C50.3394 45.9628 71.7313 44.4426 78.8412 36.4727C85.8033 28.6685 83.6546 16.5512 76.0445 9.53455Z" fill="#231F20"/>
</g>
<defs>
<clipPath id="clip0_8_4411">
<rect width="111" height="103" fill="white"/>
</clipPath>
</defs>
</svg>
