<svg width="160" height="160" viewBox="0 0 160 160" fill="none" xmlns="http://www.w3.org/2000/svg">
<g clip-path="url(#clip0_8_4067)">
<path d="M139.129 147.591C147.136 147.591 153.627 138.885 153.627 128.145C153.627 117.405 147.136 108.699 139.129 108.699C131.122 108.699 124.631 117.405 124.631 128.145C124.631 138.885 131.122 147.591 139.129 147.591Z" fill="#2F2E41"/>
<path d="M128.801 152.096L124.795 149.641L128.392 138.344L132.398 140.799L128.801 152.096Z" fill="#2F2E41"/>
<path d="M140.41 145.709L136.404 143.254L133.125 152.881L137.131 155.336L140.41 145.709Z" fill="#2F2E41"/>
<path d="M137.748 159.638C138.367 159.047 137.916 156.772 136.74 154.557C135.565 152.342 134.11 151.026 133.491 151.617C132.871 152.208 133.322 154.483 134.498 156.698C135.673 158.913 137.128 160.229 137.748 159.638Z" fill="#2F2E41"/>
<path d="M129.585 156.5C130.205 155.909 129.754 153.634 128.578 151.419C127.402 149.204 125.947 147.888 125.328 148.479C124.709 149.07 125.16 151.345 126.335 153.56C127.511 155.775 128.966 157.092 129.585 156.5Z" fill="#2F2E41"/>
<path d="M140.988 130.518C143.724 130.518 145.943 127.542 145.943 123.871C145.943 120.201 143.724 117.225 140.988 117.225C138.251 117.225 136.033 120.201 136.033 123.871C136.033 127.542 138.251 130.518 140.988 130.518Z" fill="white"/>
<path d="M139.2 123.101C140.112 123.101 140.851 122.109 140.851 120.885C140.851 119.662 140.112 118.67 139.2 118.67C138.288 118.67 137.548 119.662 137.548 120.885C137.548 122.109 138.288 123.101 139.2 123.101Z" fill="#3F3D56"/>
<path d="M131.94 103.857C133.054 96.8084 138.659 92.4312 144.459 94.0802C150.259 95.7293 154.058 102.78 152.945 109.829C151.831 116.877 147.539 117.099 141.739 115.45C135.939 113.801 130.826 110.906 131.94 103.857Z" fill="#CFCCE0"/>
<path d="M160 129.379C160.03 127.694 156.81 126.223 152.808 126.093C148.806 125.964 145.537 127.225 145.506 128.91C145.476 130.595 148.696 132.067 152.698 132.196C156.7 132.326 159.969 131.065 160 129.379Z" fill="#2F2E41"/>
<path d="M131.254 126.107C131.284 124.421 128.065 122.95 124.062 122.821C120.06 122.691 116.791 123.952 116.761 125.637C116.73 127.323 119.95 128.794 123.953 128.923C127.955 129.053 131.224 127.792 131.254 126.107Z" fill="#2F2E41"/>
<path d="M133.86 134.252C133.496 135.321 133.463 136.54 133.769 137.641C134.075 138.742 134.695 139.635 135.492 140.124C136.289 140.612 137.197 140.656 138.018 140.245C138.839 139.835 139.505 139.004 139.869 137.935C140.627 135.709 139.439 134.424 137.78 133.407C136.12 132.39 134.618 132.027 133.86 134.252Z" fill="white"/>
<path d="M40.7506 77.5726C36.5719 76.1376 33.8007 71.7452 33.8007 71.7452C33.8007 71.7452 37.8046 69.6792 41.9833 71.1142C46.162 72.5491 48.9332 76.9415 48.9332 76.9415C48.9332 76.9415 44.9294 79.0075 40.7506 77.5726Z" fill="#0055D3"/>
<path d="M33.2627 70.3212L33.5238 70.1864C33.5644 70.1655 37.6354 68.1065 41.8271 69.5458C46.0188 70.9854 48.8514 75.4146 48.8795 75.4592L49.0602 75.7456L48.799 75.8803C48.7584 75.9012 44.6875 77.9602 40.4958 76.5209C36.304 75.0814 33.4716 70.6521 33.4434 70.6075L33.2627 70.3212ZM48.3775 75.5113C47.6764 74.5138 45.1729 71.2455 41.7285 70.0624C38.2804 68.8785 34.917 70.1322 33.9453 70.5555C34.6465 71.5529 37.1498 74.8213 40.5944 76.0043C44.0426 77.1882 47.406 75.9345 48.3775 75.5113Z" fill="#3F3D56"/>
<path d="M10.4171 24.0709L9.04712 31.7277L17.2671 34.1778C17.2671 34.1778 16.5821 25.6023 17.2671 24.6835L10.4171 24.0709Z" fill="#A0616A"/>
<path d="M13.7279 29.1244C16.8805 29.1244 19.4362 25.6963 19.4362 21.4676C19.4362 17.2389 16.8805 13.8109 13.7279 13.8109C10.5753 13.8109 8.01959 17.2389 8.01959 21.4676C8.01959 25.6963 10.5753 29.1244 13.7279 29.1244Z" fill="#A0616A"/>
<path d="M19.3895 19.1739C19.3895 19.1739 19.9897 10.4818 13.3014 13.6408C13.3014 13.6408 8.43968 12.6817 7.06982 20.8614L8.63166 28.7775L8.9402 30.5176L19.3519 31.4115C19.3519 31.4115 14.6077 27.9464 14.3594 21.3436L15.2777 22.5561L19.3895 19.1739Z" fill="#2F2E41"/>
<path d="M9.38959 80.5777C9.38959 80.5777 14.4129 90.0721 17.8379 92.5223L29.2545 113.349L26.2861 151.632C26.2861 151.632 33.5928 158.064 43.411 148.876L40.4427 107.223L27.4278 76.9025L9.38959 80.5777Z" fill="#2F2E41"/>
<path d="M29.103 151.558C29.103 151.558 25.6654 159.145 30.7208 159.605C35.7762 160.065 39.0116 158.456 40.6293 159.605C42.2471 160.755 48.3135 159.375 47.7069 155.697C47.1003 152.018 39.2138 149.488 39.2138 149.488L29.103 151.558Z" fill="#2F2E41"/>
<path d="M6.13911 68.163C6.13911 68.163 7.94199 79.5514 10.3612 83.6231L14.681 108.816L0.632996 142.378C0.632996 142.378 5.43768 152.17 17.1678 148.961L26.7628 109.147L23.784 74.3884L6.13911 68.163Z" fill="#2F2E41"/>
<path d="M3.24739 142.652C3.24739 142.652 -1.98657 147.713 2.50963 151.232C7.00582 154.752 10.4079 155.208 11.5705 157.28C12.7331 159.353 18.6606 161.754 19.1194 157.912C19.5782 154.071 13.0633 146.871 13.0633 146.871L3.24739 142.652Z" fill="#2F2E41"/>
<path d="M30.967 80.1183C30.967 81.6497 17.7237 85.9375 9.73211 84.4061C5.9715 83.6864 4.48734 77.7417 3.96673 71.653C3.79132 69.4836 3.70974 67.3024 3.7224 65.1203C3.72698 63.7114 3.76126 62.4159 3.80691 61.3164C3.89593 59.1603 4.02381 57.7606 4.02381 57.7606L3.61738 54.7683L3.12649 51.1482L2.26796 44.8084L2.19716 44.2847C-2.14115 41.5283 1.28383 28.3587 1.28383 27.1336C1.28383 25.9085 6.99213 28.0524 6.99213 28.0524L8.13379 25.9085L11.7871 27.4399L15.7669 24.5487L19.5504 31.4214C19.5504 31.4214 20.8953 34.2115 22.5118 38.389C23.1945 40.1562 23.9252 42.1714 24.6239 44.3276C24.9847 45.4424 25.3363 46.5971 25.6674 47.7762C26.1081 49.3382 26.5145 50.943 26.857 52.554C26.9529 53.0012 27.0465 53.4544 27.1401 53.9139C27.373 55.0654 27.6014 56.2599 27.8205 57.4758C28.1973 59.54 28.5512 61.6655 28.88 63.7512C30.129 71.7234 30.967 79.0801 30.967 80.1183Z" fill="#3F3D56"/>
<path d="M8.13382 25.296C8.13382 25.296 13.6138 14.5765 19.5504 17.9455C19.5504 17.9455 19.0937 10.9013 15.4404 10.2888C11.7871 9.67622 9.73214 8.14487 9.73214 8.14487L6.5355 10.2888V16.1079C6.5355 16.1079 6.30715 24.0709 8.13382 25.296Z" fill="#3F3D56"/>
<path d="M6.42132 11.0544C8.18678 11.0544 9.61796 9.13474 9.61796 6.76666C9.61796 4.39859 8.18678 2.47888 6.42132 2.47888C4.65586 2.47888 3.22467 4.39859 3.22467 6.76666C3.22467 9.13474 4.65586 11.0544 6.42132 11.0544Z" fill="#CFCCE0"/>
<path d="M24.6239 44.3276L3.12648 51.1482L2.26794 44.8085L22.5118 38.389C23.1945 40.1562 23.9252 42.1715 24.6239 44.3276Z" fill="#CFCCE0"/>
<path d="M3.8069 61.3164C3.89593 59.1603 4.02381 57.7606 4.02381 57.7606L3.61737 54.7684L25.6674 47.7762C26.1081 49.3382 26.5145 50.9431 26.857 52.554C26.9529 53.0012 27.0465 53.4545 27.1401 53.9139L3.8069 61.3164Z" fill="#CFCCE0"/>
<path d="M28.88 63.7512L3.96674 71.653C3.79132 69.4836 3.70974 67.3023 3.72241 65.1203L27.8206 57.4758C28.1973 59.54 28.5512 61.6655 28.88 63.7512Z" fill="#CFCCE0"/>
<path d="M31.8803 66.9487C31.8803 66.9487 36.6753 66.3362 35.7619 71.2365C34.8486 76.1368 29.3687 73.0741 29.3687 73.0741L31.8803 66.9487Z" fill="#A0616A"/>
<path d="M33.9353 66.0299L30.967 74.9117C30.967 74.9117 29.855 74.3543 28.1699 73.4998C27.6493 73.2364 27.0739 72.9455 26.4597 72.6331C26.1446 72.4708 25.8181 72.3054 25.4847 72.1339C24.9345 71.8552 24.3613 71.5611 23.7768 71.261C23.4571 71.0956 23.1306 70.9272 22.8041 70.7587C22.2401 70.4647 21.6693 70.1707 21.1008 69.8736C16.9383 67.7083 12.8557 65.5093 12.0154 64.8048C10.7642 63.7543 6.93962 54.6581 4.6563 49.0289C3.89025 47.1726 3.45791 45.102 3.39369 42.9821C3.32948 40.8622 3.63516 38.7514 4.2864 36.8179C5.58334 33.0569 7.44194 32.2575 9.12249 32.5454C11.4058 32.9374 13.1936 35.3845 13.5704 38.4289L15.4404 53.4728L24.7997 59.8279L26.4232 60.9305L27.3502 61.5584L28.9736 62.6609L29.8984 63.2888L31.5218 64.3914L33.9353 66.0299Z" fill="#3F3D56"/>
<path opacity="0.1" d="M2.88214 40.9158C2.88214 40.9158 5.39379 28.3587 11.3304 30.8089C11.3304 30.8089 5.39379 31.1151 2.88214 40.9158Z" fill="black"/>
<path d="M26.4232 60.9305L22.8041 70.7587C22.2401 70.4647 21.6693 70.1707 21.1008 69.8736L24.7997 59.8279L26.4232 60.9305Z" fill="#CFCCE0"/>
<path d="M28.9736 62.6609L25.4847 72.1339C24.9345 71.8551 24.3613 71.5611 23.7768 71.261L27.3502 61.5583L28.9736 62.6609Z" fill="#CFCCE0"/>
<path d="M31.5218 64.3914L28.1699 73.4998C27.6493 73.2364 27.0739 72.9455 26.4597 72.6331L29.8984 63.2888L31.5218 64.3914Z" fill="#CFCCE0"/>
<path d="M135.727 110.53C135.74 146.962 119.598 159.691 99.6823 159.704C99.2197 159.704 98.7593 159.698 98.3011 159.684C97.3781 159.658 96.4647 159.602 95.5609 159.517C77.5854 157.821 63.6141 144.458 63.6019 110.577C63.5892 75.5149 96.9819 31.2448 99.4863 27.9714C99.4885 27.9714 99.4885 27.9714 99.4907 27.9684C99.5858 27.8437 99.6345 27.7813 99.6345 27.7813C99.6345 27.7813 135.714 74.1022 135.727 110.53Z" fill="#0055D3"/>
<path d="M98.3677 154.132L111.548 129.405L98.3355 156.846L98.3011 159.684C97.3781 159.658 96.4647 159.602 95.5609 159.517L96.9687 123.07L96.9575 122.788L96.9818 122.734L97.1156 119.29L83.8497 91.7979L97.1545 116.71L97.188 117.44L98.2515 89.9033L86.8932 61.4924L98.3892 85.0639L99.4863 27.9714L99.4906 27.7814L99.4907 27.9684L99.3211 72.9918L110.61 55.1355L99.2738 76.8692L98.9839 101.526L109.527 77.8571L98.9432 105.151L98.7822 118.861L114.082 85.9146L98.7241 123.644L98.3677 154.132Z" fill="#3F3D56"/>
<path d="M45.9777 6.76057C46.4417 6.76057 46.8178 6.2561 46.8178 5.63381C46.8178 5.01152 46.4417 4.50705 45.9777 4.50705C45.5138 4.50705 45.1377 5.01152 45.1377 5.63381C45.1377 6.2561 45.5138 6.76057 45.9777 6.76057Z" fill="#CFCCE0"/>
<path d="M53.202 39.4366C53.6659 39.4366 54.042 38.9322 54.042 38.3099C54.042 37.6876 53.6659 37.1831 53.202 37.1831C52.738 37.1831 52.3619 37.6876 52.3619 38.3099C52.3619 38.9322 52.738 39.4366 53.202 39.4366Z" fill="#CFCCE0"/>
<path d="M104.948 47.0986C105.412 47.0986 105.788 46.5941 105.788 45.9718C105.788 45.3495 105.412 44.8451 104.948 44.8451C104.484 44.8451 104.108 45.3495 104.108 45.9718C104.108 46.5941 104.484 47.0986 104.948 47.0986Z" fill="#CFCCE0"/>
<path d="M140.397 83.1549C140.861 83.1549 141.237 82.6505 141.237 82.0282C141.237 81.4059 140.861 80.9014 140.397 80.9014C139.933 80.9014 139.557 81.4059 139.557 82.0282C139.557 82.6505 139.933 83.1549 140.397 83.1549Z" fill="#CFCCE0"/>
<path d="M118.388 108.845C118.852 108.845 119.228 108.341 119.228 107.718C119.228 107.096 118.852 106.592 118.388 106.592C117.924 106.592 117.548 107.096 117.548 107.718C117.548 108.341 117.924 108.845 118.388 108.845Z" fill="#CFCCE0"/>
<path d="M70.6745 117.183C71.1384 117.183 71.5145 116.679 71.5145 116.056C71.5145 115.434 71.1384 114.93 70.6745 114.93C70.2106 114.93 69.8345 115.434 69.8345 116.056C69.8345 116.679 70.2106 117.183 70.6745 117.183Z" fill="#CFCCE0"/>
<path d="M94.5313 4.95775C95.5519 4.95775 96.3793 3.84792 96.3793 2.47887C96.3793 1.10983 95.5519 0 94.5313 0C93.5106 0 92.6832 1.10983 92.6832 2.47887C92.6832 3.84792 93.5106 4.95775 94.5313 4.95775Z" fill="#CFCCE0"/>
<path d="M87.6431 133.634C88.6638 133.634 89.4912 132.524 89.4912 131.155C89.4912 129.786 88.6638 128.676 87.6431 128.676C86.6224 128.676 85.795 129.786 85.795 131.155C85.795 132.524 86.6224 133.634 87.6431 133.634Z" fill="#CFCCE0"/>
<path d="M129.98 45.7465C131.001 45.7465 131.829 44.6366 131.829 43.2676C131.829 41.8986 131.001 40.7887 129.98 40.7887C128.96 40.7887 128.132 41.8986 128.132 43.2676C128.132 44.6366 128.96 45.7465 129.98 45.7465Z" fill="#CFCCE0"/>
<path d="M77.8987 82.0282C78.9194 82.0282 79.7468 80.9184 79.7468 79.5493C79.7468 78.1803 78.9194 77.0704 77.8987 77.0704C76.8781 77.0704 76.0507 78.1803 76.0507 79.5493C76.0507 80.9184 76.8781 82.0282 77.8987 82.0282Z" fill="#CFCCE0"/>
<path d="M146.783 159.549H2.80219V160H146.783V159.549Z" fill="#3F3D56"/>
</g>
<defs>
<clipPath id="clip0_8_4067">
<rect width="160" height="160" fill="white"/>
</clipPath>
</defs>
</svg>
