<svg width="540" height="419" viewBox="0 0 540 419" fill="none" xmlns="http://www.w3.org/2000/svg">
<g clip-path="url(#clip0_8_4167)">
<path d="M491.803 131.341C496.688 129.204 486.781 127.96 475.542 127.551C464.303 127.142 450.706 127.164 443.524 126.001C436.577 124.875 437.089 122.875 436.505 121.062C435.921 119.249 433.25 117.39 422.411 116.987C408.903 116.485 386.629 118.418 376.433 117.257C366.918 116.174 372.574 112.778 358.699 112.647C350.776 112.573 340.569 113.693 331.753 113.963C323.476 114.217 317.353 113.692 313.056 112.985C308.759 112.279 305.767 111.383 300.931 110.759C288.234 109.121 263.393 109.672 241.222 111.771C219.051 113.871 200.046 117.312 189.328 120.72C178.61 124.128 175.649 127.484 178.146 130.329C179.74 132.146 183.819 133.845 193.716 134.575C212.226 135.941 245.182 133.59 264.309 134.833C274.969 135.525 279.698 137.242 289.052 138.182C299.1 139.191 313.811 139.244 328.263 139.22C358.356 139.171 389.218 138.86 420.689 138.291C433.833 138.054 447.606 137.745 461.593 136.612C475.58 135.48 489.846 133.294 492.797 131.246" fill="#F2F2F2"/>
<path d="M534.528 307.603C529.178 318.447 520.733 327.923 511.026 335.234C496.146 346.444 478.434 353.18 460.707 358.864C360.586 390.98 251.223 393.461 149.76 365.921C121.692 358.305 93.4827 348.015 71.6519 328.742C64.6642 322.57 58.5697 315.45 53.5447 307.587C82.6002 291.563 117.816 285.523 151.421 286.26C199.597 287.318 246.648 300.221 294.373 306.896C350.576 314.746 407.643 313.957 463.61 304.557C483.024 301.288 503.117 297.013 522.121 302.188C526.49 303.399 530.667 305.221 534.528 307.603V307.603Z" fill="#F2F2F2"/>
<path d="M508.498 379.691C507.689 381.97 506.364 384.03 504.627 385.708C502.013 388.29 498.728 390.072 495.413 391.648C476.548 400.579 455.528 403.895 434.843 401.205C429.16 400.455 423.379 399.186 418.61 395.995C417.084 394.973 415.707 393.742 414.52 392.338C419.779 388.442 426.502 386.336 433.087 385.596C442.527 384.536 452.057 385.82 461.557 385.869C472.743 385.925 483.872 384.27 494.562 380.961C498.27 379.812 502.084 378.448 505.932 378.96C506.818 379.081 507.681 379.327 508.498 379.691Z" fill="#F2F2F2"/>
<path d="M189.593 387.5C188.081 389.384 186.154 390.891 183.963 391.902C180.648 393.476 176.961 394.073 173.314 394.466C152.571 396.665 131.634 392.85 112.985 383.475C107.866 380.889 102.824 377.781 99.3683 373.192C98.2623 371.722 97.3663 370.105 96.7061 368.387C102.95 366.447 109.989 366.679 116.449 368.157C125.711 370.275 134.289 374.636 143.242 377.822C153.786 381.571 164.838 383.686 176.017 384.094C179.895 384.234 183.944 384.207 187.41 385.961C188.206 386.369 188.941 386.887 189.593 387.5Z" fill="#F2F2F2"/>
<path d="M332.833 403.761C331.73 405.911 330.144 407.776 328.2 409.208C325.267 411.418 321.775 412.746 318.28 413.866C298.4 420.2 277.127 420.683 256.982 415.257C251.448 413.756 245.887 411.727 241.584 407.928C240.206 406.711 239.005 405.308 238.014 403.758C243.742 400.599 250.684 399.408 257.309 399.553C266.806 399.762 276.082 402.305 285.49 403.621C296.57 405.169 307.82 405.013 318.853 403.16C322.68 402.516 326.641 401.673 330.387 402.693C331.249 402.932 332.072 403.291 332.833 403.761V403.761Z" fill="#F2F2F2"/>
<path d="M355.19 276.314L340.894 269.985V264.544L345.989 264.515C346.78 264.511 347.549 264.258 348.189 263.792C348.829 263.326 349.308 262.671 349.558 261.919L353.137 251.144C353.327 250.573 353.378 249.965 353.288 249.371C353.197 248.776 352.967 248.211 352.617 247.723C352.266 247.235 351.805 246.837 351.271 246.563C350.738 246.289 350.147 246.146 349.547 246.146H340.894V241.083H351.757C352.613 241.083 353.444 240.791 354.114 240.256C354.784 239.721 355.253 238.974 355.445 238.136L357.91 227.377C358.037 226.821 358.038 226.242 357.912 225.686C357.786 225.129 357.536 224.608 357.182 224.161C356.828 223.714 356.377 223.354 355.865 223.106C355.352 222.858 354.791 222.729 354.222 222.729H340.894V221.463C340.894 220.792 340.629 220.148 340.156 219.673C339.682 219.198 339.041 218.932 338.372 218.932C337.703 218.932 337.061 219.198 336.588 219.673C336.115 220.148 335.849 220.792 335.849 221.463V222.729H246.5V221.463C246.5 220.792 246.234 220.148 245.761 219.673C245.288 219.198 244.647 218.932 243.977 218.932C243.308 218.932 242.667 219.198 242.194 219.673C241.721 220.148 241.455 220.792 241.455 221.463V222.729H230.861C230.292 222.729 229.73 222.858 229.217 223.106C228.705 223.354 228.255 223.714 227.9 224.161C227.546 224.608 227.296 225.129 227.17 225.686C227.044 226.242 227.045 226.821 227.173 227.377L229.637 238.136C229.829 238.974 230.298 239.721 230.968 240.256C231.638 240.791 232.469 241.083 233.325 241.083H241.455V246.146H235.535C234.939 246.146 234.351 246.287 233.819 246.559C233.288 246.83 232.827 247.224 232.476 247.707C232.125 248.191 231.893 248.751 231.799 249.342C231.704 249.933 231.75 250.538 231.933 251.108L235.586 262.484C235.833 263.253 236.317 263.922 236.969 264.395C237.62 264.869 238.405 265.122 239.209 265.117L241.455 265.104V269.985L229.892 276.314C229.395 276.314 228.903 276.412 228.444 276.603C227.985 276.794 227.568 277.073 227.216 277.426C226.865 277.778 226.586 278.197 226.396 278.658C226.206 279.119 226.108 279.612 226.108 280.111C226.108 281.118 226.506 282.084 227.216 282.796C227.926 283.508 228.888 283.908 229.892 283.908H241.455V311.755C241.455 312.427 241.721 313.071 242.194 313.546C242.667 314.02 243.308 314.287 243.977 314.287C244.647 314.287 245.288 314.02 245.761 313.546C246.234 313.071 246.5 312.427 246.5 311.755V283.908H335.849V311.755C335.849 312.427 336.115 313.071 336.588 313.546C337.061 314.02 337.703 314.287 338.372 314.287C339.041 314.287 339.682 314.02 340.156 313.546C340.629 313.071 340.894 312.427 340.894 311.755V283.908H355.19C356.194 283.908 357.156 283.508 357.866 282.796C358.576 282.084 358.974 281.118 358.974 280.111C358.974 279.612 358.877 279.119 358.686 278.658C358.496 278.197 358.217 277.778 357.866 277.426C357.515 277.073 357.097 276.794 356.638 276.603C356.179 276.412 355.687 276.314 355.19 276.314V276.314ZM246.5 241.083H335.849V246.146H246.5L246.5 241.083ZM246.5 269.985V265.076L335.849 264.572V269.985H246.5Z" fill="#F2F2F2"/>
<path d="M203.581 189.252C201.656 185.675 201.387 180.988 203.751 177.687C204.92 181.948 207.554 185.658 211.186 188.159C212.59 189.119 214.252 190.039 214.732 191.674C214.985 192.717 214.829 193.817 214.297 194.747C213.766 195.666 213.12 196.512 212.374 197.266L212.306 197.522C208.821 195.45 205.506 192.828 203.581 189.252Z" fill="#CCCCCC"/>
<path d="M285.656 196.369C283.731 192.793 283.462 188.105 285.826 184.804C286.995 189.066 289.628 192.776 293.261 195.277C294.665 196.236 296.326 197.156 296.807 198.792C297.06 199.834 296.904 200.934 296.372 201.865C295.841 202.783 295.195 203.63 294.449 204.384L294.381 204.64C290.896 202.567 287.581 199.946 285.656 196.369Z" fill="#CCCCCC"/>
<path d="M425.936 327.868C422.071 326.65 418.622 323.478 418.023 319.458C421.822 321.695 426.287 322.512 430.629 321.764C432.302 321.469 434.133 320.967 435.613 321.803C436.519 322.373 437.171 323.271 437.436 324.31C437.694 325.34 437.819 326.399 437.808 327.461L437.937 327.692C433.999 328.645 429.801 329.085 425.936 327.868Z" fill="#CCCCCC"/>
<path d="M433.029 337.527C429.164 336.31 425.715 333.137 425.116 329.117C428.915 331.354 433.38 332.171 437.722 331.423C439.395 331.129 441.226 330.626 442.706 331.462C443.612 332.033 444.264 332.93 444.529 333.97C444.787 335 444.912 336.059 444.901 337.121L445.03 337.352C441.092 338.304 436.894 338.744 433.029 337.527Z" fill="#CCCCCC"/>
<path d="M410.737 332.443C406.872 331.226 403.423 328.053 402.824 324.033C406.623 326.271 411.088 327.087 415.43 326.339C417.103 326.045 418.934 325.542 420.414 326.378C421.32 326.949 421.972 327.846 422.237 328.886C422.495 329.916 422.62 330.975 422.609 332.037L422.738 332.268C418.8 333.22 414.602 333.66 410.737 332.443Z" fill="#CCCCCC"/>
<path d="M427.963 321.258C424.098 320.041 420.648 316.868 420.049 312.848C423.849 315.086 428.314 315.903 432.655 315.154C434.329 314.86 436.159 314.357 437.64 315.193C438.545 315.764 439.198 316.662 439.463 317.701C439.72 318.731 439.845 319.79 439.835 320.852L439.964 321.083C436.026 322.035 431.828 322.475 427.963 321.258Z" fill="#CCCCCC"/>
<path d="M150.488 327.66C146.761 326.066 143.64 322.568 143.439 318.508C147 321.111 151.363 322.366 155.757 322.051C157.451 321.923 159.322 321.604 160.714 322.582C161.559 323.24 162.12 324.197 162.281 325.258C162.437 326.308 162.457 327.375 162.342 328.43L162.447 328.673C158.435 329.231 154.214 329.254 150.488 327.66Z" fill="#CCCCCC"/>
<path d="M176.729 277.204C174.804 273.628 174.536 268.94 176.899 265.639C178.068 269.901 180.702 273.611 184.334 276.112C185.739 277.071 187.4 277.992 187.88 279.627C188.133 280.669 187.977 281.769 187.445 282.7C186.914 283.618 186.268 284.465 185.523 285.219L185.455 285.475C181.97 283.402 178.654 280.781 176.729 277.204Z" fill="#CCCCCC"/>
<path d="M179.601 310.012C175.776 308.675 172.426 305.397 171.951 301.36C175.68 303.715 180.117 304.67 184.48 304.057C186.162 303.815 188.007 303.37 189.461 304.252C190.348 304.85 190.973 305.767 191.206 306.814C191.431 307.852 191.523 308.914 191.48 309.976L191.602 310.21C187.636 311.04 183.426 311.349 179.601 310.012Z" fill="#CCCCCC"/>
<path d="M186.694 297.302C182.868 295.965 179.519 292.687 179.044 288.65C182.772 291.005 187.21 291.96 191.573 291.347C193.255 291.105 195.1 290.66 196.554 291.542C197.441 292.14 198.066 293.057 198.299 294.104C198.524 295.142 198.616 296.204 198.573 297.266L198.694 297.501C194.729 298.33 190.519 298.639 186.694 297.302Z" fill="#CCCCCC"/>
<path d="M172.508 301.878C168.683 300.541 165.333 297.262 164.859 293.226C168.587 295.58 173.025 296.536 177.387 295.923C179.069 295.681 180.914 295.235 182.368 296.117C183.255 296.716 183.88 297.633 184.113 298.68C184.338 299.718 184.43 300.78 184.387 301.841L184.509 302.076C180.543 302.906 176.334 303.215 172.508 301.878Z" fill="#CCCCCC"/>
<path d="M30.2734 175.195C30.1544 175.195 30.0357 175.194 29.9162 175.193C23.6503 175.1 17.615 172.806 12.8602 168.71C8.10542 164.614 4.93208 158.975 3.89221 152.774C2.85235 146.573 4.01177 140.202 7.1688 134.77C10.3258 129.338 15.2806 125.188 21.1713 123.043C21.9545 122.765 22.6316 122.249 23.1078 121.566C23.584 120.883 23.8354 120.067 23.8269 119.234L23.8267 119.138C23.8263 116.991 24.0821 114.851 24.5883 112.765C24.7602 112.094 24.7518 111.389 24.5638 110.722C24.3758 110.055 24.015 109.45 23.5182 108.969C19.0248 104.728 15.4601 99.5958 13.051 93.8977C10.6419 88.1995 9.44118 82.0605 9.52512 75.8713C9.87492 51.7093 29.7588 32.0521 53.8497 32.0521L54.0657 32.0526C60.0566 32.0597 65.9829 33.2962 71.4802 35.686C76.9774 38.0758 81.9296 41.5685 86.0324 45.9494C88.0941 48.1331 90.576 49.8744 93.3278 51.0678C96.0796 52.2612 99.0441 52.8819 102.042 52.8924L102.127 53.1464L102.127 52.8922L102.303 52.8917C110.693 52.9166 118.905 55.3182 125.995 59.8202C133.085 64.3221 138.763 70.7415 142.378 78.3393C142.574 78.7584 142.883 79.1137 143.271 79.3644C143.658 79.6152 144.108 79.7513 144.57 79.7573L144.875 79.7635C152.795 79.9516 160.519 82.266 167.245 86.466C173.971 90.666 179.452 96.598 183.119 103.645C186.785 110.691 188.503 118.595 188.093 126.534C187.683 134.473 185.16 142.156 180.787 148.785C176.414 155.413 170.351 160.745 163.228 164.224C156.105 167.704 148.184 169.204 140.287 168.57C132.391 167.935 124.808 165.189 118.328 160.616C111.848 156.043 106.708 149.811 103.442 142.569C103.342 142.353 103.183 142.171 102.983 142.044C102.783 141.917 102.551 141.85 102.315 141.852C99.2683 141.853 96.2296 141.542 93.2462 140.922C82.3976 138.637 71.1139 139.699 60.878 143.969C60.5337 144.112 60.1858 144.248 59.8343 144.378C59.0379 144.667 58.3489 145.195 57.86 145.889C57.3711 146.583 57.1057 147.41 57.0995 148.26V148.313C57.0995 155.442 54.2775 162.279 49.2544 167.32C44.2312 172.361 37.4182 175.194 30.314 175.195H30.2734V175.195Z" fill="#CCCCCC"/>
<path d="M98.7239 310.929C97.1828 310.934 95.6638 310.561 94.2997 309.841C92.9356 309.121 91.768 308.077 90.8988 306.8C89.9418 305.418 89.3634 303.808 89.2214 302.131C89.0795 300.455 89.3789 298.77 90.0899 297.246C95.4344 285.596 97.3735 272.624 95.8529 258.69C92.1159 224.441 58.0336 170.986 57.6897 170.45L42.0426 150.47C38.4796 145.92 40.2295 141.037 43.3636 138.425C46.4471 135.855 51.4737 135.042 55.222 139.33C56.3065 140.479 57.1437 141.839 57.6814 143.327C58.7393 136.353 62.8637 104.837 55.5736 78.891C53.2931 70.7737 58.3608 65.1604 64.0341 63.3801C69.6045 61.6326 76.8228 63.3243 79.5113 71.1671C81.0684 75.7086 81.5651 80.8497 80.9882 86.4474C79.507 100.814 78.3882 114.204 77.6626 126.246C77.5798 127.622 77.9356 128.989 78.6787 130.148C79.4218 131.308 80.5134 132.2 81.7955 132.695C83.0776 133.191 84.4836 133.264 85.8098 132.904C87.136 132.544 88.3135 131.769 89.1718 130.693L101.413 115.348C108.777 106.117 119.854 105.754 127.565 109.49C134.553 112.875 141.74 121.101 139.001 133.142C138.344 136.026 137.163 138.323 135.489 139.971C135.139 140.316 134.784 140.661 134.424 141.007C126.274 148.815 120.736 158.966 118.572 170.063C116.408 181.16 117.725 192.657 122.342 202.972C133.281 227.21 140.52 248.001 143.858 264.765C148.444 287.796 145.418 302.494 134.867 308.45L134.769 308.479L99.3979 310.906L99.3822 310.675L99.3979 310.906C99.1724 310.922 98.9473 310.929 98.7239 310.929Z" fill="#E6E6E6"/>
<path d="M26.7514 143.143C26.6327 143.143 26.5144 143.142 26.3952 143.141C20.1293 143.048 14.0939 140.754 9.33906 136.658C4.58423 132.562 1.41084 126.923 0.370971 120.722C-0.668902 114.521 0.490553 108.15 3.64762 102.718C6.8047 97.2856 11.7596 93.136 17.6503 90.9909C18.4335 90.7131 19.1106 90.1966 19.5868 89.5136C20.063 88.8305 20.3144 88.0152 20.3059 87.1816L20.3057 87.086C20.3052 84.9389 20.5609 82.7994 21.0674 80.7132C21.2392 80.0419 21.2307 79.337 21.0426 78.6701C20.8546 78.0032 20.4938 77.3983 19.9969 76.9169C15.5036 72.6763 11.939 67.5437 9.52998 61.8455C7.12094 56.1473 5.92019 50.0084 6.00413 43.8192C6.35392 19.6572 26.2378 0 50.3287 0L50.5444 0.000508118C56.5354 0.00764787 62.4617 1.24412 67.959 3.63393C73.4563 6.02374 78.4086 9.5164 82.5114 13.8973C84.5731 16.081 87.0549 17.8223 89.8067 19.0157C92.5584 20.2091 95.5229 20.8298 98.5206 20.8403L98.6062 21.0943L98.6054 20.8401L98.7816 20.8396C107.172 20.8646 115.384 23.2663 122.474 27.7682C129.563 32.2702 135.242 38.6894 138.857 46.2872C139.053 46.7062 139.362 47.0615 139.75 47.3123C140.137 47.563 140.587 47.6992 141.048 47.7051L141.354 47.7114C149.273 47.8995 156.998 50.2139 163.724 54.4139C170.45 58.6139 175.931 64.5459 179.598 71.5926C183.264 78.6394 184.982 86.5433 184.572 94.4821C184.161 102.421 181.639 110.104 177.266 116.733C172.893 123.361 166.83 128.693 159.707 132.172C152.584 135.652 144.662 137.152 136.766 136.518C128.869 135.883 121.287 133.136 114.807 128.564C108.327 123.991 103.186 117.759 99.9205 110.516C99.821 110.301 99.6618 110.119 99.462 109.992C99.2622 109.865 99.0302 109.798 98.7937 109.8C95.7471 109.801 92.7084 109.489 89.725 108.87C78.8765 106.585 67.5927 107.647 57.357 111.917C57.0124 112.06 56.6644 112.196 56.3131 112.326C55.5167 112.615 54.8278 113.143 54.3389 113.837C53.85 114.531 53.5846 115.358 53.5783 116.208V116.261C53.5782 123.39 50.7563 130.227 45.7331 135.268C40.71 140.309 33.897 143.142 26.7927 143.143H26.7514V143.143Z" fill="#CCCCCC"/>
<path d="M139.264 69.8335C139.346 69.8208 139.428 69.8088 139.511 69.797C143.864 69.1888 148.292 70.1311 152.024 72.4601C155.756 74.789 158.557 78.3573 159.938 82.544C161.32 86.7308 161.195 91.271 159.585 95.375C157.976 99.4789 154.984 102.887 151.129 105.006C150.616 105.282 150.202 105.713 149.944 106.238C149.687 106.762 149.6 107.354 149.694 107.931L149.705 107.997C149.934 109.486 149.985 110.996 149.856 112.496C149.808 112.98 149.889 113.468 150.091 113.91C150.292 114.352 150.607 114.732 151.002 115.013C156.145 118.547 160.111 123.551 162.384 129.375C164.657 135.199 165.133 141.574 163.75 147.673C162.367 153.772 159.188 159.312 154.628 163.576C150.067 167.839 144.335 170.629 138.174 171.582L138.025 171.604C133.871 172.242 129.632 172.021 125.567 170.955C121.502 169.888 117.697 167.998 114.386 165.402C112.724 164.11 110.819 163.169 108.784 162.637C106.75 162.105 104.629 161.993 102.55 162.307L102.463 162.141L102.491 162.317L102.369 162.336C96.5508 163.219 90.6026 162.435 85.2087 160.076C79.8147 157.716 75.1944 153.876 71.8794 148.997C71.6991 148.728 71.4468 148.515 71.1514 148.382C70.8561 148.25 70.5296 148.204 70.2093 148.249L69.997 148.278C64.4876 148.997 58.8866 148.222 53.7771 146.032C48.6675 143.843 44.2361 140.319 40.9438 135.828C37.6516 131.337 35.6189 126.043 35.0572 120.497C34.4956 114.95 35.4255 109.353 37.7502 104.29C40.0749 99.226 43.7095 94.88 48.2757 91.7039C52.842 88.5278 58.173 86.6377 63.7141 86.2303C69.2551 85.823 74.8037 86.9131 79.7825 89.3874C84.7613 91.8617 88.9883 95.6297 92.0237 100.299C92.1157 100.438 92.2454 100.547 92.3974 100.614C92.5495 100.68 92.7174 100.702 92.8812 100.675C94.9927 100.347 97.1322 100.237 99.2661 100.347C107.029 100.767 114.737 98.8197 121.377 94.7617C121.601 94.6254 121.827 94.4936 122.057 94.3663C122.578 94.0801 123 93.6407 123.264 93.1071C123.529 92.5735 123.625 91.9714 123.539 91.3816L123.533 91.3453C122.774 86.4039 124.001 81.362 126.946 77.3287C129.89 73.2954 134.311 70.601 139.235 69.838V69.838L139.264 69.8335Z" fill="#CCCCCC"/>
<path d="M460.955 156.909C453.795 156.909 442.586 176.247 442.47 176.447C432.142 189.675 421.521 223.169 416.107 241.96C415.491 244.093 415.323 246.331 415.614 248.532C415.906 250.733 416.649 252.85 417.798 254.747C418.946 256.645 420.475 258.283 422.287 259.557C424.1 260.831 426.156 261.714 428.326 262.149C439.642 264.417 449.264 267.639 456.922 271.728C475.052 281.408 496.551 272.256 498.728 271.281L491.593 234.283C483.669 207.875 467.183 157.744 461.476 156.944C461.304 156.921 461.13 156.909 460.955 156.909V156.909Z" fill="#2F2E41"/>
<path opacity="0.1" d="M491.839 234.222C491.839 234.222 468.887 157.726 461.511 156.693C454.135 155.659 445.269 176.53 445.269 176.53C440.618 195.824 429.006 222.36 420.576 240.281C419.538 242.488 419.006 244.9 419.022 247.34C419.037 249.781 419.599 252.186 420.666 254.379C421.732 256.572 423.277 258.496 425.184 260.01C427.091 261.523 429.313 262.587 431.686 263.123C439.709 264.928 448.856 267.71 456.803 271.953C476.165 282.29 499.015 271.429 499.015 271.429L491.839 234.222Z" fill="black"/>
<path d="M477.224 239.353L440.24 234.777L447.84 201.223L477.224 202.24V239.353Z" fill="#9E616A"/>
<path d="M456.635 382.516L449.223 381.309L450.335 352.047L461.274 353.827L456.635 382.516Z" fill="#9E616A"/>
<path d="M493.576 367.002L486.872 370.396L469.115 344.539L479.01 339.53L493.576 367.002Z" fill="#9E616A"/>
<path d="M472.417 357.6L441.548 278.614C430.501 248.331 440.372 227.46 440.473 227.253L440.524 227.151L440.629 227.113C441.897 232.064 470.638 231.727 477.224 224.101C481.068 227.341 486.185 234.971 487.281 244.089C488.427 253.87 487.558 263.783 484.729 273.214L472.57 314.577L487.613 348.584L472.417 357.6Z" fill="#2F2E41"/>
<path d="M457.532 308.607L446.386 365.321L461.23 368.13L470.57 319.038L457.532 308.607Z" fill="#2F2E41"/>
<path d="M459.087 373.02L458.18 372.964L449.562 372.446L448.346 372.375V376.996L438.132 384.073C437.628 384.422 437.248 384.925 437.048 385.506C436.848 386.088 436.839 386.718 437.022 387.306C437.205 387.893 437.57 388.406 438.064 388.77C438.558 389.134 439.156 389.33 439.769 389.33H452.556L454.76 384.764L455.621 389.33H460.439L459.087 373.02Z" fill="#2F2E41"/>
<path d="M503.164 378.008L493.208 365.043L492.697 365.333L485.999 369.126L483.841 370.346L486.333 374.225L481.581 385.73C481.347 386.298 481.3 386.927 481.447 387.523C481.594 388.12 481.927 388.654 482.397 389.048C482.868 389.442 483.451 389.675 484.062 389.712C484.674 389.75 485.281 389.591 485.796 389.258L496.542 382.298L495.924 377.26L499.116 380.631L503.164 378.008Z" fill="#2F2E41"/>
<path d="M474.821 149.861C484.998 149.861 493.248 141.582 493.248 131.37C493.248 121.158 484.998 112.879 474.821 112.879C464.644 112.879 456.394 121.158 456.394 131.37C456.394 141.582 464.644 149.861 474.821 149.861Z" fill="#2F2E41"/>
<path d="M381.551 209.062C379.851 208.366 378.464 207.069 377.654 205.416C376.844 203.762 376.666 201.868 377.155 200.092C377.643 198.316 378.764 196.782 380.304 195.779C381.845 194.777 383.698 194.377 385.513 194.654L409.155 190.092L418.026 200.668L391.698 203.764C391.462 204.833 390.997 205.837 390.333 206.705C389.67 207.573 388.824 208.285 387.857 208.79C386.889 209.296 385.823 209.582 384.734 209.629C383.644 209.676 382.558 209.482 381.551 209.062H381.551Z" fill="#9E616A"/>
<path d="M455.017 185.425L425.674 203.487L399.203 204.273L391.261 192.683L420.116 187.359L459.854 156.921L455.017 185.425Z" fill="#2F2E41"/>
<path d="M449.868 174.156C442.702 181.347 449.356 189.052 449.356 189.052L441.166 207.543L473.413 216.275L484.683 165.744L477.005 157.525C475.371 157.471 475.938 152.334 474.633 152.284C469.874 152.102 467.181 151.95 465.656 151.837C463.669 151.69 461.641 156.692 461.641 156.692C458.95 159.334 449.868 174.156 449.868 174.156Z" fill="#0055D3"/>
<path d="M506.736 251.986C505.02 250.557 503.443 248.969 502.024 247.243C499.41 244.105 497.071 240.748 495.032 237.207C492.272 232.451 489.964 227.445 488.137 222.255C488.132 222.245 488.132 222.235 488.127 222.225C487.554 220.603 487.024 218.934 486.536 217.217C486.531 217.198 486.525 217.179 486.516 217.161C485.692 214.261 485.026 211.318 484.52 208.346C482.473 196.312 486.445 185.351 490.138 178.274C490.454 177.677 490.723 177.057 490.944 176.418C491.951 173.623 492.029 170.576 491.167 167.732C490.305 164.889 488.549 162.402 486.161 160.643L485.984 160.511C484.524 159.427 482.864 158.645 481.101 158.209C479.338 157.773 477.506 157.692 475.712 157.97C473.917 158.247 472.195 158.879 470.645 159.828C469.095 160.778 467.748 162.025 466.681 163.5C466.668 163.514 466.656 163.529 466.646 163.546C460.333 172.371 454.385 185.417 456.954 201.538C457.566 205.334 458.578 209.055 459.973 212.636C460.399 213.74 460.865 214.853 461.371 215.977C463.444 220.552 465.477 224.846 467.471 228.859C469.219 232.383 470.928 235.689 472.598 238.778C478.004 248.794 482.949 256.526 487.144 261.941C491.998 268.194 495.848 271.351 498.254 271.351C498.5 271.354 498.745 271.316 498.979 271.239C498.989 271.234 498.994 271.234 499.004 271.229C500.879 270.594 503.184 268.636 505.104 266.15C506.882 263.837 508.326 261.066 508.782 258.468C509.122 256.531 509.041 253.837 506.736 251.986Z" fill="#2F2E41"/>
<path d="M475.769 148.044C482.342 144.439 484.758 136.168 481.165 129.572C477.571 122.976 469.33 120.552 462.756 124.157C456.183 127.763 453.767 136.034 457.36 142.63C460.954 149.226 469.195 151.65 475.769 148.044Z" fill="#9E616A"/>
<path d="M451.706 134.055H471.293L471.494 131.233L472.498 134.055H475.514L475.912 128.462L477.902 134.055H483.738V133.778C483.734 129.884 482.19 126.151 479.447 123.398C476.703 120.645 472.983 119.096 469.103 119.092H466.341C462.461 119.096 458.741 120.645 455.998 123.398C453.254 126.151 451.71 129.884 451.706 133.778V134.055Z" fill="#2F2E41"/>
<path d="M514.808 261.567C514.205 263.307 512.988 264.765 511.385 265.665C509.783 266.565 507.908 266.843 506.114 266.448C504.321 266.053 502.734 265.011 501.655 263.521C500.576 262.03 500.08 260.194 500.259 258.36L494.466 234.912L504.519 225.462L508.997 251.68C510.073 251.859 511.097 252.273 511.996 252.891C512.895 253.51 513.648 254.319 514.202 255.262C514.756 256.205 515.098 257.258 515.202 258.347C515.307 259.436 515.172 260.535 514.808 261.567V261.567Z" fill="#9E616A"/>
<path d="M488.686 168.486L509.818 242.609L498.37 249.418L465.2 169.479L488.686 168.486Z" fill="#2F2E41"/>
<path d="M525.803 142.231C521.763 139.419 519.25 134.879 517.522 130.261C515.795 125.642 514.707 120.789 512.749 116.263C510.378 110.799 506.8 105.948 502.284 102.078C499.393 99.6039 496.029 97.5151 492.279 96.9025C488.529 96.2899 484.35 97.3834 481.952 100.34C479.553 103.298 479.558 108.191 482.463 110.648C481.596 109.733 479.914 109.96 479.162 110.972C478.814 111.501 478.644 112.128 478.676 112.761C478.708 113.394 478.94 114 479.338 114.492C479.628 114.856 479.984 115.162 480.387 115.393C481.293 117.425 482.843 119.099 484.795 120.154C487.169 121.329 490.333 121.084 492.13 119.134C493.927 117.185 493.67 113.545 491.355 112.259C494.956 111.563 498.683 113.662 500.771 116.688C502.86 119.713 503.562 123.494 503.734 127.17C503.906 130.847 503.6 134.54 503.909 138.208C504.219 141.875 505.218 145.629 507.632 148.4C511.587 152.942 518.541 153.789 524.295 152.046C530.049 150.303 534.894 146.448 539.583 142.674C535.683 145.678 529.842 145.043 525.803 142.231Z" fill="#2F2E41"/>
<path d="M366.676 198.93C364.063 200.864 363.399 204.403 364.297 207.405C364.764 209.046 365.685 210.52 366.954 211.656C368.222 212.792 369.786 213.544 371.464 213.823C375.226 214.534 379.253 213.054 382.18 210.709C385.478 208.066 387.391 204.212 389.29 200.529C391.863 195.54 394.688 190.671 397.406 185.76C400.437 180.283 403.468 174.805 406.497 169.327C413.307 157.003 420.084 144.662 426.83 132.304C433.567 119.931 440.227 107.516 446.811 95.0596C452.146 84.9094 457.43 74.7226 462.372 64.3727C462.858 63.3555 463.339 62.3363 463.816 61.315C463.956 60.9369 463.943 60.5186 463.779 60.1502C463.615 59.7817 463.314 59.4924 462.94 59.3446C462.563 59.2079 462.148 59.2232 461.782 59.387C461.416 59.5509 461.127 59.8506 460.976 60.2234C456.478 69.8628 451.612 79.3302 446.698 88.7607C440.537 100.582 434.265 112.344 427.882 124.046C421.283 136.214 414.635 148.355 407.937 160.469C402.14 170.977 396.332 181.48 390.513 191.976C389.1 194.532 387.667 197.076 386.33 199.673C384.601 203.028 382.805 206.54 379.67 208.792C377.008 210.705 373.235 211.718 370.151 210.239C367.855 209.138 366.683 206.388 366.999 204.009C367.062 203.468 367.239 202.946 367.516 202.477C367.793 202.008 368.164 201.602 368.607 201.286C370.185 200.118 368.247 197.767 366.676 198.93V198.93Z" fill="#2F2E41"/>
<path d="M531.089 134.019L530.909 133.997C524.005 133.147 517.163 132.12 510.576 130.947C505.888 130.111 501.311 129.202 496.972 128.245C493.312 127.442 489.695 126.582 486.22 125.689C482.346 124.699 478.502 123.633 474.795 122.52C473.247 122.063 471.672 121.579 470.114 121.082C467.227 120.163 464.445 119.227 461.844 118.302C459.32 117.417 456.774 116.472 454.279 115.494C454.226 115.478 454.174 115.459 454.123 115.437C449.066 113.466 444.102 111.339 439.371 109.117C438.455 108.69 437.544 108.257 436.638 107.817C409.352 94.5853 386.506 76.632 368.737 54.4562L368.636 54.3304L368.707 54.1854C378.205 34.6361 394.648 19.3594 414.802 11.3589C434.956 3.35845 457.363 3.21298 477.619 10.9511C480.114 11.9077 482.571 12.978 484.922 14.1325L491.249 17.2369C494.668 18.9138 497.975 20.8122 501.149 22.92C518.708 34.6137 531.434 52.3126 536.956 72.7211C542.478 93.1296 540.421 114.857 531.168 133.856L531.089 134.019Z" fill="#0055D3"/>
<path d="M381.396 66.6583C404.977 49.1176 430.689 34.6638 457.912 23.6463C465.549 20.5538 473.289 17.7385 481.133 15.2005C482.061 14.8999 481.418 13.5167 480.496 13.8153C452.438 22.9017 425.65 35.5445 400.782 51.4373C393.834 55.8727 387.05 60.5538 380.43 65.4806C379.643 66.0664 380.611 67.2419 381.396 66.6583V66.6583Z" fill="#3F3D56"/>
<path d="M496.293 20.21C496.203 20.3393 496.157 20.4939 496.161 20.6514C496.165 20.8089 496.219 20.9609 496.315 21.0856C500.607 27.0583 504.247 33.477 507.172 40.231C510.097 46.9849 512.327 54.021 513.828 61.2298C515.344 68.439 516.14 75.7819 516.205 83.1497C516.273 90.5161 515.602 97.8707 514.202 105.102C513.005 111.286 511.244 117.347 508.942 123.208C508.557 124.192 508.155 125.169 507.737 126.14C507.376 126.978 507.004 127.81 506.62 128.636C506.208 129.53 507.632 130.068 508.043 129.183C508.546 128.088 509.035 126.986 509.494 125.872C511.904 120.102 513.794 114.127 515.142 108.018C516.748 100.733 517.609 93.3015 517.711 85.8402C517.819 78.3682 517.192 70.9038 515.837 63.5556C514.486 56.2156 512.398 49.0315 509.606 42.113C506.806 35.1676 503.27 28.5448 499.057 22.3592C498.866 22.0749 498.67 21.7902 498.473 21.5105L496.293 20.21Z" fill="#3F3D56"/>
<path d="M420.866 98.6078L445.253 69.1186L469.641 39.6294L483.37 23.0295C483.996 22.2722 482.76 21.384 482.138 22.136L457.75 51.6252L433.362 81.1144L419.633 97.7143C419.007 98.4716 420.244 99.3597 420.866 98.6078H420.866Z" fill="#3F3D56"/>
<path d="M474.236 121.37L481.168 85.259L488.076 49.2722L491.973 28.9752C492.158 28.0119 490.644 27.8706 490.46 28.8278L483.528 64.939L476.619 100.926L472.723 121.223C472.538 122.186 474.052 122.327 474.236 121.37V121.37Z" fill="#3F3D56"/>
<path d="M501.008 23.1316C499.531 25.7792 497.191 27.8361 494.381 28.9569C491.57 30.0778 488.462 30.1943 485.576 29.287C482.69 28.3797 480.204 26.5038 478.533 23.9743C476.863 21.4447 476.111 18.4155 476.403 15.3952C476.541 13.9398 476.921 12.5179 477.528 11.1887C479.977 12.1273 482.405 13.1846 484.81 14.3607L491.137 17.465C494.547 19.1363 497.844 21.0292 501.008 23.1316V23.1316Z" fill="#3F3D56"/>
<path d="M193.201 31.4394C195.565 39.7296 199.105 47.6357 203.711 54.9151C205.022 56.9838 206.417 58.9949 207.897 60.9485C208.48 61.7207 209.801 60.9616 209.209 60.1787C204.068 53.3877 199.932 45.8871 196.929 37.9093C196.081 35.6494 195.327 33.3576 194.667 31.0339C194.608 30.8451 194.478 30.6867 194.305 30.592C194.132 30.4973 193.929 30.4738 193.739 30.5264C193.549 30.5789 193.387 30.7035 193.286 30.8739C193.186 31.0442 193.156 31.247 193.201 31.4394H193.201Z" fill="#F2F2F2"/>
<path d="M238.213 64.4812L247.446 80.5979C247.551 80.7653 247.717 80.885 247.909 80.9319C248.1 80.9788 248.303 80.9492 248.473 80.8494C248.643 80.7495 248.768 80.5872 248.821 80.3967C248.874 80.2061 248.852 80.0023 248.758 79.8281L239.526 63.7114C239.42 63.5441 239.254 63.4244 239.063 63.3775C238.871 63.3306 238.669 63.3602 238.499 63.46C238.329 63.5599 238.204 63.7222 238.15 63.9127C238.097 64.1032 238.12 64.3071 238.213 64.4812V64.4812Z" fill="#F2F2F2"/>
<path d="M258.813 41.4468L266.332 57.5633C266.747 58.4515 268.057 57.678 267.645 56.7935L260.126 40.677C259.711 39.7888 258.401 40.5623 258.813 41.4468Z" fill="#F2F2F2"/>
<path d="M333.539 52.2838C335.903 60.5739 339.442 68.48 344.049 75.7594C345.36 77.8282 346.755 79.8393 348.235 81.7928C348.818 82.565 350.138 81.8059 349.547 81.023C344.406 74.232 340.27 66.7315 337.266 58.7537C336.419 56.4938 335.665 54.202 335.005 51.8783C334.946 51.6895 334.816 51.5311 334.643 51.4364C334.47 51.3417 334.267 51.3181 334.077 51.3707C333.887 51.4233 333.724 51.5479 333.624 51.7182C333.524 51.8886 333.493 52.0913 333.539 52.2838H333.539Z" fill="#F2F2F2"/>
<path d="M378.551 85.3255L387.784 101.442C387.889 101.609 388.055 101.729 388.246 101.776C388.438 101.823 388.64 101.793 388.811 101.694C388.981 101.594 389.106 101.431 389.159 101.241C389.212 101.05 389.19 100.847 389.096 100.672L379.863 84.5557C379.758 84.3883 379.592 84.2686 379.401 84.2217C379.209 84.1748 379.007 84.2044 378.837 84.3043C378.666 84.4041 378.541 84.5664 378.488 84.7569C378.435 84.9475 378.457 85.1513 378.551 85.3255V85.3255Z" fill="#F2F2F2"/>
<path d="M399.151 62.291L406.67 78.4075C407.085 79.2958 408.395 78.5223 407.983 77.6377L400.463 61.5212C400.049 60.633 398.738 61.4065 399.151 62.291Z" fill="#F2F2F2"/>
<path d="M310.741 150.913C313.105 159.203 316.644 167.109 321.25 174.388C322.561 176.457 323.956 178.468 325.436 180.422C326.019 181.194 327.34 180.435 326.748 179.652C321.608 172.861 317.471 165.36 314.468 157.383C313.621 155.123 312.867 152.831 312.206 150.507C312.147 150.318 312.017 150.16 311.844 150.065C311.671 149.971 311.468 149.947 311.278 150C311.088 150.052 310.926 150.177 310.826 150.347C310.725 150.517 310.695 150.72 310.741 150.913H310.741Z" fill="#F2F2F2"/>
<path d="M355.752 183.955L364.985 200.071C365.09 200.239 365.256 200.358 365.448 200.405C365.639 200.452 365.842 200.423 366.012 200.323C366.182 200.223 366.307 200.061 366.36 199.87C366.414 199.68 366.391 199.476 366.297 199.302L357.065 183.185C356.96 183.017 356.794 182.898 356.602 182.851C356.41 182.804 356.208 182.834 356.038 182.933C355.868 183.033 355.743 183.196 355.69 183.386C355.636 183.577 355.659 183.78 355.752 183.955V183.955Z" fill="#F2F2F2"/>
<path d="M376.352 160.92L383.872 177.037C384.286 177.925 385.597 177.151 385.184 176.267L377.665 160.15C377.25 159.262 375.94 160.036 376.352 160.92Z" fill="#F2F2F2"/>
<path d="M157.23 192.093C159.594 200.383 163.134 208.289 167.74 215.569C169.051 217.637 170.446 219.648 171.926 221.602C172.509 222.374 173.83 221.615 173.238 220.832C168.097 214.041 163.961 206.541 160.958 198.563C160.11 196.303 159.356 194.011 158.696 191.687C158.637 191.499 158.507 191.34 158.334 191.245C158.161 191.151 157.958 191.127 157.768 191.18C157.578 191.232 157.416 191.357 157.315 191.527C157.215 191.698 157.184 191.9 157.23 192.093H157.23Z" fill="#F2F2F2"/>
<path d="M202.242 225.135L211.475 241.251C211.58 241.419 211.746 241.538 211.938 241.585C212.129 241.632 212.331 241.603 212.502 241.503C212.672 241.403 212.797 241.241 212.85 241.05C212.903 240.859 212.881 240.656 212.787 240.481L203.555 224.365C203.449 224.197 203.283 224.078 203.092 224.031C202.9 223.984 202.698 224.013 202.528 224.113C202.358 224.213 202.233 224.376 202.179 224.566C202.126 224.757 202.149 224.96 202.242 225.135V225.135Z" fill="#F2F2F2"/>
<path d="M222.842 202.1L230.361 218.216C230.776 219.105 232.086 218.331 231.674 217.447L224.155 201.33C223.74 200.442 222.429 201.215 222.842 202.1Z" fill="#F2F2F2"/>
<path d="M351.778 243.441C354.142 251.731 357.681 259.637 362.287 266.917C363.598 268.985 364.994 270.997 366.473 272.95C367.057 273.722 368.377 272.963 367.786 272.18C362.645 265.389 358.509 257.889 355.505 249.911C354.658 247.651 353.904 245.359 353.243 243.036C353.185 242.847 353.055 242.688 352.882 242.594C352.709 242.499 352.506 242.475 352.316 242.528C352.125 242.581 351.963 242.705 351.863 242.875C351.763 243.046 351.732 243.249 351.778 243.441H351.778Z" fill="#F2F2F2"/>
<path d="M396.79 276.483L406.022 292.599C406.128 292.767 406.294 292.886 406.485 292.933C406.677 292.98 406.879 292.951 407.049 292.851C407.22 292.751 407.345 292.589 407.398 292.398C407.451 292.208 407.428 292.004 407.335 291.83L398.102 275.713C397.997 275.546 397.831 275.426 397.639 275.379C397.448 275.332 397.246 275.362 397.075 275.461C396.905 275.561 396.78 275.724 396.727 275.914C396.674 276.105 396.696 276.309 396.79 276.483V276.483Z" fill="#F2F2F2"/>
<path d="M417.39 253.448L424.909 269.565C425.323 270.453 426.634 269.679 426.221 268.795L418.702 252.678C418.288 251.79 416.977 252.564 417.39 253.448Z" fill="#F2F2F2"/>
<path d="M435.373 189.043C437.737 197.333 441.276 205.239 445.882 212.518C447.193 214.587 448.589 216.598 450.068 218.552C450.651 219.324 451.972 218.565 451.38 217.782C446.24 210.991 442.103 203.49 439.1 195.512C438.253 193.253 437.499 190.961 436.838 188.637C436.779 188.448 436.65 188.29 436.476 188.195C436.303 188.1 436.1 188.077 435.91 188.13C435.72 188.182 435.558 188.307 435.458 188.477C435.357 188.647 435.327 188.85 435.373 189.043H435.373Z" fill="#F2F2F2"/>
<path d="M480.385 222.084L489.617 238.201C489.722 238.368 489.888 238.488 490.08 238.535C490.272 238.582 490.474 238.552 490.644 238.452C490.814 238.353 490.939 238.19 490.992 238C491.046 237.809 491.023 237.605 490.93 237.431L481.697 221.314C481.592 221.147 481.426 221.027 481.234 220.98C481.043 220.934 480.84 220.963 480.67 221.063C480.5 221.163 480.375 221.325 480.322 221.516C480.268 221.706 480.291 221.91 480.385 222.084V222.084Z" fill="#F2F2F2"/>
<path d="M500.985 199.05L508.504 215.166C508.918 216.054 510.229 215.281 509.816 214.396L502.297 198.28C501.883 197.392 500.572 198.165 500.985 199.05Z" fill="#F2F2F2"/>
<path d="M454.625 74.1449C456.989 82.435 460.528 90.3411 465.134 97.6205C466.445 99.6892 467.841 101.7 469.32 103.654C469.904 104.426 471.224 103.667 470.633 102.884C465.492 96.0931 461.356 88.5925 458.352 80.6148C457.505 78.3549 456.751 76.0631 456.09 73.7394C456.031 73.5506 455.902 73.3921 455.729 73.2974C455.555 73.2027 455.352 73.1792 455.162 73.2318C454.972 73.2844 454.81 73.409 454.71 73.5793C454.609 73.7496 454.579 73.9524 454.625 74.1449H454.625Z" fill="#F2F2F2"/>
<path d="M499.637 107.187L508.869 123.303C508.975 123.471 509.14 123.59 509.332 123.637C509.524 123.684 509.726 123.655 509.896 123.555C510.066 123.455 510.191 123.293 510.245 123.102C510.298 122.911 510.275 122.708 510.182 122.533L500.949 106.417C500.844 106.249 500.678 106.13 500.486 106.083C500.295 106.036 500.092 106.065 499.922 106.165C499.752 106.265 499.627 106.428 499.574 106.618C499.52 106.809 499.543 107.012 499.637 107.187V107.187Z" fill="#F2F2F2"/>
<path d="M520.237 84.1521L527.756 100.269C528.17 101.157 529.481 100.383 529.068 99.4988L521.549 83.3823C521.135 82.4941 519.824 83.2676 520.237 84.1521Z" fill="#F2F2F2"/>
<path d="M44.2508 33.473C46.6148 41.7631 50.1541 49.6692 54.7603 56.9487C56.0714 59.0174 57.4667 61.0285 58.9462 62.982C59.5296 63.7542 60.8501 62.9951 60.2586 62.2122C55.1178 55.4212 50.9816 47.9207 47.9781 39.9429C47.1308 37.683 46.3769 35.3912 45.7164 33.0675C45.6574 32.8787 45.5277 32.7203 45.3546 32.6256C45.1815 32.5309 44.9785 32.5073 44.7884 32.5599C44.5984 32.6125 44.4361 32.7371 44.3358 32.9074C44.2355 33.0778 44.205 33.2805 44.2508 33.473H44.2508Z" fill="#F2F2F2"/>
<path d="M89.2627 66.5148L98.4953 82.6315C98.6006 82.7988 98.7665 82.9186 98.9581 82.9655C99.1497 83.0124 99.3519 82.9828 99.5222 82.8829C99.6924 82.7831 99.8174 82.6208 99.8706 82.4302C99.9239 82.2397 99.9013 82.0359 99.8077 81.8617L90.5751 65.745C90.4698 65.5777 90.3039 65.4579 90.1123 65.411C89.9207 65.3641 89.7185 65.3937 89.5482 65.4936C89.378 65.5934 89.2531 65.7558 89.1998 65.9463C89.1465 66.1368 89.1691 66.3406 89.2627 66.5148V66.5148Z" fill="#F2F2F2"/>
<path d="M109.863 43.4804L117.382 59.5969C117.796 60.4851 119.107 59.7116 118.694 58.8271L111.175 42.7106C110.761 41.8224 109.45 42.5959 109.863 43.4804V43.4804Z" fill="#F2F2F2"/>
<path d="M76.1688 98.0394C78.5327 106.33 82.0721 114.236 86.6782 121.515C87.9893 123.584 89.3846 125.595 90.8642 127.548C91.4476 128.321 92.7681 127.562 92.1766 126.779C87.0358 119.988 82.8996 112.487 79.896 104.509C79.0488 102.249 78.2949 99.9576 77.6344 97.6339C77.5754 97.4451 77.4457 97.2867 77.2726 97.192C77.0995 97.0973 76.8965 97.0737 76.7064 97.1263C76.5163 97.1789 76.354 97.3035 76.2537 97.4738C76.1534 97.6442 76.123 97.8469 76.1687 98.0394H76.1688Z" fill="#F2F2F2"/>
<path d="M121.181 131.081L130.413 147.198C130.519 147.365 130.685 147.485 130.876 147.532C131.068 147.579 131.27 147.549 131.44 147.449C131.61 147.35 131.735 147.187 131.789 146.997C131.842 146.806 131.819 146.602 131.726 146.428L122.493 130.312C122.388 130.144 122.222 130.024 122.03 129.978C121.839 129.931 121.637 129.96 121.466 130.06C121.296 130.16 121.171 130.322 121.118 130.513C121.065 130.703 121.087 130.907 121.181 131.081Z" fill="#F2F2F2"/>
<path d="M141.781 108.047L149.3 124.163C149.714 125.051 151.025 124.278 150.612 123.393L143.093 107.277C142.679 106.389 141.368 107.162 141.781 108.047V108.047Z" fill="#F2F2F2"/>
<path d="M2.70673 214.462C5.07069 222.752 8.61005 230.658 13.2162 237.938C14.5273 240.007 15.9226 242.018 17.4021 243.971C17.9856 244.744 19.306 243.984 18.7145 243.201C13.5738 236.411 9.43753 228.91 6.43399 220.932C5.58675 218.672 4.83286 216.38 4.17232 214.057C4.11337 213.868 3.98367 213.71 3.81055 213.615C3.63744 213.52 3.43444 213.497 3.24437 213.549C3.05429 213.602 2.892 213.726 2.79169 213.897C2.69139 214.067 2.66092 214.27 2.70671 214.462H2.70673Z" fill="#F2F2F2"/>
<path d="M47.7187 247.504L56.9514 263.621C57.0566 263.788 57.2226 263.908 57.4141 263.955C57.6057 264.002 57.808 263.972 57.9782 263.872C58.1485 263.772 58.2734 263.61 58.3267 263.42C58.38 263.229 58.3574 263.025 58.2638 262.851L49.0311 246.734C48.9259 246.567 48.7599 246.447 48.5684 246.4C48.3768 246.354 48.1745 246.383 48.0043 246.483C47.8341 246.583 47.7091 246.745 47.6558 246.936C47.6026 247.126 47.6251 247.33 47.7187 247.504V247.504Z" fill="#F2F2F2"/>
<path d="M68.3186 224.47L75.8378 240.586C76.2522 241.474 77.5629 240.701 77.1502 239.816L69.631 223.7C69.2166 222.812 67.9059 223.585 68.3186 224.47Z" fill="#F2F2F2"/>
<path d="M206.374 123.459C208.738 131.749 212.277 139.656 216.883 146.935C218.194 149.004 219.59 151.015 221.069 152.968C221.653 153.741 222.973 152.981 222.382 152.199C217.241 145.408 213.105 137.907 210.101 129.929C209.254 127.669 208.5 125.378 207.839 123.054C207.78 122.865 207.651 122.707 207.478 122.612C207.305 122.517 207.102 122.494 206.911 122.546C206.721 122.599 206.559 122.723 206.459 122.894C206.359 123.064 206.328 123.267 206.374 123.459H206.374Z" fill="#F2F2F2"/>
<path d="M251.386 156.501L260.618 172.618C260.724 172.785 260.89 172.905 261.081 172.952C261.273 172.999 261.475 172.969 261.645 172.869C261.815 172.769 261.94 172.607 261.994 172.416C262.047 172.226 262.024 172.022 261.931 171.848L252.698 155.731C252.593 155.564 252.427 155.444 252.235 155.397C252.044 155.35 251.842 155.38 251.671 155.48C251.501 155.58 251.376 155.742 251.323 155.932C251.27 156.123 251.292 156.327 251.386 156.501V156.501Z" fill="#F2F2F2"/>
<path d="M271.986 133.467L279.505 149.583C279.919 150.471 281.23 149.698 280.817 148.813L273.298 132.697C272.884 131.809 271.573 132.582 271.986 133.467Z" fill="#F2F2F2"/>
<path d="M107.859 225.199C113.605 223.967 116.461 214.509 114.239 204.075C112.016 193.641 105.557 186.182 99.8104 187.414C94.0643 188.647 91.2078 198.104 93.4302 208.538C95.6526 218.972 102.112 226.432 107.859 225.199Z" fill="#CCCCCC"/>
<path d="M113.461 215.458C113.461 219.67 113.098 228.168 108.901 228.168C104.704 228.168 98.2615 219.67 98.2615 215.458C98.2615 213.435 99.0622 211.496 100.487 210.066C101.913 208.635 103.846 207.832 105.861 207.832C107.877 207.832 109.81 208.635 111.235 210.066C112.66 211.496 113.461 213.435 113.461 215.458Z" fill="#E6E6E6"/>
<path d="M107.559 219.441C107.334 219.562 107.069 219.589 106.824 219.515C106.579 219.441 106.373 219.272 106.252 219.046C106.235 219.013 106.232 218.976 106.242 218.941C106.253 218.906 106.277 218.876 106.309 218.859C106.341 218.842 106.379 218.838 106.413 218.848C106.448 218.859 106.478 218.883 106.495 218.915C106.582 219.077 106.729 219.197 106.904 219.25C107.079 219.303 107.268 219.284 107.429 219.197C107.59 219.111 107.71 218.963 107.763 218.787C107.816 218.612 107.797 218.422 107.711 218.26C107.694 218.228 107.69 218.19 107.701 218.155C107.711 218.12 107.735 218.091 107.767 218.074C107.799 218.057 107.837 218.053 107.872 218.063C107.907 218.074 107.936 218.097 107.954 218.129C108.074 218.356 108.101 218.621 108.027 218.867C107.953 219.113 107.785 219.32 107.559 219.441Z" fill="white"/>
<path d="M106.549 217.406C107.086 217.117 107.432 216.714 107.321 216.507C107.21 216.3 106.685 216.366 106.148 216.655C105.611 216.944 105.265 217.347 105.376 217.554C105.487 217.761 106.012 217.695 106.549 217.406Z" fill="white"/>
<path d="M100.841 217.757C100.914 217.403 101.063 217.07 101.278 216.781C101.493 216.492 101.768 216.253 102.085 216.083C102.402 215.912 102.752 215.813 103.111 215.794C103.47 215.774 103.829 215.833 104.163 215.968C104.331 215.453 104.343 214.9 104.197 214.378C104.052 213.856 103.755 213.39 103.345 213.037C102.935 212.684 102.431 212.462 101.895 212.397C101.359 212.332 100.815 212.428 100.334 212.673C99.8524 212.918 99.4541 213.301 99.1894 213.773C98.9247 214.246 98.8054 214.786 98.8468 215.326C98.8881 215.866 99.0881 216.382 99.4215 216.808C99.7549 217.234 100.207 217.551 100.72 217.72V217.72C100.76 217.733 100.8 217.745 100.841 217.757Z" fill="white"/>
<path d="M101.657 216.762C102.175 216.762 102.596 216.34 102.596 215.82C102.596 215.3 102.175 214.878 101.657 214.878C101.138 214.878 100.718 215.3 100.718 215.82C100.718 216.34 101.138 216.762 101.657 216.762Z" fill="#3F3D56"/>
<path d="M107.341 214.366C107.414 214.012 107.563 213.679 107.778 213.39C107.993 213.101 108.268 212.863 108.585 212.692C108.902 212.521 109.252 212.423 109.611 212.403C109.97 212.383 110.329 212.442 110.663 212.577C110.83 212.062 110.842 211.509 110.697 210.987C110.551 210.465 110.255 209.999 109.845 209.646C109.435 209.293 108.93 209.071 108.394 209.006C107.858 208.941 107.315 209.037 106.834 209.282C106.352 209.528 105.954 209.91 105.689 210.382C105.424 210.855 105.305 211.395 105.347 211.935C105.388 212.475 105.588 212.991 105.921 213.417C106.255 213.843 106.707 214.161 107.22 214.329V214.329C107.26 214.342 107.3 214.354 107.341 214.366Z" fill="white"/>
<path d="M108.501 213.319C109.02 213.319 109.44 212.897 109.44 212.377C109.44 211.856 109.02 211.434 108.501 211.434C107.983 211.434 107.562 211.856 107.562 212.377C107.562 212.897 107.983 213.319 108.501 213.319Z" fill="#3F3D56"/>
<path d="M113.213 212.311L110.007 215.59L110.331 215.909L113.537 212.63L113.213 212.311Z" fill="white"/>
<path d="M114.232 213.898L110.358 216.345L110.6 216.73L114.474 214.283L114.232 213.898Z" fill="white"/>
<path d="M103.129 219.293L98.6345 220.162L98.7202 220.609L103.215 219.74L103.129 219.293Z" fill="white"/>
<path d="M103.562 220.004L99.3885 221.891L99.5747 222.305L103.748 220.419L103.562 220.004Z" fill="white"/>
<path d="M112.875 222.863C114.108 222.863 115.108 221.86 115.108 220.622C115.108 219.385 114.108 218.382 112.875 218.382C111.642 218.382 110.643 219.385 110.643 220.622C110.643 221.86 111.642 222.863 112.875 222.863Z" fill="#CCCCCC"/>
<path d="M106.227 226.865C107.46 226.865 108.46 225.862 108.46 224.625C108.46 223.388 107.46 222.385 106.227 222.385C104.994 222.385 103.994 223.388 103.994 224.625C103.994 225.862 104.994 226.865 106.227 226.865Z" fill="#CCCCCC"/>
<path d="M105.861 205.29C104.848 204.782 104.299 208.564 104.299 208.564H106.687C106.687 208.564 106.874 205.798 105.861 205.29Z" fill="#E6E6E6"/>
<path d="M97.7991 208.735C96.8048 209.28 99.5872 211.891 99.5872 211.891L100.95 209.924C100.95 209.924 98.7934 208.191 97.7991 208.735Z" fill="#E6E6E6"/>
</g>
<defs>
<clipPath id="clip0_8_4167">
<rect width="540" height="419" fill="white"/>
</clipPath>
</defs>
</svg>
