<svg width="480" height="40" viewBox="0 0 480 40" fill="none" xmlns="http://www.w3.org/2000/svg">
<g clip-path="url(#clip0_27_24)">
<g clip-path="url(#clip1_27_24)">
<path d="M-240 -32C80.0002 -43.6666 1360 -43.6665 1680 -31.9998C2000 -20.3331 1720 33.0001 1680 38.0001C1640 43.0001 1520 -1.99985 1440 -1.99985C1360 -1.99986 1280 38.0001 1200 38.0001C1120 38.0001 1040 -1.99989 960 -1.9999C880 -1.9999 800 38 720 38C640 38 560 -1.99993 480 -1.99994C400 -1.99994 320 38 240 38C160 38 80.0002 -1.99997 0.000165382 -1.99998C-79.9998 -1.99999 -200 42.9999 -240 37.9999C-280 32.9999 -560 -20.3333 -240 -32C80.0002 -43.6666 1360 -43.6665 1680 -31.9998Z" fill="#303034"/>
<path d="M1680 38C1640 31.3333 1520 -1.99996 1440 -1.99997C1360 -1.99998 1280 38 1200 38C1120 38 1040 -2 960 -2.00001C880 -2.00002 800 37.9999 720 37.9999C640 37.9999 560 -2.00005 480 -2.00005C400 -2.00006 320 37.9999 240 37.9999C160 37.9999 80.0001 -2.00009 0.000134411 -2.00009C-79.9999 -2.0001 -200 31.3332 -240 37.9998" stroke="#303034" stroke-width="3" stroke-linecap="round" stroke-linejoin="round"/>
</g>
</g>
<defs>
<clipPath id="clip0_27_24">
<rect width="480" height="40" fill="white"/>
</clipPath>
<clipPath id="clip1_27_24">
<rect width="1440" height="39.9999" fill="white" transform="translate(1440 40) rotate(-180)"/>
</clipPath>
</defs>
</svg>
