<?xml version="1.0" encoding="utf-8"?>
<!-- Generator: Adobe Illustrator 27.0.0, SVG Export Plug-In . SVG Version: 6.00 Build 0)  -->
<svg version="1.1" id="Livello_1" xmlns="http://www.w3.org/2000/svg" xmlns:xlink="http://www.w3.org/1999/xlink" x="0px" y="0px"
	 viewBox="0 0 859.1 632.7" style="enable-background:new 0 0 859.1 632.7;" xml:space="preserve">
<style type="text/css">
	.st0{fill:#F2F2F2;}
	.st1{fill:#CCCCCC;}
	.st2{fill:#A0616A;}
	.st3{fill:#2F2E41;}
	.st4{fill:#0055D3;}
	.st5{fill:#3F3D56;}
</style>
<path id="bf948e58-f613-467a-9468-983dc892a127-129" class="st0" d="M797.5,630.2c-10.6-0.4-20.2-4.7-24.6-11.3
	c-0.2-0.3-0.4-0.6-0.6-0.9c-1.6-2.8-2.1-6.1-0.3-8.8c1.7-2.8,6.1-4.9,10.5-4.5s7.8,3.9,6,6.7c-0.4-5.6-0.7-11.4,3.8-16.3
	c2.5-2.5,5.7-4.2,9.2-4.8c9.1-1.6,15.1,3.5,16.3,8.7c0.9,3.8-0.3,7.7-1.6,11.5c3.8-4.5,12.7-6.4,19.6-4.3s10.7,8,8.3,12.9
	c-2.8,5.8-12,8.7-20.5,10.3C816.4,630.6,805.8,630.6,797.5,630.2z"/>
<path id="b42aec13-b3c1-4211-a06e-06d70154504c-130" class="st0" d="M62.5,630.2c10.6-0.4,20.2-4.7,24.6-11.3
	c0.2-0.3,0.4-0.6,0.6-0.9c1.6-2.8,2.1-6.1,0.3-8.8s-6.1-4.9-10.5-4.5s-7.8,3.9-6,6.7c0.4-5.6,0.7-11.4-3.8-16.3
	c-2.5-2.5-5.7-4.2-9.2-4.8c-9.1-1.6-15.1,3.5-16.3,8.7c-0.9,3.8,0.3,7.7,1.6,11.5c-3.8-4.5-12.7-6.4-19.6-4.3s-10.7,8-8.3,12.9
	c2.8,5.8,12,8.7,20.5,10.3C43.6,630.6,54.2,630.6,62.5,630.2z"/>
<rect id="ff921942-c1a5-4092-8e51-cfff0188952a" y="629.2" class="st1" width="859.1" height="3.4"/>
<path id="a8ec5313-8437-40fa-9ae6-49ad9c080ae2-131" class="st2" d="M346.4,108.2c0,0.7,0,1.4,0.1,2.1l-47.6,40l-14.2-5.1
	l-10.6,20.4l31,14.8l52.1-58.4c7.1,1.3,14-3.4,15.3-10.6c1.3-7.1-3.4-14-10.6-15.3c-7.1-1.3-14,3.4-15.3,10.6
	C346.5,107.1,346.4,107.7,346.4,108.2L346.4,108.2z"/>
<path id="b5ad9c77-52a4-4655-bf33-f0307720c346-132" class="st1" d="M282.5,175.3l-46-16.6c-8.8-3.2-13.3-12.9-10.2-21.7
	s12.9-13.3,21.7-10.2l46,16.6c2.9,1.1,4.4,4.3,3.4,7.2l0,0l-7.7,21.2C288.7,174.8,285.5,176.4,282.5,175.3L282.5,175.3z"/>
<path id="ee570c5a-79aa-496e-9580-2e913ce96aae-133" class="st2" d="M248.9,337h15.4l7.3-59.3h-22.7L248.9,337z"/>
<path id="ab71c019-c25e-46eb-a51f-1c429aa2c12d-134" class="st3" d="M293.9,351.3l-48.3,0l0-18.7l29.6,0
	C285.5,332.6,293.9,341,293.9,351.3L293.9,351.3z"/>
<path id="f36d9583-efe1-4c6b-b146-57ada20cd73c-135" class="st2" d="M210.9,317.1l12.6,8.8l40.1-44.3l-18.6-13L210.9,317.1z"/>
<path id="efce1b5c-13fd-487e-9a00-7bbfe0293cc7-136" class="st3" d="M238,351.7l-39.5-27.8l10.7-15.3l24.2,17
	C241.9,331.6,243.9,343.2,238,351.7L238,351.7L238,351.7z"/>
<path id="b962c087-78c3-438a-b2f2-2ecccfec7131-137" class="st2" d="M282.5,230.2c0,0,38.3-4.5,31.5,20.4S230.4,297,230.4,297
	L282.5,230.2z"/>
<circle id="b4ce5f2d-2188-4402-bc9c-1bcfffccb703" class="st2" cx="256.1" cy="72.5" r="30.8"/>
<path id="bec54b22-7d61-4f61-9a6e-d6909ce0cfb7-138" class="st1" d="M157.9,291.9c-17.5-20.4-23.6-51.7,4.3-77.7
	c6.9-6.3,14.7-11.5,23.2-15.4l22.5-63c4.8-13.5,17.4-22.6,31.7-22.8c13.9-0.6,26.6,7.6,31.9,20.5c2.7,6.4,3.1,13.6,0.9,20.2
	c-6.7,20.9-15.5,41-26.3,60.1l1.2,9.3l56.9,5.1l-0.5,0.9c-0.3,0.5-28.1,42.9-63.8,71.1c-12.2,9.6-24.8,13.6-36.7,13.6
	C185.2,313.6,168.8,304.5,157.9,291.9z"/>
<path id="f5e0fb0e-7954-451a-aeef-f3006d7ce30b-139" class="st3" d="M152.6,82.1c5.4-6.5,7.8-15,9.7-23.2c3-13.1,5.3-26.6,11.9-38.3
	S192.8-0.7,206.2,0c13.3,0.7,24.1,11.4,29.8,23.6c2.8-1.1,5.9-0.9,8.6,0.4c4.1,2.3,5.7,8.7,2.2,11.9c7.3-3.5,15.7-3.7,23.2-0.6
	c9.7,4.1,16.2,13.3,17,23.8c0.3,4.2-1.2,8.4-4.1,11.4c-5.9,6.1-14.3,4-21.7,2.4c-7-1.5-15.6-1.9-19.5,4.8c-1.6,2.8-2,6.1-1.2,9.2
	c1.5,6.7,6.5,11.3,11.2,15.8l0.8,1.5c-16.9,3.3-35.4-8.3-39.8-24.9s5.8-35.9,22.2-41.4l0,0c-3.4,0.1-6.2-2.5-6.3-5.9
	c0-1.1,0.2-2.3,0.8-3.2c-4.5-2.5-9.6-3.8-14.8-3.7c-8.4,0.6-15.7,6.6-20.1,13.8S188,54.4,186,62.6s-4.2,16.6-8.9,23.6
	c-11.5,17.2-34.8,21.9-52.1,10.4c-3-2-5.8-4.5-8.1-7.3C129.1,95.2,143.7,92.2,152.6,82.1z"/>
<path class="st4" d="M390,165.9c-21.4,0-38.8-17.4-38.8-38.8c0-21.4,17.4-38.8,38.8-38.8c21.4,0,38.8,17.4,38.8,38.8
	C428.8,148.5,411.5,165.8,390,165.9z"/>
<path class="st4" d="M390,94.7c-17.9,0-32.3,14.5-32.3,32.3s14.5,32.3,32.3,32.3s32.3-14.5,32.3-32.3v0
	C422.3,109.2,407.9,94.7,390,94.7L390,94.7z"/>
<path class="st4" d="M388.8,78.6c-1.8,0-3.2-1.4-3.2-3.2V38.1c0-1.8,1.4-3.2,3.2-3.2s3.2,1.4,3.2,3.2v37.2
	C392,77.1,390.5,78.6,388.8,78.6z"/>
<path class="st4" d="M338.3,129h-37.2c-1.8,0-3.2-1.4-3.2-3.2s1.4-3.2,3.2-3.2h37.2c1.8,0,3.2,1.4,3.2,3.2S340.1,129,338.3,129z"/>
<path class="st4" d="M474.1,129h-37.2c-1.8,0-3.2-1.4-3.2-3.2s1.4-3.2,3.2-3.2h37.2c1.8,0,3.2,1.4,3.2,3.2S475.9,129,474.1,129z"/>
<path class="st4" d="M435.9,93.7c-1.8,0-3.2-1.4-3.2-3.2c0-0.9,0.4-1.7,1-2.3L449.2,73c1.3-1.2,3.3-1.2,4.6,0.1s1.2,3.3-0.1,4.6
	c0,0,0,0,0,0l-15.6,15.1C437.5,93.3,436.7,93.7,435.9,93.7z"/>
<path class="st4" d="M340.9,93.7c-0.8,0-1.6-0.3-2.3-0.9l-15.6-15.1c-1.3-1.2-1.3-3.3-0.1-4.6c1.2-1.3,3.3-1.3,4.6-0.1c0,0,0,0,0,0
	l15.6,15.1c1.3,1.2,1.3,3.3,0.1,4.6C342.6,93.3,341.8,93.7,340.9,93.7L340.9,93.7z"/>
<path class="st4" d="M328.6,182c-1.8,0-3.2-1.4-3.2-3.2c0-0.8,0.3-1.6,0.9-2.3l15.6-16c1.2-1.3,3.3-1.3,4.6-0.1
	c1.3,1.2,1.3,3.3,0.1,4.6l0,0l-15.6,16C330.3,181.7,329.5,182,328.6,182z"/>
<path class="st4" d="M454.7,185.3c-0.9,0-1.7-0.4-2.3-1L433.6,165c-1.2-1.3-1.2-3.3,0-4.6c1.3-1.2,3.3-1.2,4.6,0c0,0,0,0,0,0
	l18.8,19.3c1.2,1.3,1.2,3.3-0.1,4.6C456.4,184.9,455.6,185.3,454.7,185.3L454.7,185.3z"/>
<path class="st4" d="M388.8,217.6c-1.8,0-3.2-1.4-3.2-3.2v-37.2c0-1.8,1.4-3.2,3.2-3.2s3.2,1.4,3.2,3.2l0,0v37.2
	C392,216.2,390.5,217.6,388.8,217.6z"/>
<path id="b0998da5-27dc-40b2-8d45-277f647e44e1-140" class="st2" d="M347.9,151.2c-0.3,0.6-0.6,1.2-0.8,1.9L287,169l-10.7-10.7
	l-18.2,14l21.8,26.6l71.9-30.7c5.9,4.2,14.1,2.8,18.3-3.1c4.2-5.9,2.8-14.1-3.1-18.3c-5.9-4.2-14.1-2.8-18.3,3.1
	C348.5,150.3,348.2,150.7,347.9,151.2L347.9,151.2z"/>
<path id="a2d8cb05-8bad-48ca-a39c-34dd34963d12-141" class="st1" d="M261.6,184.8l-34.6-34.6c-6.6-6.6-6.6-17.3,0-23.9
	c6.6-6.6,17.3-6.6,23.9,0c0,0,0,0,0,0l0,0l34.6,34.6c2.2,2.2,2.2,5.8,0,8l0,0l-16,16C267.4,187,263.8,187,261.6,184.8L261.6,184.8z"
	/>
<g>
	<path class="st5" d="M627.9,632.2H269.8c-77.3,0-140.1-63.9-140.1-142.5s62.8-142.5,140.1-142.5h25.5c14-28.6,35.6-52.8,62.4-69.9
		c27.2-17.4,58.8-26.6,91.1-26.7c89.6,0,164.3,70.5,171.2,160.9h7.8c59.9,0,108.6,49.5,108.6,110.3S687.8,632.2,627.9,632.2z"/>
</g>
<g>
	<path class="st5" d="M269.8,353.2c-73.9,0-134.1,61.2-134.1,136.5c0,75.2,60.2,136.5,134.1,136.5h358.1
		c56.6,0,102.6-46.8,102.6-104.3s-46-104.3-102.6-104.3h-13.4l-0.2-2.8c-5.4-88.7-78.1-158.1-165.4-158.1
		c-62.9,0-121.4,37.2-149,94.8l-0.8,1.7H269.8z"/>
</g>
</svg>
