<svg width="160" height="160" viewBox="0 0 160 160" fill="none" xmlns="http://www.w3.org/2000/svg">
<g clip-path="url(#clip0_8_3962)">
<path d="M41.4669 68.9331C59.8656 68.9331 74.7807 55.3051 74.7807 38.4941C74.7807 21.6831 59.8656 8.05515 41.4669 8.05515C23.0683 8.05515 8.1532 21.6831 8.1532 38.4941C8.1532 55.3051 23.0683 68.9331 41.4669 68.9331Z" fill="#FF6884"/>
<path d="M91.2369 11.762L27.0717 44.0563C19.6595 52.7396 160.501 53.2764 159.339 44.0883L97.1181 11.794C95.3471 10.8748 93.0249 10.8621 91.2369 11.762Z" fill="#0055D3"/>
<path opacity="0.2" d="M91.2369 11.762L27.0717 44.0563C19.6595 52.7396 160.501 53.2764 159.339 44.0883L97.1181 11.794C95.3471 10.8748 93.0249 10.8621 91.2369 11.762Z" fill="black"/>
<path opacity="0.8" d="M159.073 160L142.751 159.682H30.8301L0 159.046C102.211 136.975 70.7839 138.875 159.073 160Z" fill="#F2F2F2"/>
<path d="M144.046 159.046L142.751 159.682H30.8301C107.336 145.252 61.4684 146.523 144.046 159.046Z" fill="#E6E6E6"/>
<path d="M89.9674 9.06607H94.7845L93.1601 0.700107C93.0597 0.183238 92.6751 0 92.376 0C92.0769 0 91.6923 0.183238 91.5919 0.700107L89.9674 9.06607Z" fill="#3F3D56"/>
<path d="M94.8218 36.6692H89.5107V155.029H94.8218V36.6692Z" fill="#3F3D56"/>
<path d="M92.1815 55.146C89.9156 55.146 87.7855 54.3443 86.1751 52.8835L72.771 40.7239L73.866 39.716L87.2701 51.8756C88.603 53.0847 90.3624 53.7447 92.2495 53.7255C94.1276 53.7093 95.8819 53.022 97.1897 51.7903L109.998 39.7255L111.114 40.7145L98.3054 52.7793C96.7062 54.2856 94.5607 55.1259 92.2642 55.1458C92.2366 55.146 92.2088 55.146 92.1815 55.146V55.146Z" fill="#3F3D56"/>
<path d="M94.0387 45.8629C87.4431 45.8629 80.7955 45.8423 74.3433 45.8005C60.673 45.7117 49.0017 45.5363 40.5913 45.293C26.2559 44.8784 26.1033 44.4071 26.0379 44.2061C26.023 44.1597 26.0178 44.0694 26.1528 43.9882L90.142 5.5389C91.6805 4.61196 93.6606 4.62456 95.1859 5.57195L159.879 44.0198C160.014 44.1035 160.008 44.1939 159.992 44.2404C159.911 44.4768 159.666 45.1959 131.261 45.6183C120.453 45.7791 107.355 45.8629 94.0387 45.8629Z" fill="#0055D3"/>
<path d="M106.358 102.913L98.2486 102.921C97.3406 104.765 98.5813 106.922 100.168 108.332C101.755 109.741 103.744 110.823 104.915 112.538C107.515 116.345 105.065 121.351 105.924 125.769C107.08 131.717 113.906 135.461 115.984 141.197C117.16 144.442 116.626 148.166 114.574 151.024C114.195 151.551 113.758 152.072 113.626 152.691C113.445 153.533 113.93 154.458 114.762 154.857C115.593 155.257 116.702 155.097 117.359 154.484C116.717 155.15 116.927 156.275 117.648 156.87C118.368 157.466 119.441 157.592 120.391 157.409C123.47 156.815 125.02 153.565 125.145 150.691C125.269 147.818 124.48 144.907 125.096 142.086C125.489 146.134 130.501 148.704 130.893 152.751C130.966 153.501 126.43 155.757 126.852 156.404C127.919 158.039 130.463 158.044 132.535 157.848C136.102 157.511 140.064 156.986 142.302 154.425C143.809 152.7 144.2 150.377 144.25 148.17C144.379 142.407 142.5 136.621 138.952 131.855C134.23 125.512 126.723 121.016 123.016 114.133C121.756 111.794 120.985 109.257 119.759 106.903C118.534 104.548 116.73 102.295 114.122 101.239C111.513 100.182 108.001 100.703 106.496 102.918" fill="#3F3D56"/>
<path d="M131.505 153.552C131.344 153.552 131.186 153.521 131.037 153.457C130.921 153.408 130.871 153.282 130.925 153.176C130.979 153.07 131.116 153.024 131.233 153.074C131.488 153.182 131.734 153.111 131.895 153.032C132.226 152.87 132.486 152.538 132.541 152.205C132.647 151.563 132.295 150.907 131.984 150.328C131.078 148.64 130.182 146.832 130.047 144.922C129.896 142.768 130.869 140.762 132.526 139.811C133.759 139.104 135.388 138.919 137.114 139.289C138.592 139.607 139.954 140.273 141.336 140.987C141.447 141.044 141.486 141.173 141.423 141.275C141.36 141.377 141.219 141.412 141.108 141.355C139.705 140.631 138.429 140.007 137.008 139.701C135.403 139.357 133.899 139.523 132.773 140.169C131.257 141.039 130.368 142.894 130.509 144.895C130.638 146.728 131.514 148.492 132.4 150.142C132.724 150.745 133.127 151.496 132.999 152.269C132.922 152.733 132.574 153.179 132.114 153.405C131.914 153.503 131.707 153.552 131.505 153.552Z" fill="#2F2E41"/>
<path d="M118.013 106.595C119.203 108.753 118.575 111.619 116.568 113.191C116.136 113.529 115.651 113.812 115.265 114.193C114.88 114.574 114.597 115.09 114.694 115.601C113.379 114.409 112.038 113.184 111.242 111.655C110.447 110.126 110.291 108.207 111.327 106.803C111.821 106.133 112.541 105.631 113.101 105.006C113.662 104.382 114.066 103.532 113.763 102.773" fill="#2F2E41"/>
<path d="M141.668 148.038C141.038 149.796 142.074 151.818 143.773 152.822C145.473 153.826 147.669 153.93 149.63 153.476C153.423 152.597 156.539 149.63 157.342 146.13C157.675 144.675 157.652 143.115 158.408 141.798C158.883 140.971 159.667 140.223 159.69 139.288C159.708 138.529 159.169 137.808 158.433 137.455C157.697 137.102 156.801 137.089 156.008 137.319C154.12 137.868 152.961 139.615 152.36 141.34C151.759 143.065 151.535 144.91 150.662 146.535C149.789 148.16 147.984 149.579 146.021 149.331C144.324 149.117 142.887 147.718 141.187 147.909" fill="#3F3D56"/>
<path d="M46.8206 126.108C44.5246 126.43 42.8452 127.773 43.0694 129.108C43.2936 130.443 45.3363 131.264 47.633 130.942C48.5524 130.825 49.4277 130.509 50.1857 130.019L66.7943 127.733L67.4202 122.49L49.5596 126.29C48.6756 126.031 47.7364 125.968 46.8206 126.108H46.8206Z" fill="#FFB6B6"/>
<path d="M88.659 115.178L84.8943 122.477L65.9686 128.298L66.8908 122.366L84.3556 114.825L88.659 115.178Z" fill="#E6E6E6"/>
<path d="M53.753 142.893L50.3731 150.705L45.999 147.98L48.5837 139.805L53.753 142.893Z" fill="#FFB6B6"/>
<path d="M39.6367 139.987L30.6898 147.798L34.2686 151.25L43.4143 144.71L39.6367 139.987Z" fill="#FFB6B6"/>
<path d="M90.3359 114.554L90.2365 113.918L87.9501 109.831L80.3949 111.647L81.7866 117.279L90.3359 114.554Z" fill="#FFB6B6"/>
<path d="M87.1547 141.803L87.3871 144.532C87.3871 144.532 88.3476 155.973 80.5937 156.881C72.8397 157.79 69.4597 158.698 64.8869 151.613L57.7294 139.987L53.5487 144.532L47.9872 140.532C47.9872 140.532 51.9636 126.362 55.1447 125.817C55.5423 125.749 55.94 125.715 56.3314 125.707C58.965 125.657 61.4475 126.834 63.0232 128.763L72.0444 139.805L75.3249 138.443L87.1547 141.803V141.803Z" fill="#2F2E41"/>
<path d="M44.2096 150.341L46.2186 147.633L50.8293 149.633C50.8293 149.633 52.3612 154.52 50.5718 155.065C48.7824 155.61 43.8119 154.883 43.8119 154.883C43.8119 154.883 34.6662 156.7 34.4674 155.065C34.2686 153.43 38.6426 153.066 38.6426 153.066L44.2096 150.341L44.2096 150.341L44.2096 150.341Z" fill="#FFB6B6"/>
<path d="M63.6939 148.161L49.8759 140.206L42.8178 145.982L38.0461 140.895C38.0461 140.895 46.7942 129.087 49.3789 128.542C51.9635 127.997 56.1388 127.634 56.1388 127.634L68.8632 138.352L63.6939 148.161V148.161L63.6939 148.161Z" fill="#2F2E41"/>
<path d="M31.6532 147.101L34.5752 150.91L34.4609 152.084C34.4609 152.084 33.2745 156.806 30.491 155.208C27.7076 153.611 27.5087 153.248 27.5087 153.248C27.5087 153.248 19.5559 154.883 18.7607 151.976C17.9654 149.07 20.1524 149.615 20.1524 149.615L22.1383 150.705L29.8791 148.34L31.6532 147.101V147.101Z" fill="#FFB6B6"/>
<path d="M82.7807 113.646C86.2945 113.646 89.1429 111.043 89.1429 107.832C89.1429 104.622 86.2945 102.019 82.7807 102.019C79.2669 102.019 76.4185 104.622 76.4185 107.832C76.4185 111.043 79.2669 113.646 82.7807 113.646Z" fill="#FFB6B6"/>
<path d="M81.2895 116.098L90.4352 113.555C90.4352 113.555 94.014 121.185 93.4175 124.636C92.8211 128.088 87.3871 144.532 87.3871 144.532L75.3249 138.443C75.3249 138.443 75.1261 134.809 74.5296 133.174C73.9332 131.539 72.0444 126.544 76.2196 122.365C80.3948 118.187 81.2895 116.098 81.2895 116.098L81.2895 116.098Z" fill="#E6E6E6"/>
<path d="M61.1604 154.244C59.672 155.873 59.3856 157.896 60.5205 158.761C61.6555 159.626 63.7818 159.007 65.2705 157.377C65.8749 156.733 66.3019 155.966 66.5156 155.141L80.6051 140.706L76.2389 138.549L63.3456 152.724C62.4948 153.064 61.7455 153.585 61.1604 154.244L61.1604 154.244V154.244Z" fill="#FFB6B6"/>
<path d="M88.3047 119.763L90.4664 127.587L79.8862 143.061L80.8411 142.862L75.0588 138.981L76.4774 137.942L84.7341 121.986L88.3047 119.763Z" fill="#E6E6E6"/>
<path d="M76.9155 106.833C78.5472 106.83 78.6398 106.84 78.9037 106.833C80.9275 106.784 81.4567 106.057 82.4825 106.107C84.3133 106.195 81.8969 114.582 80.8919 118.46C79.9063 122.262 83.2372 125.67 83.4766 125.908C86.8575 129.267 92.7962 129.882 93.8152 128.451C94.64 127.293 91.7169 125.532 92.4235 123.001C93.1142 120.527 96.3036 120.79 97.1952 118.46C98.1288 116.019 94.9912 114.787 93.0199 108.831C91.8878 105.411 92.0881 104.774 91.0317 102.655C88.2081 96.992 74.3677 99.4031 75.9214 104.653C76.222 105.669 75.4221 106.836 76.9155 106.833V106.833Z" fill="#2F2E41"/>
</g>
<defs>
<clipPath id="clip0_8_3962">
<rect width="160" height="160" fill="white"/>
</clipPath>
</defs>
</svg>
