<svg width="100" height="100" viewBox="0 0 100 100" fill="none" xmlns="http://www.w3.org/2000/svg">
<path d="M50 20C51.3261 20 52.5979 19.4732 53.5355 18.5355C54.4732 17.5979 55 16.3261 55 15V5C55 3.67392 54.4732 2.40215 53.5355 1.46447C52.5979 0.526784 51.3261 0 50 0C48.6739 0 47.4021 0.526784 46.4645 1.46447C45.5268 2.40215 45 3.67392 45 5V15C45 16.3261 45.5268 17.5979 46.4645 18.5355C47.4021 19.4732 48.6739 20 50 20Z" fill="#006686"/>
<path d="M95 45H85C83.6739 45 82.4021 45.5268 81.4645 46.4645C80.5268 47.4021 80 48.6739 80 50C80 51.3261 80.5268 52.5979 81.4645 53.5355C82.4021 54.4732 83.6739 55 85 55H95C96.3261 55 97.5979 54.4732 98.5355 53.5355C99.4732 52.5979 100 51.3261 100 50C100 48.6739 99.4732 47.4021 98.5355 46.4645C97.5979 45.5268 96.3261 45 95 45Z" fill="#006686"/>
<path d="M20 50C20 48.6739 19.4732 47.4021 18.5355 46.4645C17.5979 45.5268 16.3261 45 15 45H5C3.67392 45 2.40215 45.5268 1.46447 46.4645C0.526784 47.4021 0 48.6739 0 50C0 51.3261 0.526784 52.5979 1.46447 53.5355C2.40215 54.4732 3.67392 55 5 55H15C16.3261 55 17.5979 54.4732 18.5355 53.5355C19.4732 52.5979 20 51.3261 20 50Z" fill="#006686"/>
<path d="M21.1 15C20.1253 14.0784 18.8245 13.5817 17.4836 13.6192C16.1427 13.6567 14.8716 14.2253 13.95 15.2C13.0284 16.1747 12.5317 17.4755 12.5692 18.8164C12.6067 20.1573 13.1753 21.4284 14.15 22.35L21.35 29.3C21.8332 29.7665 22.4054 30.1309 23.0325 30.3715C23.6596 30.612 24.3288 30.7237 25 30.7C25.6735 30.6974 26.3396 30.5588 26.9582 30.2924C27.5768 30.0261 28.1353 29.6375 28.6 29.15C29.5312 28.2132 30.054 26.9459 30.054 25.625C30.054 24.3041 29.5312 23.0368 28.6 22.1L21.1 15Z" fill="#006686"/>
<path d="M75 30.7C76.2873 30.6949 77.5231 30.1934 78.45 29.3L85.65 22.35C86.5283 21.4323 87.0244 20.2146 87.0375 18.9444C87.0506 17.6741 86.5797 16.4465 85.7204 15.5109C84.8612 14.5753 83.678 14.0018 82.4112 13.9069C81.1444 13.812 79.889 14.2028 78.9 15L71.7 22.1C70.7687 23.0368 70.246 24.3041 70.246 25.625C70.246 26.946 70.7687 28.2132 71.7 29.15C72.5657 30.0636 73.7441 30.6171 75 30.7Z" fill="#006686"/>
<path d="M50 80C48.6739 80 47.4021 80.5268 46.4645 81.4645C45.5268 82.4021 45 83.6739 45 85V95C45 96.3261 45.5268 97.5979 46.4645 98.5355C47.4021 99.4732 48.6739 100 50 100C51.3261 100 52.5979 99.4732 53.5355 98.5355C54.4732 97.5979 55 96.3261 55 95V85C55 83.6739 54.4732 82.4021 53.5355 81.4645C52.5979 80.5268 51.3261 80 50 80Z" fill="#006686"/>
<path d="M78.65 70.7C77.6952 69.7784 76.4134 69.2738 75.0866 69.2973C73.7598 69.3207 72.4966 69.8703 71.575 70.825C70.6534 71.7798 70.1488 73.0616 70.1722 74.3884C70.1957 75.7153 70.7452 76.9784 71.7 77.9L78.9 85C79.8269 85.8934 81.0627 86.3949 82.35 86.4C83.02 86.404 83.6839 86.2732 84.3023 86.0155C84.9207 85.7578 85.481 85.3785 85.95 84.9C86.4186 84.4352 86.7906 83.8822 87.0445 83.2729C87.2983 82.6636 87.429 82.0101 87.429 81.35C87.429 80.69 87.2983 80.0365 87.0445 79.4272C86.7906 78.8179 86.4186 78.2649 85.95 77.8L78.65 70.7Z" fill="#006686"/>
<path d="M21.35 70.7L14.15 77.65C13.6814 78.1148 13.3094 78.6678 13.0556 79.2771C12.8017 79.8864 12.671 80.5399 12.671 81.2C12.671 81.8601 12.8017 82.5136 13.0556 83.1229C13.3094 83.7322 13.6814 84.2852 14.15 84.75C14.619 85.2285 15.1793 85.6078 15.7977 85.8655C16.4162 86.1231 17.0801 86.2539 17.75 86.25C18.9826 86.2605 20.1756 85.8154 21.1 85L28.3 78.05C29.2548 77.1284 29.8044 75.8652 29.8278 74.5384C29.8512 73.2116 29.3466 71.9298 28.425 70.975C27.5034 70.0202 26.2402 69.4707 24.9134 69.4472C23.5866 69.4238 22.3048 69.9284 21.35 70.85V70.7Z" fill="#006686"/>
<path d="M50 30C46.0444 30 42.1776 31.173 38.8886 33.3706C35.5996 35.5682 33.0362 38.6918 31.5224 42.3463C30.0087 46.0009 29.6126 50.0222 30.3843 53.9018C31.156 57.7814 33.0608 61.3451 35.8579 64.1421C38.6549 66.9392 42.2186 68.844 46.0982 69.6157C49.9778 70.3874 53.9992 69.9913 57.6537 68.4776C61.3082 66.9638 64.4318 64.4004 66.6294 61.1114C68.827 57.8224 70 53.9556 70 50C70 44.6957 67.8929 39.6086 64.1421 35.8579C60.3914 32.1071 55.3043 30 50 30Z" fill="#006686"/>
</svg>
