<svg width="31" height="31" viewBox="0 0 31 31" fill="none" xmlns="http://www.w3.org/2000/svg">
<path fill-rule="evenodd" clip-rule="evenodd" d="M3.74706 6.39388L1.46722 4.11404C1.40167 4.04832 1.31808 4.00355 1.22705 3.98539C1.13601 3.96724 1.04164 3.97652 0.95589 4.01207C0.87014 4.04761 0.796874 4.10782 0.745383 4.18505C0.693891 4.26228 0.666491 4.35307 0.666657 4.44589V11.2817C0.666657 11.5404 0.876642 11.7504 1.13537 11.7504H7.97113C8.06396 11.7505 8.15474 11.7231 8.23198 11.6716C8.30921 11.6202 8.36942 11.5469 8.40496 11.4611C8.44051 11.3754 8.44979 11.281 8.43164 11.19C8.41348 11.0989 8.36871 11.0154 8.30299 10.9498L5.75692 8.40374C7.41661 6.08574 9.83645 4.42299 12.5954 3.70477C15.3544 2.98656 18.2778 3.25835 20.8571 4.47285C23.4364 5.68735 25.5082 7.76769 26.7122 10.3519C27.9161 12.9361 28.1759 15.8607 27.4464 18.6167C26.7169 21.3727 25.0443 23.7857 22.7195 25.4359C20.3948 27.0861 17.565 27.869 14.7227 27.6484C11.8803 27.4279 9.20524 26.2178 7.16288 24.2287C5.12052 22.2396 3.84017 19.5974 3.54458 16.7619C3.50629 16.3907 3.32211 16.0499 3.03257 15.8145C2.74302 15.5791 2.37182 15.4684 2.00062 15.5067C1.62943 15.545 1.28865 15.7291 1.05325 16.0187C0.81785 16.3082 0.707114 16.6794 0.745402 17.0506C1.1061 20.5214 2.66555 23.7579 5.15528 26.2029C7.64501 28.6479 10.9092 30.1484 14.386 30.4461C17.8628 30.7438 21.3347 29.8201 24.2038 27.834C27.073 25.8479 29.1599 22.9236 30.1055 19.5647C31.051 16.2057 30.7959 12.6222 29.3841 9.43099C27.9723 6.23981 25.4922 3.64067 22.3706 2.081C19.249 0.521323 15.6814 0.0987101 12.2818 0.885911C8.88225 1.67311 5.86348 3.62087 3.74519 6.39388H3.74706ZM15.1969 8.00064C15.5698 8.00064 15.9275 8.14879 16.1912 8.41249C16.4549 8.6762 16.603 9.03385 16.603 9.40679V15.0164L20.4052 16.5388C20.7403 16.6848 21.0053 16.9556 21.1441 17.2938C21.2829 17.6319 21.2846 18.0108 21.1488 18.3502C21.0131 18.6895 20.7505 18.9627 20.4167 19.1117C20.083 19.2608 19.7043 19.274 19.3609 19.1486L14.6738 17.2737C14.4131 17.1693 14.1897 16.9891 14.0323 16.7566C13.8749 16.524 13.7908 16.2496 13.7907 15.9688V9.40679C13.7907 9.03385 13.9389 8.6762 14.2026 8.41249C14.4663 8.14879 14.8239 8.00064 15.1969 8.00064Z" fill="#006686"/>
</svg>
