<svg width="383" height="45" viewBox="0 0 383 45" fill="none" xmlns="http://www.w3.org/2000/svg">
<line x1="8.74228e-08" y1="34" x2="184" y2="34" stroke="#70787D" stroke-width="2"/>
<line x1="34" y1="25" x2="218" y2="25" stroke="#70787D" stroke-width="4"/>
<line x1="320" y1="25.5" x2="233" y2="25.5" stroke="#70787D" stroke-width="4" stroke-dasharray="25 25"/>
<path d="M374.693 8.80668C373.913 9.58668 373.848 10.8 374.542 11.6667C377.683 15.61 379.33 21.005 377.857 26.66C376.145 33.2683 370.967 38.2083 364.402 39.53C353.352 41.7183 343.667 33.1817 343.667 22.5C343.667 13.66 350.275 6.38001 358.833 5.31835V9.69501C352.052 10.8433 347.068 17.1917 348.152 24.4933C348.997 30.1483 353.698 34.6983 359.375 35.3917C367.262 36.3667 374 30.2133 374 22.5C374 19.7917 373.177 17.3 371.768 15.22C371.032 14.1367 369.45 14.0717 368.518 14.9817L368.497 15.0033C367.76 15.74 367.695 16.8883 368.258 17.755C369.558 19.7483 370.078 22.305 369.32 24.9483C368.475 27.9167 365.983 30.2783 362.95 30.95C357.317 32.185 352.333 27.9383 352.333 22.5C352.333 18.47 355.107 15.1117 358.833 14.1367V18.7733C357.533 19.5317 356.667 20.8967 356.667 22.5C356.667 24.8833 358.617 26.8333 361 26.8333C363.383 26.8333 365.333 24.8833 365.333 22.5C365.333 20.8967 364.467 19.51 363.167 18.7733V2.37168C363.167 1.52668 362.473 0.833345 361.628 0.833345C350.015 0.400012 340.005 9.63001 339.377 21.2C338.597 35.3917 351.098 46.81 365.398 43.7333C373.805 41.935 380.305 35.5 382.19 27.115C383.728 20.2683 381.757 13.7683 377.922 8.98001C377.12 7.96168 375.603 7.89668 374.693 8.80668Z" fill="#70787D"/>
</svg>
