<svg width="30" height="30" viewBox="0 0 30 30" fill="none" xmlns="http://www.w3.org/2000/svg">
<path d="M29.9036 8.85464C29.8853 7.59563 29.6524 6.3466 29.2067 5.16909C28.4267 3.15833 26.8384 1.56836 24.8276 0.789999C23.6651 0.352589 22.436 0.118084 21.192 0.0914737C19.592 0.019958 19.0847 0 15.0233 0C10.9619 0 10.4413 1.11523e-07 8.85301 0.0914737C7.61063 0.118084 6.38156 0.352589 5.21902 0.789999C3.20826 1.56836 1.61828 3.15833 0.839926 5.16909C0.402516 6.33163 0.166348 7.56071 0.143063 8.80308C0.0715478 10.4047 0.0499268 10.912 0.0499268 14.9734C0.0499268 19.0348 0.0499267 19.5537 0.143063 21.1437C0.168011 22.3877 0.402516 23.6151 0.839926 24.781C1.61995 26.7901 3.20826 28.3801 5.22068 29.1584C6.37823 29.6108 7.60731 29.8669 8.85467 29.9069C10.4563 29.9784 10.9636 30 15.025 30C19.0864 30 19.607 30 21.1953 29.9069C22.4377 29.8819 23.6667 29.6474 24.8309 29.21C26.8417 28.43 28.43 26.84 29.21 24.8309C29.6474 23.6667 29.882 22.4393 29.9069 21.1936C29.9784 19.5936 30 19.0864 30 15.0233C29.9967 10.9619 29.9967 10.4463 29.9036 8.85464V8.85464ZM15.0133 22.6538C10.7656 22.6538 7.32457 19.2128 7.32457 14.9651C7.32457 10.7174 10.7656 7.27631 15.0133 7.27631C19.2577 7.27631 22.7021 10.7174 22.7021 14.9651C22.7021 19.2128 19.2577 22.6538 15.0133 22.6538ZM23.0081 8.78479C22.0152 8.78479 21.2152 7.98315 21.2152 6.99191C21.2152 6.00067 22.0152 5.19902 23.0081 5.19902C23.9977 5.19902 24.7993 6.00067 24.7993 6.99191C24.7993 7.98315 23.9977 8.78479 23.0081 8.78479Z" fill="#006C4F"/>
<path d="M15.0134 19.9595C17.7717 19.9595 20.0078 17.7234 20.0078 14.965C20.0078 12.2067 17.7717 9.97058 15.0134 9.97058C12.255 9.97058 10.0189 12.2067 10.0189 14.965C10.0189 17.7234 12.255 19.9595 15.0134 19.9595Z" fill="#006C4F"/>
</svg>
