<?xml version="1.0" encoding="UTF-8"?>
<svg id="b" data-name="Livello 2" xmlns="http://www.w3.org/2000/svg" width="399.25mm" height="422.27mm" viewBox="0 0 1131.73 1197">
  <g id="c" data-name="Livello 1">
    <g>
      <path d="M536.4,202.74C500.3,113.46,431.48,40.93,344.8,0c7.28,105.01,88.27,189.72,191.6,202.74Z" fill="#006c4f"/>
      <path d="M783,0c-86.68,40.93-155.5,113.46-191.6,202.74,103.33-13.02,184.32-97.73,191.6-202.74Z" fill="#006c4f"/>
      <path d="M653.88,585.35c-5.52-28.9-5.01-50.98-4.74-58.3,1.3-34.32,9.74-61.98,16.87-80.2-51.7,32.5-90.67,65.09-117.79,90.26-44.29,41.11-70.02,65.57-85.23,107.72-3.49,9.68-8.45,23.44-11.18,39.63-8.4,2.18-84.35,21.71-111.33,21.71,26.73,0,101.5,19.16,111.08,21.65,1.45,8.28,3.86,16.76,7.58,25.33,15.99,36.83,54.88,73.03,104.47,73.69,34.61,.46,62.54-16.55,82.62-38.21,11.42-11.1,20.54-24.53,26.59-39.55,1.56-3.35,2.95-6.65,4.13-9.84,.82-2.21,2.21-6.16,3.58-11.46,10.15-2.63,84.33-21.61,110.93-21.61-24.41,0-88.88-15.98-107.18-20.65-3.01-32.67-20.74-49.49-30.42-100.18Z" fill="#016686"/>
      <path d="M786.89,966.79c-56.17,0-102.91,40.24-113.04,93.45v-.16s-83.52,21.91-112.1,21.91c28.58,0,112.1,21.91,112.1,21.91v-.37c10.13,53.21,56.88,93.45,113.04,93.45,63.57,0,115.1-51.53,115.1-115.1s-51.53-115.1-115.1-115.1Z" fill="#016686"/>
      <path d="M449.64,1061.6c-9.59-53.88-56.64-94.81-113.28-94.81-63.57,0-115.1,51.53-115.1,115.1s51.53,115.1,115.1,115.1c56.64,0,103.69-40.92,113.28-94.81v1.72s83.52-21.91,112.1-21.91c-28.58,0-112.1-21.91-112.1-21.91v1.51Z" fill="#016686"/>
      <path d="M673.85,351.89c10.13,53.21,56.88,93.45,113.04,93.45,63.57,0,115.1-51.53,115.1-115.1s-51.53-115.1-115.1-115.1c-56.17,0-102.91,40.24-113.04,93.45v-.16s-83.52,21.91-112.1,21.91c28.58,0,112.1,21.91,112.1,21.91v-.37Z" fill="#016686"/>
      <path d="M336.36,445.34c56.64,0,103.69-40.92,113.28-94.81v1.72s83.52-21.91,112.1-21.91c-28.58,0-112.1-21.91-112.1-21.91v1.51c-9.59-53.88-56.64-94.81-113.28-94.81-63.57,0-115.1,51.53-115.1,115.1s51.53,115.1,115.1,115.1Z" fill="#016686"/>
      <path d="M1016.63,590.96c-56.17,0-102.91,40.24-113.04,93.45v-.16s-83.52,21.91-112.1,21.91c28.58,0,112.1,21.91,112.1,21.91v-.37c10.13,53.21,56.88,93.45,113.04,93.45,63.57,0,115.1-51.53,115.1-115.1s-51.53-115.1-115.1-115.1Z" fill="#016686"/>
      <path d="M228.39,685.77c-9.59-53.88-56.64-94.81-113.28-94.81-63.57,0-115.1,51.53-115.1,115.1s51.53,115.1,115.1,115.1c56.64,0,103.69-40.92,113.28-94.81v1.72s83.52-21.91,112.1-21.91c-28.58,0-112.1-21.91-112.1-21.91v1.51Z" fill="#016686"/>
    </g>
  </g>
</svg>