<svg width="26" height="26" viewBox="0 0 26 26" fill="none" xmlns="http://www.w3.org/2000/svg">
<path d="M19.0687 16.7672H17.8646L17.4378 16.3556C19.2669 14.2217 20.2119 11.3105 19.6936 8.21639C18.9773 3.97912 15.4411 0.595392 11.1734 0.0771635C4.72599 -0.715421 -0.700162 4.71073 0.0924223 11.1581C0.61065 15.4259 3.99438 18.962 8.23165 19.6784C11.3258 20.1966 14.237 19.2516 16.3709 17.4226L16.7824 17.8493V19.0535L23.2603 25.5313C23.8852 26.1562 24.9064 26.1562 25.5313 25.5313C26.1562 24.9064 26.1562 23.8852 25.5313 23.2602L19.0687 16.7672ZM9.92351 16.7672C6.12825 16.7672 3.06461 13.7035 3.06461 9.90825C3.06461 6.113 6.12825 3.04935 9.92351 3.04935C13.7188 3.04935 16.7824 6.113 16.7824 9.90825C16.7824 13.7035 13.7188 16.7672 9.92351 16.7672Z" fill="#40484C"/>
</svg>
