<svg width="25" height="44" viewBox="0 0 25 44" fill="none" xmlns="http://www.w3.org/2000/svg">
<path d="M19.5155 0C19.2541 0.000298467 18.9978 0.0726141 18.7748 0.209009C18.0854 0.616026 16.9377 1.76924 15.57 3.44131L15.284 3.79332C14.921 4.24434 14.5451 4.73203 14.1583 5.24722C12.8428 7.00486 11.6094 8.82249 10.4621 10.6943L10.4218 10.7603L10.3411 10.8923C9.21608 12.7294 8.17068 14.614 7.2078 16.541C6.45104 18.066 5.77779 19.631 5.19105 21.2291C5.02421 21.6892 4.87204 22.1329 4.7327 22.5601C4.61903 22.925 4.50903 23.2898 4.40635 23.6528C4.16251 24.509 3.95167 25.3652 3.77933 26.2159L3.78116 26.2196L3.75733 26.3314C3.55193 27.3558 3.40927 28.3918 3.33014 29.4336L3.32098 29.5417C2.80762 28.7185 1.4344 27.9173 1.43623 27.9247C2.42077 29.3511 3.16697 30.7664 3.27697 32.1562C2.75079 32.2643 2.02842 32.1085 1.19422 31.8005C2.06326 32.5999 2.71595 32.8199 2.97079 32.8785C2.17143 32.928 1.34089 33.4781 0.503025 34.1088C1.72774 33.6082 2.71778 33.4121 3.42731 33.5716C2.22232 37.0217 1.09571 40.4988 0.0483398 44C0.204632 43.9556 0.347436 43.873 0.463921 43.7597C0.580406 43.6464 0.666924 43.506 0.715701 43.351C0.917376 42.6744 2.25026 38.2431 4.34035 32.4165L4.52003 31.916L4.57136 31.7767C4.79137 31.1661 5.02055 30.5428 5.25706 29.9066L5.42023 29.4721L5.4239 29.4629L4.31652 27.2756L5.4239 29.4611C5.64207 28.8799 5.86391 28.2913 6.09309 27.6955L6.18843 27.4461L6.2856 27.195L6.36077 27.0043L6.2856 27.1968L6.18843 27.4461L6.09309 27.6955C5.86391 28.2913 5.64207 28.8799 5.4239 29.4611L5.61824 29.8424L5.79058 29.8241L5.80891 29.7727C6.08943 29.0082 6.36627 28.262 6.64128 27.536L6.65045 27.5103C6.36576 28.2627 6.08585 29.0168 5.81075 29.7727L5.79241 29.8241L5.66957 30.1596C5.45323 30.7554 5.23506 31.3605 5.01688 31.9802L5.00771 32.0077L4.91421 32.2698C4.76754 32.6879 4.6392 33.0637 4.34769 33.9181C4.82987 34.1381 5.21672 34.7174 5.5834 35.3738C5.54805 34.6806 5.24112 34.0292 4.72903 33.5606C7.10513 33.6669 9.15305 33.0674 10.2128 31.3293C10.3081 31.1735 10.3943 31.0121 10.4713 30.8379C9.99092 31.4485 9.39323 31.707 8.27118 31.6428C9.92492 30.9021 10.7536 30.1926 11.487 29.0155C11.6718 28.7157 11.8437 28.408 12.0022 28.0933C10.5556 29.5784 8.88171 30.0001 7.11613 29.6792H7.11247L7.0373 29.6664C8.61953 29.4702 10.7225 28.2877 12.0828 26.8283C12.7099 26.1554 13.2782 25.3616 13.8044 24.4338C14.1968 23.7427 14.5634 22.9763 14.9136 22.1274C15.2198 21.3867 15.5132 20.5837 15.7973 19.7128C15.3313 19.9513 14.8298 20.1129 14.3123 20.1913C14.2281 20.206 14.1438 20.2194 14.0593 20.2317L14.0629 20.2298L14.0684 20.228C14.1509 20.2152 14.2316 20.2042 14.3123 20.1895C14.3948 20.1748 14.4773 20.1602 14.5579 20.1418L14.3141 20.1858L14.0721 20.228C15.5425 19.6597 16.4702 18.5651 17.1449 17.2267C16.6064 17.5932 16.0046 17.8568 15.3701 18.0041C15.2662 18.0258 15.1616 18.0448 15.0566 18.0609L14.9778 18.0719L14.9796 18.0701L14.9961 18.0683L15.0548 18.0591C15.1512 18.044 15.2472 18.0263 15.3426 18.0059L15.3683 18.0004L15.339 18.0059L14.9833 18.0664C15.493 17.8519 15.9238 17.6136 16.2978 17.3312C16.5722 17.1178 16.8246 16.8777 17.0514 16.6144C17.1981 16.4402 17.3356 16.2513 17.4639 16.046L17.5812 15.8553L17.7224 15.5766C17.9739 15.0685 18.1991 14.5477 18.3971 14.0164L18.4539 13.8551C18.5053 13.6992 18.5493 13.5599 18.5823 13.4389C18.6318 13.2574 18.6629 13.1125 18.6794 13.0062C18.6251 13.0497 18.5675 13.089 18.5071 13.1235C18.0616 13.3894 17.2971 13.6314 16.681 13.7451L16.4995 13.7652L16.4977 13.7671L12.3414 14.2236L12.3194 14.2676L12.1782 14.5573L11.7473 15.452L11.6667 15.6225L11.7473 15.452C11.8922 15.1476 12.0352 14.8488 12.1782 14.5573L12.3194 14.2676C12.3267 14.2511 12.3359 14.2364 12.3414 14.2199L12.1873 14.2364L12.0645 13.9944C11.8298 14.4589 11.5988 14.9252 11.3715 15.3933L10.9975 16.1707C10.3032 17.6287 9.63571 19.0993 8.99538 20.5819C8.31285 22.1635 7.65215 23.7544 7.01346 25.3542L7.17114 24.9582C7.76028 23.4916 8.36841 22.0327 8.99538 20.5819C9.63609 19.0989 10.3036 17.6277 10.9975 16.1688L11.3715 15.3915C11.5878 14.9441 11.806 14.5023 12.0278 14.0641L12.0645 13.9944C12.4147 13.3014 12.7685 12.6194 13.126 11.9483C13.5074 11.2333 13.8961 10.5348 14.2866 9.85641C14.6838 9.16452 15.0945 8.48052 15.5187 7.80482L15.592 7.68749C16.0027 7.03846 16.417 6.41327 16.8332 5.81558C17.6776 4.58885 18.6102 3.42522 19.6237 2.33393L19.5173 2.4476C19.224 2.77028 18.3366 3.80616 16.9964 5.86324C18.2871 5.79907 20.269 5.53506 21.8861 5.25822C22.3664 2.56311 21.4149 1.33106 21.4149 1.33106C21.4149 1.33106 20.6009 0.0128339 19.5228 0.00183341L19.5155 0ZM16.494 13.7634C17.7041 13.206 18.2468 12.7019 18.7711 11.974C18.9105 11.7723 19.0516 11.5633 19.191 11.3451C19.6182 10.6796 20.0362 9.94441 20.4102 9.21472C20.7714 8.51069 21.0904 7.81216 21.3342 7.18147C21.4765 6.82178 21.5989 6.45454 21.7009 6.08142C21.7761 5.79357 21.8366 5.51856 21.8824 5.25822C20.2635 5.53323 18.2816 5.79907 16.9909 5.86141C16.5504 6.53762 16.125 7.22348 15.7148 7.9185C15.3408 8.55102 14.9411 9.24405 14.5231 10.0031C13.7579 11.3891 13.0286 12.7945 12.3359 14.2181L16.4922 13.7616L16.494 13.7634ZM23.1456 4.02983V4.15084H23.4316V4.95571H23.5637V4.15084H23.8515V4.02983H23.1475H23.1456ZM23.9945 4.02983V4.95754H24.1155V4.22234L24.4309 4.86037H24.5152L24.8305 4.22234V4.95754H24.9515V4.02983H24.792L24.473 4.67703L24.1522 4.02983H23.9927H23.9945ZM16.6462 13.7487L16.4592 13.7781L16.461 13.7762L16.6444 13.7469L16.6462 13.7487ZM16.4812 13.7707L16.472 13.7744L16.4812 13.7707ZM11.4576 16.0478L11.2633 16.464L11.0195 16.9902C10.4379 18.2561 9.87502 19.5305 9.33089 20.8129C8.69936 22.299 8.08878 23.794 7.49932 25.2974C7.22797 25.9904 6.95296 26.6999 6.67612 27.4296L6.66695 27.4553C7.9783 23.91 9.43029 20.4182 11.0195 16.9884L11.2633 16.4622L11.4576 16.0478Z" fill="white"/>
</svg>
