<svg width="45" height="44" viewBox="0 0 45 44" fill="none" xmlns="http://www.w3.org/2000/svg">
<path fill-rule="evenodd" clip-rule="evenodd" d="M33.5 2.75H11.5C9.31196 2.75 7.21354 3.61919 5.66637 5.16637C4.11919 6.71354 3.25 8.81196 3.25 11V33C3.25 35.188 4.11919 37.2865 5.66637 38.8336C7.21354 40.3808 9.31196 41.25 11.5 41.25H33.5C35.688 41.25 37.7865 40.3808 39.3336 38.8336C40.8808 37.2865 41.75 35.188 41.75 33V11C41.75 8.81196 40.8808 6.71354 39.3336 5.16637C37.7865 3.61919 35.688 2.75 33.5 2.75ZM11.5 0C8.58262 0 5.78473 1.15893 3.72183 3.22183C1.65893 5.28473 0.5 8.08262 0.5 11L0.5 33C0.5 35.9174 1.65893 38.7153 3.72183 40.7782C5.78473 42.8411 8.58262 44 11.5 44H33.5C36.4174 44 39.2153 42.8411 41.2782 40.7782C43.3411 38.7153 44.5 35.9174 44.5 33V11C44.5 8.08262 43.3411 5.28473 41.2782 3.22183C39.2153 1.15893 36.4174 0 33.5 0L11.5 0Z" fill="white"/>
<path fill-rule="evenodd" clip-rule="evenodd" d="M23.9768 32.9998H14.4205V9.74854H23.7678C28.132 9.74854 30.761 11.9733 30.761 15.551C30.761 17.982 28.9735 20.1573 26.6828 20.545V20.82C29.826 21.1418 31.9188 23.3803 31.9188 26.4108C31.9188 30.5028 28.9378 32.9998 23.9768 32.9998ZM18.0313 12.8093V19.5935H22.3158C25.5058 19.5935 27.1668 18.4165 27.1668 16.211C27.1668 14.066 25.602 12.8093 22.929 12.8093H18.0313ZM23.2508 29.939H18.0313V22.4453H23.0418C26.4408 22.4453 28.231 23.7185 28.231 26.1523C28.231 28.6163 26.5068 29.939 23.2508 29.939Z" fill="white"/>
</svg>
