<svg width="160" height="41" viewBox="0 0 160 41" fill="none" xmlns="http://www.w3.org/2000/svg">
<g clip-path="url(#clip0_8_4141)">
<path d="M17.9778 6.94508C16.767 3.88611 14.4612 1.40203 11.5552 0C11.7994 3.59668 14.5132 6.49898 17.9765 6.94508H17.9778Z" fill="#006C4F"/>
<path d="M26.2413 0C23.3365 1.40203 21.0294 3.88611 19.8199 6.94508C23.2833 6.49898 25.997 3.59801 26.2413 0Z" fill="#006C4F"/>
<path d="M21.914 20.0492C21.7295 19.0588 21.7464 18.3033 21.7555 18.0524C21.7997 16.8774 22.0816 15.9295 22.3206 15.3055C20.5876 16.4194 19.2821 17.5346 18.3727 18.3976C16.8879 19.8063 16.0266 20.644 15.5161 22.0872C15.3992 22.4191 15.2329 22.8905 15.1419 23.4441C14.86 23.5185 12.3152 24.1876 11.411 24.1876C12.3061 24.1876 14.812 24.8435 15.1341 24.9285C15.1822 25.2126 15.2641 25.502 15.3888 25.7954C15.924 27.0567 17.2282 28.2968 18.8898 28.3193C20.0498 28.3353 20.9865 27.7524 21.6594 27.0103C22.0426 26.6305 22.3479 26.1698 22.5505 25.656C22.6025 25.5418 22.6493 25.429 22.6895 25.3188C22.7168 25.2431 22.7636 25.1077 22.8091 24.9258C23.1494 24.8355 25.6358 24.1863 26.527 24.1863C25.7086 24.1863 23.5482 23.6393 22.9351 23.4786C22.8337 22.3594 22.2401 21.7832 21.9153 20.0479L21.914 20.0492Z" fill="#0055D3"/>
<path d="M26.3724 33.1149C24.49 33.1149 22.9234 34.493 22.5843 36.3159V36.3106C22.5843 36.3106 19.7848 37.0608 18.8274 37.0608C19.7848 37.0608 22.5843 37.8109 22.5843 37.8109V37.799C22.9234 39.6219 24.49 41 26.3724 41C28.5029 41 30.2306 39.2342 30.2306 37.0568C30.2306 34.8794 28.5029 33.1136 26.3724 33.1136V33.1149Z" fill="#0055D3"/>
<path d="M15.0692 36.3624C14.7484 34.517 13.1713 33.1149 11.2721 33.1149C9.14158 33.1149 7.41382 34.8807 7.41382 37.0581C7.41382 39.2355 9.14158 41.0013 11.2721 41.0013C13.17 41.0013 14.7471 39.5993 15.0692 37.7538V37.8122C15.0692 37.8122 17.8687 37.0621 18.8262 37.0621C17.8687 37.0621 15.0692 36.312 15.0692 36.312V36.3638V36.3624Z" fill="#0055D3"/>
<path d="M22.583 12.0527C22.922 13.8756 24.4887 15.2537 26.3711 15.2537C28.5015 15.2537 30.2293 13.4879 30.2293 11.3105C30.2293 9.13309 28.5015 7.36728 26.3711 7.36728C24.4887 7.36728 22.922 8.74541 22.583 10.5683V10.563C22.583 10.563 19.7835 11.3131 18.826 11.3131C19.7835 11.3131 22.583 12.0633 22.583 12.0633V12.0513V12.0527Z" fill="#0055D3"/>
<path d="M11.2733 15.2537C13.1712 15.2537 14.7483 13.8517 15.0705 12.0062V12.0646C15.0705 12.0646 17.87 11.3145 18.8274 11.3145C17.87 11.3145 15.0705 10.5643 15.0705 10.5643V10.6161C14.7496 8.77065 13.1725 7.36862 11.2733 7.36862C9.1428 7.36862 7.41504 9.13443 7.41504 11.3118C7.41504 13.4892 9.1428 15.255 11.2733 15.255V15.2537Z" fill="#0055D3"/>
<path d="M34.072 20.2418C32.1896 20.2418 30.6229 21.6199 30.2839 23.4428V23.4375C30.2839 23.4375 27.4844 24.1876 26.527 24.1876C27.4844 24.1876 30.2839 24.9378 30.2839 24.9378V24.9258C30.6229 26.7487 32.1896 28.1269 34.072 28.1269C36.2025 28.1269 37.9302 26.361 37.9302 24.1836C37.9302 22.0063 36.2025 20.2404 34.072 20.2404V20.2418Z" fill="#0055D3"/>
<path d="M7.65408 23.4893C7.33321 21.6438 5.75614 20.2418 3.8569 20.2418C1.72642 20.2418 -0.00134277 22.0076 -0.00134277 24.185C-0.00134277 26.3624 1.72642 28.1282 3.8569 28.1282C5.75484 28.1282 7.33191 26.7261 7.65408 24.8807V24.9391C7.65408 24.9391 10.4536 24.1889 11.411 24.1889C10.4536 24.1889 7.65408 23.4388 7.65408 23.4388V23.4906V23.4893Z" fill="#0055D3"/>
<path d="M47.6135 7.76971H53.1865C55 7.76971 56.3602 8.26759 57.2669 9.26202C58.1737 10.2565 58.627 11.7142 58.627 13.6354V25.6363C58.627 27.5574 58.1737 29.0152 57.2669 30.0096C56.3602 31.0041 55 31.5019 53.1865 31.5019H47.6135V7.76971ZM53.1203 28.1111C53.7179 28.1111 54.1764 27.9305 54.4973 27.568C54.8182 27.2069 54.978 26.6187 54.978 25.8049V13.4654C54.978 12.6516 54.8169 12.0648 54.4973 11.7023C54.1764 11.3412 53.7179 11.1606 53.1203 11.1606H51.2626V28.1124H53.1203V28.1111Z" fill="#1B1B1F"/>
<path d="M63.835 7.76959H68.778L72.5596 31.5018H68.9105L68.2467 26.7899V26.8576H64.1L63.4362 31.5018H60.0521L63.8337 7.76959H63.835ZM67.8154 23.6353L66.1902 11.9053H66.124L64.5313 23.6353H67.8154Z" fill="#1B1B1F"/>
<path d="M75.6436 11.1591H71.8282V7.76825H83.1068V11.1591H79.2914V31.5005H75.6423V11.1591H75.6436Z" fill="#1B1B1F"/>
<path d="M86.1596 7.76959H91.1026L94.8842 31.5018H91.2351L90.5712 26.7899V26.8576H86.4246L85.7608 31.5018H82.3767L86.1583 7.76959H86.1596ZM90.14 23.6353L88.5148 11.9053H88.4486L86.8559 23.6353H90.14Z" fill="#1B1B1F"/>
<path d="M96.6417 7.76959H102.148C104.028 7.76959 105.399 8.21569 106.261 9.10922C107.124 10.0027 107.555 11.3756 107.555 13.229V14.1783C107.555 15.3984 107.362 16.3942 106.975 17.1616C106.587 17.9303 105.996 18.4839 105.2 18.8225V18.8902C107.014 19.5235 107.92 21.1738 107.92 23.8398V25.8738C107.92 27.7047 107.45 29.1001 106.511 30.0613C105.57 31.0225 104.195 31.5018 102.381 31.5018H96.6417V7.76959ZM101.717 17.4324C102.447 17.4324 102.994 17.2412 103.359 16.8562C103.724 16.4725 103.906 15.8286 103.906 14.9244V13.6021C103.906 12.7431 103.757 12.1217 103.458 11.738C103.159 11.3543 102.689 11.1618 102.048 11.1618H100.291V17.4338H101.717V17.4324ZM102.381 28.1123C103.023 28.1123 103.497 27.937 103.807 27.5865C104.117 27.236 104.272 26.6319 104.272 25.7729V23.7044C104.272 22.6197 104.091 21.8682 103.726 21.45C103.361 21.0318 102.758 20.8233 101.917 20.8233H100.292V28.1123H102.382H102.381Z" fill="#0055D3"/>
<path d="M110.043 7.76959H119.995V11.1605H113.692V17.4324H118.701V20.8233H113.692V28.1123H119.995V31.5032H110.043V7.76959Z" fill="#0055D3"/>
<path d="M122.084 7.76959H127.491C129.371 7.76959 130.741 8.21569 131.604 9.10922C132.466 10.0027 132.898 11.3756 132.898 13.229V14.6868C132.898 17.151 132.101 18.7097 130.509 19.3655V19.4332C131.393 19.7041 132.018 20.2591 132.383 21.0942C132.748 21.9306 132.93 23.0498 132.93 24.4505V28.6208C132.93 29.2992 132.952 29.8475 132.996 30.2644C133.04 30.6826 133.151 31.0956 133.328 31.5018H129.612C129.48 31.1181 129.391 30.7557 129.347 30.4171C129.303 30.0786 129.281 29.4678 129.281 28.5862V24.2461C129.281 23.1614 129.109 22.4046 128.766 21.9744C128.424 21.5456 127.832 21.3305 126.992 21.3305H125.732V31.5018H122.083V7.76959H122.084ZM127.06 17.9409C127.79 17.9409 128.336 17.7497 128.702 17.3647C129.067 16.981 129.248 16.3371 129.248 15.4329V13.6021C129.248 12.7431 129.099 12.1217 128.8 11.738C128.501 11.3543 128.031 11.1618 127.391 11.1618H125.732V17.9423H127.058L127.06 17.9409Z" fill="#0055D3"/>
<path d="M135.453 7.76959H140.859C142.739 7.76959 144.11 8.21569 144.972 9.10922C145.835 10.0027 146.266 11.3756 146.266 13.229V14.6868C146.266 17.151 145.47 18.7097 143.877 19.3655V19.4332C144.762 19.7041 145.387 20.2591 145.752 21.0942C146.117 21.9306 146.299 23.0498 146.299 24.4505V28.6208C146.299 29.2992 146.321 29.8475 146.365 30.2644C146.409 30.6826 146.519 31.0956 146.696 31.5018H142.981C142.848 31.1181 142.76 30.7557 142.716 30.4171C142.672 30.0786 142.65 29.4678 142.65 28.5862V24.2461C142.65 23.1614 142.478 22.4046 142.135 21.9744C141.792 21.5456 141.201 21.3305 140.361 21.3305H139.1V31.5018H135.451V7.76959H135.453ZM140.428 17.9409C141.158 17.9409 141.705 17.7497 142.07 17.3647C142.435 16.981 142.617 16.3371 142.617 15.4329V13.6021C142.617 12.7431 142.468 12.1217 142.169 11.738C141.87 11.3543 141.4 11.1618 140.759 11.1618H139.1V17.9423H140.427L140.428 17.9409Z" fill="#0055D3"/>
<path d="M151.641 21.3982L147.229 7.76959H151.111L153.598 16.4831H153.664L156.152 7.76959H159.701L155.29 21.3982V31.5005H151.641V21.3982Z" fill="#0055D3"/>
</g>
<defs>
<clipPath id="clip0_8_4141">
<rect width="160" height="41" fill="white"/>
</clipPath>
</defs>
</svg>
