<svg width="36" height="44" viewBox="0 0 36 44" fill="none" xmlns="http://www.w3.org/2000/svg">
<path d="M16.4318 0H23.6286V33.3011C19.9408 34.0024 17.2266 34.2829 14.2827 34.2829C5.50334 34.2829 0.925964 30.316 0.925964 22.6958C0.925964 15.3629 5.78109 10.5999 13.301 10.5999C14.4683 10.5999 15.3566 10.6934 16.4305 10.9725L16.4318 0ZM16.4318 16.7654C15.6508 16.5 14.8272 16.3721 14.0036 16.3859C10.3585 16.3859 8.26022 18.6271 8.26022 22.5596C8.26022 26.3904 10.265 28.49 13.961 28.49C14.7557 28.49 15.4075 28.4474 16.4318 28.3044V16.7599V16.7654ZM35.0741 11.1073V27.786C35.0741 33.5294 34.6588 36.2945 33.398 38.6719C32.2306 40.964 30.6837 42.4105 27.5116 44L20.8305 40.8196C24.0026 39.3223 25.5495 38.0201 26.5312 36.0071C27.5556 33.9515 27.8842 31.5672 27.8842 25.3083V11.1073H35.0741ZM27.8842 0.03575H35.0741V7.4195H27.8842V0.03575Z" fill="white"/>
</svg>
