<svg width="35" height="44" viewBox="0 0 35 44" fill="none" xmlns="http://www.w3.org/2000/svg">
<path d="M31.9917 19.9871L31.6735 19.4286C31.6821 15.4422 29.8331 13.8184 27.6745 12.5813C28.3281 12.4094 28.9989 12.272 29.1881 11.4472C30.3147 11.1637 30.5469 10.6396 30.6587 10.0898C30.9511 9.89216 31.9315 9.34231 31.8283 8.39726C32.3786 8.01924 32.6882 7.52953 32.5248 6.84222C33.1182 6.19786 33.273 5.6652 33.0236 5.17549C33.7374 4.29057 33.4192 3.83523 33.1182 3.37988C33.6514 2.41765 33.1784 1.38668 31.6907 1.55851C31.0973 0.690778 29.8073 0.88838 29.6095 0.88838C29.3859 0.613455 29.0935 0.372896 28.1905 0.484584C27.6057 -0.0394906 26.9521 0.0550147 26.2727 0.304165C25.4729 -0.323007 24.9397 0.183886 24.3292 0.372896C23.3574 0.0636061 23.1338 0.484584 22.6608 0.665004C21.603 0.441628 21.2762 0.922746 20.7688 1.42964L20.1754 1.42105C18.5758 2.34892 17.7846 4.23902 17.5009 5.20985C17.2171 4.23902 16.4259 2.34892 14.8263 1.42105L14.2329 1.42964C13.7255 0.922746 13.3987 0.441628 12.3409 0.665004C11.8593 0.493176 11.6443 0.0636061 10.6725 0.372896C10.2769 0.252617 9.90715 -0.00512507 9.47716 0.00346632C9.25356 0.0120577 9.00417 0.0893803 8.72897 0.304165C8.04958 0.0464233 7.39599 -0.0394906 6.8112 0.484584C5.90821 0.372896 5.60721 0.604864 5.39222 0.88838C5.19442 0.88838 3.90444 0.690778 3.31104 1.55851C1.82326 1.38668 1.35887 2.41765 1.89206 3.37988C1.59107 3.84382 1.27287 4.29916 1.98666 5.17549C1.73727 5.6652 1.89206 6.19786 2.48546 6.84222C2.33066 7.52953 2.64025 8.01924 3.18205 8.39726C3.07885 9.34231 4.05923 9.89216 4.35163 10.0898C4.46343 10.6396 4.69563 11.1551 5.82221 11.4472C6.01141 12.2634 6.6822 12.4094 7.33579 12.5813C5.17722 13.8184 3.32824 15.4422 3.33684 19.4286L3.01865 19.9871C0.541882 21.4648 -1.68549 26.233 1.79747 30.0991C2.02106 31.3105 2.40806 32.1782 2.74345 33.1405C3.25085 37.0238 6.5704 38.8366 7.43899 39.0514C8.72037 40.0136 10.0878 40.9243 11.9281 41.56C13.6739 43.3299 15.5659 44 17.4579 44H17.5438C19.4444 44 21.3278 43.3299 23.065 41.56C24.9139 40.9243 26.2727 40.0136 27.5541 39.0514C28.4313 38.8366 31.7423 37.0238 32.2496 33.1405C32.585 32.1782 32.972 31.3105 33.1956 30.0991C36.6872 26.2244 34.4598 21.4648 31.9917 19.9871ZM30.0825 19.2997C29.9535 20.9063 21.5772 13.7067 23.022 13.4662C26.9521 12.8218 30.2115 15.1157 30.0825 19.2997ZM26.3845 27.2983C24.2776 28.6558 21.2418 27.7794 19.6078 25.3395C17.9738 22.8995 18.3522 19.8238 20.4592 18.4664C22.5662 17.1089 25.6019 17.9853 27.2359 20.4252C28.8699 22.8652 28.4915 25.9409 26.3845 27.2983ZM20.5452 2.52934C20.614 2.89018 20.7 3.11355 20.7946 3.18228C21.259 2.68398 21.6374 2.17709 22.2394 1.69597C22.2394 1.97949 22.0932 2.28019 22.4544 2.50356C22.7726 2.07399 23.2112 1.68738 23.7874 1.36091C23.5122 1.84202 23.7358 1.98808 23.8906 2.18568C24.3292 1.80766 24.7506 1.42964 25.5589 1.12894C25.3353 1.39527 25.0257 1.66161 25.3525 1.9709C25.8083 1.68738 26.2641 1.40386 27.3391 1.20626C27.0983 1.47259 26.5909 1.74752 26.9005 2.01385C27.4681 1.79907 28.1045 1.63583 28.8011 1.54992C28.4657 1.82484 28.1905 2.09118 28.4657 2.30596C29.0763 2.11695 29.9191 1.8678 30.7361 2.08258L30.2201 2.60666C30.1599 2.67539 31.4327 2.65821 32.2754 2.67539C31.9659 3.10496 31.6563 3.50876 31.4757 4.23902C31.5617 4.32494 31.9745 4.27339 32.37 4.23902C31.9659 5.08957 31.2693 5.29577 31.1059 5.6652C31.3553 5.85421 31.6907 5.80266 32.069 5.67379C31.7767 6.26659 31.1747 6.67898 30.6931 7.1601C30.8135 7.24601 31.0285 7.29756 31.5273 7.23742C31.0801 7.70995 30.5469 8.13952 29.9105 8.52613C30.0223 8.655 30.4093 8.655 30.7705 8.66359C30.1943 9.22203 29.4547 9.51414 28.7581 9.88357C29.1021 10.1155 29.3515 10.064 29.6181 10.064C29.1279 10.4678 28.2937 10.674 27.5197 10.9231C27.6659 11.1551 27.8121 11.2152 28.1303 11.2754C27.3133 11.7307 26.1351 11.5245 25.8083 11.7565C25.8857 11.9885 26.1179 12.1345 26.3845 12.2548C25.0601 12.3321 21.4568 12.2032 20.7602 9.47978C22.1104 7.99346 24.5786 6.258 28.8183 4.10156C25.5159 5.20126 22.5404 6.67898 20.0464 8.69796C17.0967 7.33193 19.1176 3.89537 20.5452 2.52934ZM17.5868 12.3751C19.668 12.3493 22.2394 13.9043 22.2308 15.3563C22.2222 16.645 20.4248 17.6846 17.604 17.6674C14.8435 17.633 12.9859 16.3615 12.9945 15.1071C12.9945 14.0848 15.2477 12.3149 17.5868 12.3751ZM7.00899 11.2754C7.32719 11.2152 7.47339 11.1465 7.61959 10.9231C6.8456 10.6826 6.01141 10.4678 5.52121 10.064C5.78781 10.064 6.03721 10.1241 6.3812 9.88357C5.68461 9.51414 4.94502 9.22203 4.36883 8.66359C4.73002 8.655 5.11702 8.66359 5.22882 8.52613C4.59243 8.13952 4.05923 7.70995 3.61204 7.23742C4.11083 7.29756 4.32583 7.24601 4.44623 7.1601C3.96464 6.67898 3.35404 6.26659 3.07025 5.67379C3.44004 5.80266 3.78404 5.84562 4.03343 5.6652C3.87004 5.30436 3.17345 5.08957 2.76925 4.23902C3.16485 4.27339 3.57764 4.32494 3.66364 4.23902C3.48304 3.50876 3.16485 3.09637 2.86385 2.67539C3.70664 2.6668 4.97942 2.67539 4.91922 2.60666L4.40323 2.08258C5.22022 1.8678 6.06301 2.11695 6.6736 2.30596C6.94879 2.09118 6.665 1.82484 6.3382 1.54992C7.03479 1.64442 7.66259 1.79907 8.23878 2.01385C8.53977 1.74752 8.04098 1.47259 7.80018 1.20626C8.87517 1.40386 9.33096 1.68738 9.78676 1.9709C10.1136 1.66161 9.80396 1.39527 9.58036 1.12894C10.3887 1.42105 10.8101 1.80766 11.2487 2.18568C11.3949 1.98808 11.6271 1.84202 11.3519 1.36091C11.9281 1.68738 12.3667 2.07399 12.6849 2.50356C13.0375 2.28019 12.8999 1.9709 12.8999 1.69597C13.5019 2.17709 13.8803 2.68398 14.3447 3.18228C14.4393 3.11355 14.5167 2.89018 14.5941 2.52934C16.0217 3.89537 18.0426 7.33193 15.1101 8.69796C12.6161 6.67898 9.64056 5.20126 6.3382 4.10156C10.5779 6.24941 13.0461 7.99346 14.3963 9.47978C13.7083 12.2118 10.0964 12.3321 8.77197 12.2548C9.03857 12.1345 9.27076 11.9799 9.34816 11.7565C9.00417 11.5159 7.83458 11.7221 7.00899 11.2754ZM12.1775 13.3459C13.6223 13.5865 5.24602 20.7775 5.11702 19.1795C4.98802 14.9955 8.25598 12.693 12.1775 13.3459ZM3.28524 29.3946C1.24707 27.7794 0.593481 23.0628 4.36883 20.9493C6.6478 20.3479 5.14282 30.2108 3.28524 29.3946ZM11.1111 37.8314C9.96735 38.5101 7.17239 38.2352 5.19442 35.4344C3.86144 33.0803 4.03343 30.6919 4.97082 29.9874C6.3726 29.1455 8.53977 30.2795 10.2081 32.1868C11.6615 33.9051 12.3237 36.9379 11.1111 37.8314ZM8.84077 27.5475C6.7338 26.19 6.3554 23.1143 7.98938 20.6744C9.62336 18.2344 12.6591 17.3581 14.7661 18.7155C16.8731 20.073 17.2515 23.1487 15.6175 25.5886C13.9749 28.0286 10.9391 28.9049 8.84077 27.5475ZM17.6298 42.6254C15.1015 42.7285 12.6247 40.5892 12.6591 39.8504C12.6247 38.7593 15.7379 37.9087 17.7588 37.9603C19.797 37.8743 22.5404 38.6046 22.549 39.584C22.592 40.5291 20.0722 42.6683 17.6298 42.6254ZM22.6952 31.8947C22.7124 34.4464 20.442 36.5169 17.6384 36.5341C14.8349 36.5513 12.5473 34.4893 12.5301 31.9463V31.8947C12.5129 29.3431 14.7833 27.2726 17.5868 27.2554C20.3904 27.2382 22.678 29.3001 22.6952 31.8432V31.8947ZM29.7643 35.5633C27.5885 38.5359 24.6388 38.6476 23.5466 37.8228C22.4028 36.7575 23.2714 33.4498 24.8451 31.637C26.6425 29.6352 28.5689 28.3293 29.9105 29.3517C30.8135 30.2366 31.3467 33.57 29.7643 35.5633ZM31.7337 29.2744C29.8847 30.0819 28.3797 20.2276 30.6501 20.829C34.4254 22.9511 33.7718 27.6678 31.7337 29.2744Z" fill="white"/>
</svg>
