<svg width="160" height="139" viewBox="0 0 160 139" fill="none" xmlns="http://www.w3.org/2000/svg">
<g clip-path="url(#clip0_8_4005)">
<path d="M95.2143 138.802H92.2903C91.9226 138.802 91.5701 138.656 91.3101 138.396C91.0502 138.136 90.9039 137.784 90.9035 137.416V113.055C90.9039 112.688 91.0502 112.336 91.3101 112.076C91.5701 111.816 91.9226 111.67 92.2903 111.669H95.2143C95.5819 111.67 95.9344 111.816 96.1944 112.076C96.4544 112.336 96.6006 112.688 96.601 113.055V137.416C96.6006 137.784 96.4544 138.136 96.1944 138.396C95.9344 138.656 95.5819 138.802 95.2143 138.802Z" fill="#0055D3"/>
<path d="M89.0348 138.802H86.1108C85.7431 138.802 85.3907 138.656 85.1307 138.396C84.8707 138.136 84.7245 137.784 84.7241 137.416V113.055C84.7245 112.688 84.8707 112.336 85.1307 112.076C85.3907 111.816 85.7431 111.67 86.1108 111.669H89.0348C89.4024 111.67 89.7549 111.816 90.0149 112.076C90.2749 112.336 90.4211 112.688 90.4215 113.055V137.416C90.4211 137.784 90.2749 138.136 90.0149 138.396C89.7549 138.656 89.4024 138.802 89.0348 138.802Z" fill="#0055D3"/>
<path d="M12.0256 59.9722C11.4337 62.4499 10.6859 63.0397 9.97773 62.8706C9.26952 62.7016 8.86903 61.8377 9.46097 59.3599C10.0529 56.8822 12.1213 53.8978 12.1213 53.8978C12.1213 53.8978 12.6176 57.4944 12.0256 59.9722Z" fill="#CCCCCC"/>
<path d="M10.4408 103.143C9.84885 105.621 9.1011 106.21 8.39289 106.041C7.68468 105.872 7.28419 105.008 7.87613 102.531C8.46807 100.053 10.5365 97.0685 10.5365 97.0685C10.5365 97.0685 11.0327 100.665 10.4408 103.143Z" fill="#CCCCCC"/>
<path d="M97.177 25.986C97.177 25.986 98.5337 23.1168 96.3413 22.3708C94.1489 21.6247 94.3066 24.6298 94.3066 24.6298L96.9736 26.2119" fill="#3F3D56"/>
<path d="M51.1099 34.4282L46.5659 38.1103C46.5659 38.1103 114.734 61.0109 122.508 65.5538L121.741 59.1367L115.3 51.2953L102.825 43.3397L82.6863 37.0774L60.7398 29.188L51.1099 34.4282Z" fill="#0055D3"/>
<path d="M85.8271 43.5852L70.4047 82.0611C70.4047 82.0611 67.9398 88.4324 73.387 89.6535C76.662 90.3876 78.3933 88.4017 79.2532 86.7011C80.1718 84.8847 77.6784 83.2874 76.4323 84.897C76.412 84.9231 76.3918 84.9498 76.3715 84.9769C76.341 85.0176 73.0735 87.5521 73.0754 84.0834C73.0834 83.2837 73.2493 82.4935 73.5635 81.758L88.72 45.3707L85.8271 43.5852Z" fill="#3F3D56"/>
<path d="M95.6117 24.353C95.6117 24.353 91.2719 23.7196 88.831 22.3409C88.831 22.3409 62.047 16.6423 46.5825 37.9011C46.5825 37.9011 119.385 54.747 122.525 65.3445C122.525 65.3445 127.094 45.7332 102.889 27.6305C102.889 27.6305 96.9677 25.5734 95.6117 24.353Z" fill="#3F3D56"/>
<path d="M13.0319 85.4932C12.6707 87.0052 12.2144 87.365 11.7823 87.2618C11.3501 87.1587 11.1058 86.6316 11.467 85.1196C11.8281 83.6077 13.0903 81.7867 13.0903 81.7867C13.0903 81.7867 13.3931 83.9813 13.0319 85.4932Z" fill="#CCCCCC"/>
<path d="M1.73978 92.8203C1.37858 94.3322 0.922308 94.6921 0.490163 94.5889C0.0580171 94.4858 -0.186358 93.9587 0.174837 92.4467C0.536033 90.9348 1.79817 89.1138 1.79817 89.1138C1.79817 89.1138 2.10098 91.3084 1.73978 92.8203Z" fill="#CCCCCC"/>
<path d="M84.7311 21.3562C84.1391 23.834 83.3914 24.4237 82.6832 24.2547C81.975 24.0856 81.5745 23.2217 82.1664 20.744C82.7584 18.2662 84.8268 15.2818 84.8268 15.2818C84.8268 15.2818 85.323 18.8784 84.7311 21.3562Z" fill="#CCCCCC"/>
<path d="M87.3222 3.70654C86.961 5.21847 86.5047 5.57833 86.0726 5.47517C85.6404 5.37201 85.396 4.84489 85.7572 3.33296C86.1184 1.82103 87.3806 0 87.3806 0C87.3806 0 87.6834 2.19462 87.3222 3.70654Z" fill="#CCCCCC"/>
<path d="M76.0301 11.0337C75.6689 12.5456 75.2126 12.9055 74.7804 12.8023C74.3483 12.6991 74.1039 12.172 74.4651 10.6601C74.8263 9.14816 76.0885 7.32712 76.0885 7.32712C76.0885 7.32712 76.3913 9.52175 76.0301 11.0337Z" fill="#CCCCCC"/>
<path d="M53.4301 98.9842C52.8381 101.462 52.0904 102.052 51.3821 101.883C50.6739 101.714 50.2734 100.85 50.8654 98.372C51.4573 95.8942 53.5258 92.9099 53.5258 92.9099C53.5258 92.9099 54.022 96.5064 53.4301 98.9842Z" fill="#CCCCCC"/>
<path d="M56.0213 81.3345C55.6601 82.8465 55.2038 83.2063 54.7717 83.1032C54.3395 83 54.0951 82.4729 54.4563 80.961C54.8175 79.449 56.0797 77.628 56.0797 77.628C56.0797 77.628 56.3825 79.8226 56.0213 81.3345Z" fill="#CCCCCC"/>
<path d="M44.7292 88.6617C44.368 90.1736 43.9117 90.5335 43.4795 90.4303C43.0474 90.3271 42.803 89.8 43.1642 88.2881C43.5254 86.7762 44.7876 84.9551 44.7876 84.9551C44.7876 84.9551 45.0904 87.1498 44.7292 88.6617Z" fill="#CCCCCC"/>
<path d="M41.7418 25.1188C41.1499 27.5965 40.4021 28.1863 39.6939 28.0172C38.9857 27.8482 38.5852 26.9843 39.1772 24.5065C39.7691 22.0288 41.8375 19.0444 41.8375 19.0444C41.8375 19.0444 42.3338 22.641 41.7418 25.1188Z" fill="#CCCCCC"/>
<path d="M40.1569 68.2894C39.5649 70.7672 38.8172 71.357 38.109 71.1879C37.4007 71.0189 37.0003 70.155 37.5922 67.6772C38.1841 65.1995 40.2526 62.2151 40.2526 62.2151C40.2526 62.2151 40.7488 65.8117 40.1569 68.2894Z" fill="#CCCCCC"/>
<path d="M42.7481 50.6398C42.3869 52.1517 41.9306 52.5116 41.4985 52.4084C41.0663 52.3053 40.8219 51.7781 41.1831 50.2662C41.5443 48.7543 42.8065 46.9333 42.8065 46.9333C42.8065 46.9333 43.1093 49.1279 42.7481 50.6398Z" fill="#CCCCCC"/>
<path d="M31.4558 57.9669C31.0946 59.4789 30.6384 59.8387 30.2062 59.7356C29.7741 59.6324 29.5297 59.1053 29.8909 57.5933C30.2521 56.0814 31.5142 54.2604 31.5142 54.2604C31.5142 54.2604 31.817 56.455 31.4558 57.9669Z" fill="#CCCCCC"/>
<path d="M72.0522 26.901C71.4603 29.3788 70.7125 29.9686 70.0043 29.7995C69.2961 29.6305 68.8956 28.7666 69.4876 26.2888C70.0795 23.8111 72.1479 20.8267 72.1479 20.8267C72.1479 20.8267 72.6442 24.4233 72.0522 26.901Z" fill="#CCCCCC"/>
<path d="M70.4674 70.0717C69.8755 72.5495 69.1277 73.1393 68.4195 72.9702C67.7113 72.8012 67.3108 71.9373 67.9027 69.4595C68.4947 66.9818 70.5631 63.9974 70.5631 63.9974C70.5631 63.9974 71.0593 67.5939 70.4674 70.0717Z" fill="#CCCCCC"/>
<path d="M73.0584 52.4221C72.6972 53.934 72.241 54.2939 71.8088 54.1907C71.3767 54.0876 71.1323 53.5604 71.4935 52.0485C71.8547 50.5366 73.1168 48.7155 73.1168 48.7155C73.1168 48.7155 73.4196 50.9102 73.0584 52.4221Z" fill="#CCCCCC"/>
<path d="M100.183 35.2183C99.5915 37.6961 98.8438 38.2859 98.1356 38.1168C97.4274 37.9478 97.0269 37.0839 97.6188 34.6061C98.2107 32.1284 100.279 29.144 100.279 29.144C100.279 29.144 100.775 32.7405 100.183 35.2183Z" fill="#CCCCCC"/>
<path d="M91.4825 24.8958C91.1213 26.4077 90.665 26.7676 90.2328 26.6644C89.8007 26.5613 89.5563 26.0342 89.9175 24.5222C90.2787 23.0103 91.5408 21.1893 91.5408 21.1893C91.5408 21.1893 91.8437 23.3839 91.4825 24.8958Z" fill="#CCCCCC"/>
<path d="M114.249 23.5345C113.657 26.0123 112.909 26.6021 112.201 26.433C111.493 26.2639 111.093 25.4001 111.684 22.9223C112.276 20.4446 114.345 17.4602 114.345 17.4602C114.345 17.4602 114.841 21.0567 114.249 23.5345Z" fill="#CCCCCC"/>
<path d="M112.664 66.7052C112.072 69.183 111.325 69.7727 110.616 69.6037C109.908 69.4346 109.508 68.5707 110.1 66.093C110.692 63.6152 112.76 60.6308 112.76 60.6308C112.76 60.6308 113.256 64.2274 112.664 66.7052Z" fill="#CCCCCC"/>
<path d="M115.255 49.0555C114.894 50.5675 114.438 50.9273 114.006 50.8242C113.574 50.721 113.329 50.1939 113.69 48.682C114.052 47.17 115.314 45.349 115.314 45.349C115.314 45.349 115.617 47.5436 115.255 49.0555Z" fill="#CCCCCC"/>
<path d="M142.38 31.8518C141.788 34.3296 141.041 34.9194 140.332 34.7503C139.624 34.5812 139.224 33.7174 139.816 31.2396C140.408 28.7618 142.476 25.7775 142.476 25.7775C142.476 25.7775 142.972 29.374 142.38 31.8518Z" fill="#CCCCCC"/>
<path d="M133.679 21.5293C133.318 23.0412 132.862 23.4011 132.43 23.2979C131.998 23.1948 131.753 22.6676 132.114 21.1557C132.476 19.6438 133.738 17.8228 133.738 17.8228C133.738 17.8228 134.041 20.0174 133.679 21.5293Z" fill="#CCCCCC"/>
<path d="M130.692 51.8529C130.1 54.3307 129.352 54.9204 128.644 54.7514C127.936 54.5823 127.535 53.7185 128.127 51.2407C128.719 48.7629 130.788 45.7785 130.788 45.7785C130.788 45.7785 131.284 49.3751 130.692 51.8529Z" fill="#CCCCCC"/>
<path d="M129.107 95.0236C128.515 97.5014 127.767 98.0911 127.059 97.9221C126.351 97.753 125.951 96.8891 126.543 94.4114C127.134 91.9336 129.203 88.9492 129.203 88.9492C129.203 88.9492 129.699 92.5458 129.107 95.0236Z" fill="#CCCCCC"/>
<path d="M131.698 77.3739C131.337 78.8859 130.881 79.2457 130.449 79.1426C130.017 79.0394 129.772 78.5123 130.133 77.0004C130.495 75.4884 131.757 73.6674 131.757 73.6674C131.757 73.6674 132.059 75.862 131.698 77.3739Z" fill="#CCCCCC"/>
<path d="M158.823 60.1702C158.231 62.648 157.484 63.2377 156.775 63.0687C156.067 62.8996 155.667 62.0357 156.259 59.558C156.851 57.0802 158.919 54.0958 158.919 54.0958C158.919 54.0958 159.415 57.6924 158.823 60.1702Z" fill="#CCCCCC"/>
<path d="M150.122 49.8477C149.761 51.3596 149.305 51.7194 148.873 51.6163C148.441 51.5131 148.196 50.986 148.557 49.4741C148.919 47.9622 150.181 46.1411 150.181 46.1411C150.181 46.1411 150.483 48.3357 150.122 49.8477Z" fill="#CCCCCC"/>
<path d="M92.6947 84.9852C98.2747 84.9852 102.798 80.4634 102.798 74.8856C102.798 69.3078 98.2747 64.786 92.6947 64.786C87.1147 64.786 82.5912 69.3078 82.5912 74.8856C82.5912 80.4634 87.1147 84.9852 92.6947 84.9852Z" fill="#0055D3"/>
<path d="M84.5647 79.1253C83.9097 79.107 83.0945 79.0841 82.4669 78.6258C82.2799 78.4836 82.1262 78.3023 82.0167 78.0946C81.9072 77.8868 81.8445 77.6576 81.8329 77.4231C81.8215 77.2564 81.8489 77.0894 81.9129 76.9351C81.9768 76.7808 82.0756 76.6433 82.2015 76.5335C82.5294 76.2564 83.0084 76.1914 83.5244 76.3431L82.9897 72.4367L83.3823 72.383L84.0109 76.9754L83.6831 76.825C83.3031 76.6509 82.7815 76.5622 82.4572 76.8359C82.3776 76.9075 82.3156 76.9964 82.276 77.0959C82.2364 77.1953 82.2203 77.3025 82.2288 77.4091C82.2384 77.5837 82.2855 77.7542 82.3669 77.9089C82.4483 78.0637 82.5621 78.1991 82.7006 78.3059C83.189 78.6627 83.8388 78.7087 84.5759 78.7294L84.5647 79.1253Z" fill="#2F2E41"/>
<path d="M87.7841 72.7736H85.6502V73.1697H87.7841V72.7736Z" fill="#2F2E41"/>
<path d="M93.4016 64.7562C93.4759 63.5623 93.806 62.3984 94.3695 61.3431C94.933 60.2879 95.7168 59.366 96.6677 58.6399C97.6502 57.9126 98.7841 57.416 99.985 57.1871C101.186 56.9581 102.423 57.0027 103.604 57.3174C104.778 57.6223 105.867 58.1896 106.79 58.9765C107.712 59.7633 108.444 60.7493 108.93 61.86C109.419 62.9624 109.663 64.1578 109.645 65.3636C109.591 66.6749 109.265 67.9607 108.688 69.1395C108.093 70.437 107.341 71.6543 106.689 72.9227C106.046 74.1735 105.491 75.4676 105.029 76.7956C104.088 79.5016 103.533 82.3264 103.38 85.1869C103.138 89.6962 103.569 96.2795 108.662 98.01C109.957 98.4501 111.354 98.532 112.712 98.5284C114.142 98.5459 115.568 98.3789 116.955 98.0316C119.359 97.3899 121.641 95.883 122.666 93.5419C122.902 93.0012 123.06 92.4299 123.136 91.8449C123.157 91.6845 122.984 91.5494 122.839 91.5479C122.761 91.5497 122.686 91.5816 122.631 91.6369C122.575 91.6922 122.544 91.7667 122.542 91.8449C122.21 94.3397 120.13 96.2529 117.872 97.113C116.553 97.5909 115.167 97.859 113.764 97.9073C112.369 97.9778 110.919 97.9669 109.552 97.6458C108.336 97.3826 107.229 96.7535 106.38 95.8431C105.623 94.9725 105.059 93.952 104.724 92.8485C103.92 90.3958 103.836 87.6992 103.977 85.1429C104.137 82.2918 104.704 79.4781 105.661 76.7874C106.144 75.4288 106.727 74.1078 107.405 72.8351C108.067 71.5902 108.802 70.3805 109.36 69.083C109.904 67.8903 110.204 66.6005 110.24 65.29C110.245 64.0797 110.004 62.8811 109.532 61.7664C109.068 60.6473 108.373 59.639 107.492 58.8076C106.61 57.9761 105.563 57.3404 104.419 56.9422C103.255 56.5371 102.018 56.3798 100.79 56.4804C99.5608 56.581 98.3667 56.9373 97.2838 57.5264C96.2538 58.1183 95.3513 58.9084 94.6285 59.8511C93.9058 60.7938 93.3771 61.8703 93.073 63.0184C92.9253 63.5871 92.8362 64.1694 92.8072 64.7562C92.7876 65.1383 93.382 65.1372 93.4016 64.7562L93.4016 64.7562Z" fill="#2F2E41"/>
<path d="M95.3773 64.9647C95.5395 63.8628 96.0918 62.8557 96.9338 62.1264C97.8289 61.3765 98.9762 60.9958 100.142 61.0619C100.524 61.081 100.523 60.4868 100.142 60.4678C98.8749 60.4107 97.6308 60.8212 96.6466 61.6212C95.6624 62.4212 95.0067 63.555 94.8042 64.8068C94.7471 65.1808 95.3197 65.3421 95.3773 64.9647Z" fill="#2F2E41"/>
<path d="M95.2808 65.5978L92.4591 64.6665C92.2096 64.5842 92.0031 64.4062 91.8849 64.1716C91.7668 63.9371 91.7467 63.6652 91.829 63.4158C91.9114 63.1665 92.0895 62.96 92.3241 62.8419C92.5588 62.7238 92.8307 62.7037 93.0802 62.7861L95.902 63.7174C96.1514 63.7997 96.358 63.9778 96.4761 64.2123C96.5943 64.4469 96.6144 64.7187 96.532 64.9681C96.4496 65.2174 96.2716 65.4239 96.0369 65.542C95.8023 65.6601 95.5303 65.6802 95.2808 65.5978Z" fill="#2F2E41"/>
<path d="M99.8543 121.857H81.2739C80.9325 121.857 80.6052 121.721 80.3638 121.48C80.1224 121.238 79.9866 120.911 79.9862 120.57V117.647C79.9866 117.306 80.1224 116.979 80.3638 116.737C80.6052 116.496 80.9325 116.36 81.2739 116.36H99.8543C100.196 116.36 100.523 116.496 100.764 116.737C101.006 116.979 101.142 117.306 101.142 117.647V120.57C101.142 120.911 101.006 121.238 100.764 121.48C100.523 121.721 100.196 121.857 99.8543 121.857Z" fill="#CCCCCC"/>
<path d="M103.813 117.433C103.803 117.433 103.794 117.433 103.785 117.433L77.8026 116.886C77.6115 116.882 77.4237 116.835 77.2527 116.75C77.0818 116.664 76.9321 116.542 76.8145 116.391C76.6969 116.24 76.6144 116.065 76.5728 115.879C76.5313 115.692 76.5318 115.499 76.5744 115.312L82.9004 87.6277C82.9643 87.3429 83.1235 87.0885 83.3518 86.9065C83.5801 86.7245 83.8638 86.626 84.1558 86.6271H88.3905C91.373 86.6375 94.2621 87.6684 96.5769 89.5484C98.8917 91.4285 100.493 94.0442 101.113 96.9603L105.072 115.882C105.112 116.07 105.108 116.263 105.063 116.449C105.018 116.635 104.932 116.809 104.812 116.957C104.691 117.106 104.539 117.226 104.366 117.308C104.193 117.39 104.004 117.433 103.813 117.433V117.433Z" fill="#2F2E41"/>
<path d="M87.1201 101.77C86.7814 101.771 86.4562 101.638 86.2153 101.4L68.8758 84.2822C68.7555 84.1634 68.6597 84.0221 68.5941 83.8663C68.5284 83.7106 68.494 83.5434 68.4929 83.3744C68.4919 83.2053 68.5242 83.0377 68.5879 82.8811C68.6516 82.7246 68.7456 82.5821 68.8644 82.4618L70.919 80.3821C71.159 80.1392 71.4857 80.0016 71.8272 79.9995C72.1687 79.9974 72.4971 80.1309 72.7401 80.3708L90.0796 97.4884C90.3222 97.7285 90.4597 98.055 90.4618 98.3962C90.464 98.7375 90.3306 99.0657 90.091 99.3088L88.0364 101.388C87.9167 101.51 87.774 101.606 87.6167 101.672C87.4594 101.737 87.2905 101.771 87.1201 101.77Z" fill="#0055D3"/>
<path d="M86.3184 102.289L78.6939 94.8523C78.4561 94.6203 78.3168 94.3058 78.3049 93.9739C78.2929 93.642 78.4092 93.3182 78.6297 93.0698L81.839 89.454C81.9657 89.3111 82.1226 89.1982 82.2983 89.1232C82.4739 89.0482 82.6641 89.013 82.8549 89.0203C83.0458 89.0275 83.2327 89.0769 83.4022 89.165C83.5717 89.2531 83.7196 89.3776 83.8352 89.5296L91.9933 97.8409C92.222 98.0959 92.3403 98.4311 92.3223 98.7731C92.3043 99.115 92.1515 99.436 91.8974 99.6656L88.1457 102.386C87.8904 102.615 87.5547 102.733 87.2121 102.715C86.8695 102.697 86.5481 102.544 86.3184 102.289Z" fill="#2F2E41"/>
<path d="M159.764 139H13.5026C13.4715 139 13.4408 138.994 13.4121 138.982C13.3834 138.97 13.3573 138.953 13.3353 138.931C13.3133 138.909 13.2959 138.883 13.284 138.855C13.2721 138.826 13.266 138.795 13.266 138.764C13.266 138.733 13.2721 138.702 13.284 138.674C13.2959 138.645 13.3133 138.619 13.3353 138.597C13.3573 138.575 13.3834 138.558 13.4121 138.546C13.4408 138.534 13.4715 138.528 13.5026 138.528H159.764C159.795 138.528 159.826 138.534 159.855 138.546C159.883 138.558 159.909 138.575 159.931 138.597C159.953 138.619 159.971 138.645 159.983 138.674C159.995 138.702 160.001 138.733 160.001 138.764C160.001 138.795 159.995 138.826 159.983 138.855C159.971 138.883 159.953 138.909 159.931 138.931C159.909 138.953 159.883 138.97 159.855 138.982C159.826 138.994 159.795 139 159.764 139Z" fill="#3F3D56"/>
</g>
<defs>
<clipPath id="clip0_8_4005">
<rect width="160" height="139" fill="white"/>
</clipPath>
</defs>
</svg>
