<svg width="540" height="477" viewBox="0 0 540 477" fill="none" xmlns="http://www.w3.org/2000/svg">
<g clip-path="url(#clip0_56_1075)">
<path d="M209.527 12.2832L211.65 8.99992C211.021 7.25956 210.293 5.55612 209.472 3.89771L208.099 5.00728L209.186 3.32624C208.15 1.28567 207.335 0 207.335 0C207.335 0 203.076 6.7142 201.653 13.823L204.378 18.0363L201.362 15.5986C201.254 16.4267 201.199 17.2607 201.196 18.0958C201.196 26.515 203.945 33.3401 207.335 33.3401C210.725 33.3401 213.473 26.515 213.473 18.0958C213.41 15.4172 212.936 12.7641 212.069 10.2291L209.527 12.2832Z" fill="#E6E6E6"/>
<path d="M224.557 19.5822L228.379 18.7628C229.163 17.0867 229.853 15.3676 230.444 13.6138L228.689 13.427L230.646 13.0074C231.355 10.8315 231.688 9.34566 231.688 9.34566C231.688 9.34566 223.931 11.0805 217.901 15.1007L216.85 20.0076L216.44 16.1499C215.779 16.6594 215.15 17.2101 214.558 17.7985C208.608 23.7518 205.728 30.5222 208.125 32.9207C210.522 35.3191 217.289 32.4374 223.239 26.4841C225.087 24.545 226.627 22.334 227.806 19.928L224.557 19.5822Z" fill="#E6E6E6"/>
<path d="M225.952 52.1603C217.09 52.7275 207.433 52.1273 197.16 52.1603V28.6275C206.212 30.0374 215.866 29.8926 225.952 28.6275V52.1603Z" fill="#E6E6E6"/>
<path d="M289.357 70.5101L290.741 68.3689C290.331 67.234 289.856 66.1231 289.321 65.0416L288.425 65.7652L289.134 64.6689C288.459 63.3381 287.927 62.4997 287.927 62.4997C286.221 65.2885 284.97 68.3315 284.222 71.5143L285.999 74.2619L284.032 72.6722C283.962 73.2122 283.926 73.7561 283.924 74.3007C283.924 79.7912 285.716 84.2422 287.927 84.2422C290.138 84.2422 291.93 79.7912 291.93 74.3007C291.889 72.5539 291.58 70.8237 291.014 69.1705L289.357 70.5101Z" fill="#E6E6E6"/>
<path d="M299.158 75.2701L301.651 74.7357C302.162 73.6426 302.612 72.5216 302.998 71.3778L301.853 71.256L303.129 70.9824C303.592 69.5634 303.809 68.5944 303.809 68.5944C300.631 69.3594 297.596 70.6264 294.818 72.3475L294.132 75.5475L293.865 73.0317C293.434 73.364 293.024 73.7231 292.638 74.1069C288.757 77.9892 286.879 82.4045 288.442 83.9686C290.006 85.5328 294.419 83.6534 298.299 79.7711C299.504 78.5065 300.509 77.0646 301.277 75.4956L299.158 75.2701Z" fill="#E6E6E6"/>
<path d="M300.069 96.5156C294.289 96.8855 287.991 96.4941 281.292 96.5156V81.1689C287.52 82.0418 293.84 82.0418 300.069 81.1689V96.5156Z" fill="#E6E6E6"/>
<path d="M296.5 141.997C291.396 142.323 285.836 141.978 279.92 141.997V128.446C285.42 129.216 291 129.216 296.5 128.446V141.997Z" fill="#E6E6E6"/>
<path d="M325.62 50.5053H102.516V56.7406H325.62V50.5053Z" fill="#E6E6E6"/>
<path d="M325.62 94.7755H102.516V101.011H325.62V94.7755Z" fill="#E6E6E6"/>
<path d="M325.62 139.046H102.516V145.281H325.62V139.046Z" fill="#E6E6E6"/>
<path d="M288.229 133.434C295.112 133.434 300.693 127.851 300.693 120.963C300.693 114.076 295.112 108.493 288.229 108.493C281.345 108.493 275.765 114.076 275.765 120.963C275.765 127.851 281.345 133.434 288.229 133.434Z" fill="#E6E6E6"/>
<path d="M288.228 130.94C293.735 130.94 298.2 126.473 298.2 120.963C298.2 115.454 293.735 110.987 288.228 110.987C282.722 110.987 278.257 115.454 278.257 120.963C278.257 126.473 282.722 130.94 288.228 130.94Z" fill="white"/>
<path d="M288.229 123.458C289.605 123.458 290.721 122.341 290.721 120.963C290.721 119.586 289.605 118.469 288.229 118.469C286.852 118.469 285.736 119.586 285.736 120.963C285.736 122.341 286.852 123.458 288.229 123.458Z" fill="#E6E6E6"/>
<path d="M296.953 121.587V120.34H286.982V121.587H296.953Z" fill="#E6E6E6"/>
<path d="M287.605 122.21H288.852V112.234H287.605V122.21Z" fill="#E6E6E6"/>
<path d="M216.16 64.3579H207.914V97.0185H216.16V64.3579Z" fill="#E6E6E6"/>
<path d="M216.16 69.5148H207.914V73.2966H216.16V69.5148Z" fill="#CCCCCC"/>
<path d="M216.16 86.0171H207.914V89.7988H216.16V86.0171Z" fill="#CCCCCC"/>
<path d="M203.447 64.3579H195.2V97.0185H203.447V64.3579Z" fill="#E6E6E6"/>
<path d="M203.447 69.5148H195.2V73.2966H203.447V69.5148Z" fill="#CCCCCC"/>
<path d="M203.447 86.0171H195.2V89.7988H203.447V86.0171Z" fill="#CCCCCC"/>
<path d="M223.266 64.2229L215.875 67.8838L230.359 97.1536L237.75 93.4927L223.266 64.2229Z" fill="#E6E6E6"/>
<path d="M225.553 68.8444L218.162 72.5053L219.839 75.8945L227.23 72.2335L225.553 68.8444Z" fill="#CCCCCC"/>
<path d="M232.871 83.6334L225.48 87.2943L227.158 90.6834L234.548 87.0225L232.871 83.6334Z" fill="#CCCCCC"/>
<path d="M142.623 108.628H134.376V141.289H142.623V108.628Z" fill="#E6E6E6"/>
<path d="M142.623 113.785H134.376V117.567H142.623V113.785Z" fill="#CCCCCC"/>
<path d="M142.623 130.287H134.376V134.069H142.623V130.287Z" fill="#CCCCCC"/>
<path d="M129.909 108.628H121.663V141.289H129.909V108.628Z" fill="#E6E6E6"/>
<path d="M129.909 113.785H121.663V117.567H129.909V113.785Z" fill="#CCCCCC"/>
<path d="M129.909 130.287H121.663V134.069H129.909V130.287Z" fill="#CCCCCC"/>
<path d="M149.729 108.493L142.338 112.154L156.822 141.424L164.212 137.763L149.729 108.493Z" fill="#E6E6E6"/>
<path d="M152.016 113.115L144.625 116.775L146.302 120.165L153.693 116.504L152.016 113.115Z" fill="#CCCCCC"/>
<path d="M159.333 127.903L151.943 131.564L153.62 134.954L161.011 131.293L159.333 127.903Z" fill="#CCCCCC"/>
<path d="M219.9 108.628H211.653V141.289H219.9V108.628Z" fill="#E6E6E6"/>
<path d="M219.9 113.785H211.653V117.567H219.9V113.785Z" fill="#CCCCCC"/>
<path d="M219.9 130.287H211.653V134.069H219.9V130.287Z" fill="#CCCCCC"/>
<path d="M207.186 108.628H198.939V141.289H207.186V108.628Z" fill="#E6E6E6"/>
<path d="M207.186 113.785H198.939V117.567H207.186V113.785Z" fill="#CCCCCC"/>
<path d="M207.186 130.287H198.939V134.069H207.186V130.287Z" fill="#CCCCCC"/>
<path d="M227.005 108.493L219.614 112.154L234.098 141.424L241.489 137.763L227.005 108.493Z" fill="#E6E6E6"/>
<path d="M229.292 113.115L221.901 116.775L223.578 120.165L230.969 116.504L229.292 113.115Z" fill="#CCCCCC"/>
<path d="M236.61 127.903L229.219 131.564L230.896 134.954L238.287 131.293L236.61 127.903Z" fill="#CCCCCC"/>
<path d="M308.171 19.9897H275.395V52.7834H308.171V19.9897Z" fill="#E6E6E6"/>
<path d="M301.616 26.5485H281.95V46.2247H301.616V26.5485Z" fill="#CCCCCC"/>
<path d="M287.642 33.1531L291.812 40.3791L295.982 47.6052H287.642H279.302L283.472 40.3791L287.642 33.1531Z" fill="#E6E6E6"/>
<path d="M294.888 34.5339L299.058 41.7599L303.227 48.986H294.888H286.548L290.718 41.7599L294.888 34.5339Z" fill="#E6E6E6"/>
<path d="M297.82 32.4168C299.154 32.4168 300.235 31.335 300.235 30.0004C300.235 28.6659 299.154 27.5841 297.82 27.5841C296.487 27.5841 295.405 28.6659 295.405 30.0004C295.405 31.335 296.487 32.4168 297.82 32.4168Z" fill="#E6E6E6"/>
<path d="M142.401 19.9897H109.624V52.7834H142.401V19.9897Z" fill="#E6E6E6"/>
<path d="M135.845 26.5485H116.179V46.2247H135.845V26.5485Z" fill="#CCCCCC"/>
<path d="M121.872 33.1531L126.042 40.3791L130.212 47.6052H121.872H113.532L117.702 40.3791L121.872 33.1531Z" fill="#E6E6E6"/>
<path d="M129.118 34.5339L133.287 41.7599L137.457 48.986H129.118H120.778L124.947 41.7599L129.118 34.5339Z" fill="#E6E6E6"/>
<path d="M132.05 32.4168C133.384 32.4168 134.465 31.335 134.465 30.0004C134.465 28.6659 133.384 27.5841 132.05 27.5841C130.716 27.5841 129.635 28.6659 129.635 30.0004C129.635 31.335 130.716 32.4168 132.05 32.4168Z" fill="#E6E6E6"/>
<path d="M43.757 243.61L45.8803 240.327C45.2506 238.586 44.5233 236.883 43.7019 235.225L42.3288 236.334L43.416 234.653C42.3799 232.613 41.5647 231.327 41.5647 231.327C41.5647 231.327 37.3062 238.041 35.8834 245.15L38.6082 249.363L35.5918 246.925C35.4843 247.754 35.4291 248.588 35.4263 249.423C35.4263 257.842 38.1745 264.667 41.5647 264.667C44.9548 264.667 47.7031 257.842 47.7031 249.423C47.6395 246.744 47.1659 244.091 46.2988 241.556L43.757 243.61Z" fill="#0055D3"/>
<path d="M58.7862 250.909L62.6081 250.09C63.3928 248.414 64.0824 246.695 64.6736 244.941L62.9185 244.754L64.8754 244.334C65.5849 242.158 65.917 240.673 65.917 240.673C65.917 240.673 58.1607 242.407 52.1306 246.428L51.0796 251.334L50.6694 247.477C50.0082 247.986 49.3797 248.537 48.7876 249.125C42.8374 255.079 39.9571 261.849 42.3543 264.248C44.7515 266.646 51.5184 263.764 57.4686 257.811C59.3167 255.872 60.8568 253.661 62.0353 251.255L58.7862 250.909Z" fill="#0055D3"/>
<path d="M60.1824 283.487C51.3199 284.054 41.6632 283.454 31.3901 283.487V259.954C40.4424 261.364 50.0959 261.22 60.1824 259.954V283.487Z" fill="#3F3D56"/>
<path d="M426.267 290.873H306.613V446.13H426.267V290.873Z" fill="#E6E6E6"/>
<path d="M62.9429 298.979H56.7109V446.13H62.9429V298.979Z" fill="#E6E6E6"/>
<path d="M426.267 280.273H0V292.744H426.267V280.273Z" fill="#E6E6E6"/>
<path d="M66.0587 292.744H53.5947V305.214H66.0587V292.744Z" fill="#E6E6E6"/>
<path d="M375.866 299.914L375.164 302.72H357.715L356.664 299.914H312.222V328.597H420.658V299.914H375.866Z" fill="#3F3D56"/>
<path d="M375.866 336.079L375.164 338.884H357.715L356.664 336.079H312.222V364.761H420.658V336.079H375.866Z" fill="#3F3D56"/>
<path d="M375.866 372.243L375.164 375.049H357.715L356.664 372.243H312.222V400.925H420.658V372.243H375.866Z" fill="#3F3D56"/>
<path d="M375.866 408.408L375.164 411.213H357.715L356.664 408.408H312.222V437.09H420.658V408.408H375.866Z" fill="#3F3D56"/>
<path d="M231.206 278.403H194.438L195.684 262.191H229.959L231.206 278.403Z" fill="#E6E6E6"/>
<path d="M233.699 276.532H192.568V280.273H233.699V276.532Z" fill="#E6E6E6"/>
<path d="M283.243 157.751H142.712C141.72 157.751 140.769 158.145 140.068 158.847C139.367 159.549 138.973 160.5 138.973 161.492V247.227H286.982V161.492C286.982 160.5 286.588 159.549 285.887 158.847C285.185 158.145 284.234 157.751 283.243 157.751Z" fill="#3F3D56"/>
<path d="M138.973 247.227V261.256C138.973 262.248 139.367 263.2 140.068 263.901C140.769 264.603 141.72 264.997 142.712 264.997H283.243C284.234 264.997 285.185 264.603 285.887 263.901C286.588 263.2 286.982 262.248 286.982 261.256V247.227H138.973Z" fill="#E6E6E6"/>
<path d="M279.815 165.545H146.451V240.368H279.815V165.545Z" fill="white"/>
<path d="M213.133 259.697C215.198 259.697 216.872 258.022 216.872 255.956C216.872 253.89 215.198 252.215 213.133 252.215C211.068 252.215 209.394 253.89 209.394 255.956C209.394 258.022 211.068 259.697 213.133 259.697Z" fill="#3F3D56"/>
<path d="M529.406 445.195C515.786 446.067 500.946 445.145 485.159 445.195V409.031C499.07 411.198 513.905 410.975 529.406 409.031V445.195Z" fill="#3F3D56"/>
<path d="M508.84 412.278H505.101L506.347 339.197H507.593L508.84 412.278Z" fill="#3F3D56"/>
<path d="M525.667 412.772H521.927L523.174 339.69H524.42L525.667 412.772Z" fill="#3F3D56"/>
<path d="M493.883 412.772H490.144L491.391 339.69H492.637L493.883 412.772Z" fill="#3F3D56"/>
<path d="M511.956 292.432L517.992 283.099C516.202 278.152 514.135 273.309 511.8 268.595L507.897 271.749L510.987 266.97C508.042 261.17 505.724 257.515 505.724 257.515C505.724 257.515 493.619 276.601 489.574 296.809L497.32 308.786L488.745 301.857C488.44 304.211 488.283 306.582 488.275 308.956C488.275 332.889 496.087 352.29 505.724 352.29C515.361 352.29 523.174 332.889 523.174 308.956C523.174 301.536 521.496 293.774 519.182 286.593L511.956 292.432Z" fill="#E6E6E6"/>
<path d="M528.783 293.679L534.819 284.346C533.029 279.399 530.961 274.556 528.626 269.842L524.723 272.996L527.813 268.217C524.868 262.417 522.551 258.762 522.551 258.762C522.551 258.762 510.445 277.848 506.401 298.056L514.146 310.033L505.572 303.104C505.266 305.458 505.109 307.829 505.101 310.203C505.101 334.136 512.913 353.537 522.551 353.537C532.188 353.537 540 334.136 540 310.203C540 302.783 538.322 295.021 536.008 287.84L528.783 293.679Z" fill="#0055D3"/>
<path d="M496.999 293.679L503.035 284.346C501.245 279.399 499.178 274.556 496.843 269.842L492.94 272.996L496.03 268.217C493.085 262.417 490.767 258.762 490.767 258.762C490.767 258.762 478.662 277.848 474.617 298.056L482.363 310.033L473.788 303.104C473.483 305.458 473.326 307.829 473.318 310.203C473.318 334.136 481.13 353.537 490.767 353.537C500.404 353.537 508.217 334.136 508.217 310.203C508.217 302.783 506.539 295.021 504.225 287.84L496.999 293.679Z" fill="#0055D3"/>
<path d="M225.658 186.666H189.699V188.731H225.658V186.666Z" fill="#3F3D56"/>
<path d="M245.228 194.199H189.699V196.265H245.228V194.199Z" fill="#0055D3"/>
<path d="M234.954 201.297H189.699V203.362H234.954V201.297Z" fill="#0055D3"/>
<path d="M216.118 208.368H189.699V210.433H216.118V208.368Z" fill="#3F3D56"/>
<path d="M229.572 215.439H189.699V217.504H229.572V215.439Z" fill="#3F3D56"/>
<path d="M177.713 185.932H173.31V190.337H177.713V185.932Z" fill="#3F3D56"/>
<path d="M177.713 193.029H173.31V197.435H177.713V193.029Z" fill="#0055D3"/>
<path d="M177.713 200.127H173.31V204.532H177.713V200.127Z" fill="#0055D3"/>
<path d="M177.713 207.225H173.31V211.63H177.713V207.225Z" fill="#3F3D56"/>
<path d="M177.713 214.322H173.31V218.728H177.713V214.322Z" fill="#3F3D56"/>
<path d="M273.637 182.756H254.767C253.479 175.308 253.479 167.694 254.767 160.245H273.637C271.511 167.598 271.511 175.403 273.637 182.756Z" fill="#0055D3"/>
<path d="M136.332 227.873L128.569 225.98C125.607 225.984 122.681 225.328 120.002 224.062C117.324 222.795 114.961 220.948 113.084 218.655C111.206 216.363 109.862 213.681 109.148 210.804C108.433 207.928 108.367 204.929 108.954 202.023C108.945 195.091 111.689 188.44 116.582 183.532C121.475 178.624 128.116 175.862 135.044 175.854H135.044C141.973 175.845 148.621 178.59 153.526 183.486C158.431 188.381 161.192 195.026 161.2 201.958V201.958C165.602 217.283 151.816 231.65 136.332 227.873Z" fill="#2F2E41"/>
<path d="M144.812 230.606C155.413 230.606 164.007 222.007 164.007 211.401C164.007 200.795 155.413 192.196 144.812 192.196C134.211 192.196 125.618 200.795 125.618 211.401C125.618 222.007 134.211 230.606 144.812 230.606Z" fill="#FFB8B8"/>
<path d="M132.294 221.421C132.294 221.421 126.452 241.461 123.114 243.131C119.776 244.801 149.82 247.306 149.82 247.306C149.82 247.306 148.985 228.101 150.654 226.431C152.323 224.761 132.294 221.421 132.294 221.421Z" fill="#FFB8B8"/>
<path d="M162.338 344.999C162.338 344.999 199.893 341.659 204.9 354.184C209.907 366.709 201.562 441.023 201.562 441.023H185.705V380.069C185.705 380.069 118.096 360.841 118.096 354.161C118.096 347.481 162.338 344.999 162.338 344.999Z" fill="#2F2E41"/>
<path d="M199.058 437.683L207.404 441.023C207.404 441.023 217.418 440.188 213.245 447.703C212.051 449.884 210.38 451.768 208.357 453.214C206.334 454.66 204.012 455.63 201.562 456.053C201.562 456.053 185.705 461.898 184.871 456.053C184.036 450.208 189.043 438.518 189.043 438.518L199.058 437.683Z" fill="#2F2E41"/>
<path d="M141.474 344.999C141.474 344.999 179.029 341.659 184.036 354.184C189.044 366.709 180.698 441.023 180.698 441.023H164.842V380.069C164.842 380.069 116.849 368.947 116.849 362.267C116.849 359.129 113.579 343.18 119.342 339.82C125.847 336.028 141.474 344.999 141.474 344.999Z" fill="#2F2E41"/>
<path d="M178.194 437.683L186.54 441.023C186.54 441.023 196.554 440.188 192.382 447.703C191.187 449.884 189.516 451.768 187.494 453.214C185.471 454.66 183.148 455.63 180.698 456.053C180.698 456.053 164.841 461.898 164.007 456.053C163.172 450.208 168.18 438.518 168.18 438.518L178.194 437.683Z" fill="#2F2E41"/>
<path d="M123.948 240.626L149.029 243.353C152.899 243.774 156.538 245.408 159.425 248.022C162.312 250.635 164.3 254.095 165.105 257.906L174.856 304.085C174.856 304.085 178.194 350.009 171.518 352.514C164.842 355.019 155.661 342.494 143.143 344.164C130.625 345.834 114.351 349.592 114.351 349.592C114.351 349.592 111.767 267.389 111.43 260.665C110.757 247.224 123.948 240.626 123.948 240.626Z" fill="#575A89"/>
<path d="M183.357 347.385L193.653 353.452C193.653 353.452 212.125 350.8 211.548 357.296C210.972 363.792 190.808 362.537 190.808 362.537L178.4 354.887L183.357 347.385Z" fill="#FFB8B8"/>
<path d="M107.555 195.781C114.403 195.781 119.954 190.227 119.954 183.376C119.954 176.525 114.403 170.97 107.555 170.97C100.707 170.97 95.1562 176.525 95.1562 183.376C95.1562 190.227 100.707 195.781 107.555 195.781Z" fill="#2F2E41"/>
<path d="M118.996 176.707C118.994 174.872 118.586 173.06 117.8 171.402C117.014 169.744 115.869 168.282 114.45 167.12C113.03 165.958 111.371 165.125 109.591 164.683C107.811 164.241 105.955 164.199 104.157 164.561C105.743 163.811 107.471 163.406 109.225 163.374C110.979 163.342 112.721 163.683 114.333 164.375C115.946 165.066 117.394 166.093 118.581 167.386C119.767 168.679 120.666 170.21 121.217 171.876C121.769 173.543 121.96 175.308 121.779 177.054C121.597 178.8 121.047 180.488 120.165 182.005C119.283 183.523 118.089 184.836 116.662 185.857C115.235 186.879 113.607 187.585 111.887 187.93C114.014 186.927 115.812 185.34 117.071 183.352C118.33 181.365 118.998 179.06 118.996 176.707Z" fill="#2F2E41"/>
<path d="M129.633 183.743L146.348 180.663L159.203 188.724C162.364 190.706 164.89 193.553 166.482 196.928C168.074 200.303 168.666 204.064 168.186 207.765L155.311 204.5L152.428 197.267L148.995 202.898L131.042 226.013L120.963 219.591L111.977 205.502L129.633 183.743Z" fill="#2F2E41"/>
<path d="M143.398 247.728L151.743 243.554C151.743 243.554 169.269 246.058 172.607 257.748C175.946 269.438 190.967 350.432 190.967 350.432L176.78 357.112L156.751 307.848L143.398 247.728Z" fill="#575A89"/>
<path opacity="0.2" d="M150.502 280.586L158.855 313.023L173.667 349.454L173.153 350.716L155.488 313.632L150.502 280.586Z" fill="black"/>
<path d="M88.18 459.476L85.2344 458.46L113.769 373.659L117.894 375.081L88.18 459.476Z" fill="#3F3D56"/>
<path d="M197.244 459.476L200.19 458.46L171.655 373.659L167.53 375.081L197.244 459.476Z" fill="#3F3D56"/>
<path d="M136.948 476.989L140.064 477L141.032 377.87L136.67 377.854L136.948 476.989Z" fill="#3F3D56"/>
<path d="M80.9682 323.832L89.5153 358.395C90.7122 363.235 93.2043 367.657 96.7239 371.187C100.244 374.717 104.658 377.221 109.492 378.431H109.492C133.329 384.393 158.286 384.232 182.044 377.963L194.805 374.596C202.22 372.639 207.796 366.267 208.323 358.613C208.537 355.907 208.047 353.192 206.901 350.731C206.852 350.625 206.801 350.52 206.751 350.416C205.087 346.996 202.519 344.096 199.327 342.031C196.134 339.965 192.437 338.812 188.637 338.697L175.118 338.261L125.886 316.438C125.886 316.438 108.954 307.833 95.0337 306.869C85.8409 306.233 78.755 314.882 80.9682 323.832Z" fill="#0055D3"/>
<path d="M381.085 215.115H332.476V281.209H381.085V215.115Z" fill="#E6E6E6"/>
<path d="M375.476 222.742H338.084V273.583H375.476V222.742Z" fill="white"/>
<path d="M370.917 236.046H352.801V238.111H370.917V236.046Z" fill="#3F3D56"/>
<path d="M347.046 234.903H342.643V239.308H347.046V234.903Z" fill="#3F3D56"/>
<path d="M370.917 244.775H352.801V246.841H370.917V244.775Z" fill="#3F3D56"/>
<path d="M347.046 243.632H342.643V248.038H347.046V243.632Z" fill="#3F3D56"/>
<path d="M370.917 253.505H352.801V255.57H370.917V253.505Z" fill="#3F3D56"/>
<path d="M347.046 252.361H342.643V256.767H347.046V252.361Z" fill="#3F3D56"/>
<path d="M358.65 218.856C358.65 217.823 357.813 216.986 356.78 216.986C355.748 216.986 354.911 217.823 354.911 218.856C354.911 219.89 355.748 220.727 356.78 220.727C357.813 220.727 358.65 219.89 358.65 218.856Z" fill="#3F3D56"/>
</g>
<defs>
<clipPath id="clip0_56_1075">
<rect width="540" height="477" fill="white"/>
</clipPath>
</defs>
</svg>
